G04 #@! TF.GenerationSoftware,KiCad,Pcbnew,(6.0.11)*
G04 #@! TF.CreationDate,2023-12-29T12:30:21+09:00*
G04 #@! TF.ProjectId,12V_Dual_5V_PSU,3132565f-4475-4616-9c5f-35565f505355,Ver. 1.1a*
G04 #@! TF.SameCoordinates,Original*
G04 #@! TF.FileFunction,Legend,Bot*
G04 #@! TF.FilePolarity,Positive*
%FSLAX46Y46*%
G04 Gerber Fmt 4.6, Leading zero omitted, Abs format (unit mm)*
G04 Created by KiCad (PCBNEW (6.0.11)) date 2023-12-29 12:30:21*
%MOMM*%
%LPD*%
G01*
G04 APERTURE LIST*
G04 Aperture macros list*
%AMRoundRect*
0 Rectangle with rounded corners*
0 $1 Rounding radius*
0 $2 $3 $4 $5 $6 $7 $8 $9 X,Y pos of 4 corners*
0 Add a 4 corners polygon primitive as box body*
4,1,4,$2,$3,$4,$5,$6,$7,$8,$9,$2,$3,0*
0 Add four circle primitives for the rounded corners*
1,1,$1+$1,$2,$3*
1,1,$1+$1,$4,$5*
1,1,$1+$1,$6,$7*
1,1,$1+$1,$8,$9*
0 Add four rect primitives between the rounded corners*
20,1,$1+$1,$2,$3,$4,$5,0*
20,1,$1+$1,$4,$5,$6,$7,0*
20,1,$1+$1,$6,$7,$8,$9,0*
20,1,$1+$1,$8,$9,$2,$3,0*%
G04 Aperture macros list end*
%ADD10C,0.150000*%
%ADD11C,1.600000*%
%ADD12O,1.600000X1.600000*%
%ADD13R,1.600000X1.600000*%
%ADD14C,3.200000*%
%ADD15R,3.200000X3.200000*%
%ADD16RoundRect,0.250000X0.725000X-0.600000X0.725000X0.600000X-0.725000X0.600000X-0.725000X-0.600000X0*%
%ADD17O,1.950000X1.700000*%
%ADD18O,1.905000X2.000000*%
%ADD19R,1.905000X2.000000*%
%ADD20C,2.600000*%
%ADD21R,1.800000X1.800000*%
%ADD22C,1.800000*%
%ADD23R,2.400000X2.400000*%
%ADD24C,2.400000*%
%ADD25RoundRect,0.250000X-0.725000X0.600000X-0.725000X-0.600000X0.725000X-0.600000X0.725000X0.600000X0*%
G04 APERTURE END LIST*
D10*
X165112238Y-130117904D02*
X165112238Y-130689333D01*
X165150333Y-130803619D01*
X165226523Y-130879809D01*
X165340809Y-130917904D01*
X165417000Y-130917904D01*
X164350333Y-130917904D02*
X164731285Y-130917904D01*
X164731285Y-130117904D01*
X163626523Y-130841714D02*
X163664619Y-130879809D01*
X163778904Y-130917904D01*
X163855095Y-130917904D01*
X163969380Y-130879809D01*
X164045571Y-130803619D01*
X164083666Y-130727428D01*
X164121761Y-130575047D01*
X164121761Y-130460761D01*
X164083666Y-130308380D01*
X164045571Y-130232190D01*
X163969380Y-130156000D01*
X163855095Y-130117904D01*
X163778904Y-130117904D01*
X163664619Y-130156000D01*
X163626523Y-130194095D01*
X163055095Y-130117904D02*
X163055095Y-130689333D01*
X163093190Y-130803619D01*
X163169380Y-130879809D01*
X163283666Y-130917904D01*
X163359857Y-130917904D01*
X162293190Y-130917904D02*
X162674142Y-130917904D01*
X162674142Y-130117904D01*
X161569380Y-130841714D02*
X161607476Y-130879809D01*
X161721761Y-130917904D01*
X161797952Y-130917904D01*
X161912238Y-130879809D01*
X161988428Y-130803619D01*
X162026523Y-130727428D01*
X162064619Y-130575047D01*
X162064619Y-130460761D01*
X162026523Y-130308380D01*
X161988428Y-130232190D01*
X161912238Y-130156000D01*
X161797952Y-130117904D01*
X161721761Y-130117904D01*
X161607476Y-130156000D01*
X161569380Y-130194095D01*
X160997952Y-130117904D02*
X160997952Y-130689333D01*
X161036047Y-130803619D01*
X161112238Y-130879809D01*
X161226523Y-130917904D01*
X161302714Y-130917904D01*
X160236047Y-130917904D02*
X160617000Y-130917904D01*
X160617000Y-130117904D01*
X159512238Y-130841714D02*
X159550333Y-130879809D01*
X159664619Y-130917904D01*
X159740809Y-130917904D01*
X159855095Y-130879809D01*
X159931285Y-130803619D01*
X159969380Y-130727428D01*
X160007476Y-130575047D01*
X160007476Y-130460761D01*
X159969380Y-130308380D01*
X159931285Y-130232190D01*
X159855095Y-130156000D01*
X159740809Y-130117904D01*
X159664619Y-130117904D01*
X159550333Y-130156000D01*
X159512238Y-130194095D01*
X158940809Y-130117904D02*
X158940809Y-130689333D01*
X158978904Y-130803619D01*
X159055095Y-130879809D01*
X159169380Y-130917904D01*
X159245571Y-130917904D01*
X158178904Y-130917904D02*
X158559857Y-130917904D01*
X158559857Y-130117904D01*
X157455095Y-130841714D02*
X157493190Y-130879809D01*
X157607476Y-130917904D01*
X157683666Y-130917904D01*
X157797952Y-130879809D01*
X157874142Y-130803619D01*
X157912238Y-130727428D01*
X157950333Y-130575047D01*
X157950333Y-130460761D01*
X157912238Y-130308380D01*
X157874142Y-130232190D01*
X157797952Y-130156000D01*
X157683666Y-130117904D01*
X157607476Y-130117904D01*
X157493190Y-130156000D01*
X157455095Y-130194095D01*
%LPC*%
D11*
X132100000Y-93726000D03*
X134600000Y-93726000D03*
D12*
X145415000Y-86106000D03*
D13*
X145415000Y-93726000D03*
D12*
X165735000Y-82858000D03*
D11*
X155575000Y-82858000D03*
D12*
X139700000Y-96193000D03*
D13*
X132080000Y-96193000D03*
D14*
X109570000Y-106650000D03*
X109570000Y-101570000D03*
X109570000Y-96490000D03*
D15*
X109570000Y-91410000D03*
D16*
X101600000Y-102870000D03*
D17*
X101600000Y-100370000D03*
X101600000Y-97870000D03*
X101600000Y-95370000D03*
D12*
X165735000Y-87938000D03*
D11*
X155575000Y-87938000D03*
D12*
X129540000Y-102543000D03*
D13*
X129540000Y-110163000D03*
D18*
X139700000Y-87630000D03*
X137160000Y-87630000D03*
D19*
X134620000Y-87630000D03*
D11*
X134600000Y-105083000D03*
X132100000Y-105083000D03*
D20*
X137160000Y-117275000D03*
X148590000Y-117275000D03*
X125730000Y-117275000D03*
D16*
X116315000Y-102870000D03*
D17*
X116315000Y-100370000D03*
X116315000Y-97870000D03*
X116315000Y-95370000D03*
D11*
X137240000Y-105083000D03*
X142240000Y-105083000D03*
D21*
X171475000Y-82858000D03*
D22*
X168935000Y-82858000D03*
D14*
X99060000Y-68720500D03*
X177340000Y-69040000D03*
D22*
X168910000Y-110798000D03*
D21*
X171450000Y-110798000D03*
D11*
X137180000Y-93726000D03*
X139680000Y-93726000D03*
D14*
X177340000Y-129080000D03*
D11*
X158750000Y-93693000D03*
D13*
X158750000Y-96193000D03*
D18*
X134620000Y-111433000D03*
X137160000Y-111433000D03*
D19*
X139700000Y-111433000D03*
D23*
X109220000Y-124340000D03*
D24*
X109220000Y-116840000D03*
D20*
X148590000Y-81715000D03*
X125730000Y-81715000D03*
X137160000Y-81715000D03*
D22*
X168915000Y-87938000D03*
D21*
X171455000Y-87938000D03*
D14*
X99060000Y-129540000D03*
D18*
X166370000Y-76062500D03*
X163830000Y-76062500D03*
D19*
X161290000Y-76062500D03*
D23*
X109220000Y-81280000D03*
D24*
X109220000Y-73780000D03*
D17*
X168800000Y-104368000D03*
X168800000Y-101868000D03*
X168800000Y-99368000D03*
X168800000Y-96868000D03*
D25*
X168800000Y-94368000D03*
D12*
X165735000Y-110798000D03*
D11*
X155575000Y-110798000D03*
D12*
X142240000Y-102543000D03*
D13*
X134620000Y-102543000D03*
D11*
X158750000Y-102495380D03*
D13*
X158750000Y-104995380D03*
M02*
