G04 #@! TF.GenerationSoftware,KiCad,Pcbnew,(6.0.11)*
G04 #@! TF.CreationDate,2023-12-29T12:30:20+09:00*
G04 #@! TF.ProjectId,12V_Dual_5V_PSU,3132565f-4475-4616-9c5f-35565f505355,Ver. 1.1a*
G04 #@! TF.SameCoordinates,Original*
G04 #@! TF.FileFunction,Copper,L2,Bot*
G04 #@! TF.FilePolarity,Positive*
%FSLAX46Y46*%
G04 Gerber Fmt 4.6, Leading zero omitted, Abs format (unit mm)*
G04 Created by KiCad (PCBNEW (6.0.11)) date 2023-12-29 12:30:20*
%MOMM*%
%LPD*%
G01*
G04 APERTURE LIST*
G04 Aperture macros list*
%AMRoundRect*
0 Rectangle with rounded corners*
0 $1 Rounding radius*
0 $2 $3 $4 $5 $6 $7 $8 $9 X,Y pos of 4 corners*
0 Add a 4 corners polygon primitive as box body*
4,1,4,$2,$3,$4,$5,$6,$7,$8,$9,$2,$3,0*
0 Add four circle primitives for the rounded corners*
1,1,$1+$1,$2,$3*
1,1,$1+$1,$4,$5*
1,1,$1+$1,$6,$7*
1,1,$1+$1,$8,$9*
0 Add four rect primitives between the rounded corners*
20,1,$1+$1,$2,$3,$4,$5,0*
20,1,$1+$1,$4,$5,$6,$7,0*
20,1,$1+$1,$6,$7,$8,$9,0*
20,1,$1+$1,$8,$9,$2,$3,0*%
G04 Aperture macros list end*
G04 #@! TA.AperFunction,ComponentPad*
%ADD10C,1.600000*%
G04 #@! TD*
G04 #@! TA.AperFunction,ComponentPad*
%ADD11O,1.600000X1.600000*%
G04 #@! TD*
G04 #@! TA.AperFunction,ComponentPad*
%ADD12R,1.600000X1.600000*%
G04 #@! TD*
G04 #@! TA.AperFunction,ComponentPad*
%ADD13C,3.200000*%
G04 #@! TD*
G04 #@! TA.AperFunction,ComponentPad*
%ADD14R,3.200000X3.200000*%
G04 #@! TD*
G04 #@! TA.AperFunction,ComponentPad*
%ADD15RoundRect,0.250000X0.725000X-0.600000X0.725000X0.600000X-0.725000X0.600000X-0.725000X-0.600000X0*%
G04 #@! TD*
G04 #@! TA.AperFunction,ComponentPad*
%ADD16O,1.950000X1.700000*%
G04 #@! TD*
G04 #@! TA.AperFunction,ComponentPad*
%ADD17O,1.905000X2.000000*%
G04 #@! TD*
G04 #@! TA.AperFunction,ComponentPad*
%ADD18R,1.905000X2.000000*%
G04 #@! TD*
G04 #@! TA.AperFunction,ComponentPad*
%ADD19C,2.600000*%
G04 #@! TD*
G04 #@! TA.AperFunction,ComponentPad*
%ADD20R,1.800000X1.800000*%
G04 #@! TD*
G04 #@! TA.AperFunction,ComponentPad*
%ADD21C,1.800000*%
G04 #@! TD*
G04 #@! TA.AperFunction,ComponentPad*
%ADD22R,2.400000X2.400000*%
G04 #@! TD*
G04 #@! TA.AperFunction,ComponentPad*
%ADD23C,2.400000*%
G04 #@! TD*
G04 #@! TA.AperFunction,ComponentPad*
%ADD24RoundRect,0.250000X-0.725000X0.600000X-0.725000X-0.600000X0.725000X-0.600000X0.725000X0.600000X0*%
G04 #@! TD*
G04 APERTURE END LIST*
D10*
X132100000Y-93726000D03*
X134600000Y-93726000D03*
D11*
X145415000Y-86106000D03*
D12*
X145415000Y-93726000D03*
D11*
X165735000Y-82858000D03*
D10*
X155575000Y-82858000D03*
D11*
X139700000Y-96193000D03*
D12*
X132080000Y-96193000D03*
D13*
X109570000Y-106650000D03*
X109570000Y-101570000D03*
X109570000Y-96490000D03*
D14*
X109570000Y-91410000D03*
D15*
X101600000Y-102870000D03*
D16*
X101600000Y-100370000D03*
X101600000Y-97870000D03*
X101600000Y-95370000D03*
D11*
X165735000Y-87938000D03*
D10*
X155575000Y-87938000D03*
D11*
X129540000Y-102543000D03*
D12*
X129540000Y-110163000D03*
D17*
X139700000Y-87630000D03*
X137160000Y-87630000D03*
D18*
X134620000Y-87630000D03*
D10*
X134600000Y-105083000D03*
X132100000Y-105083000D03*
D19*
X137160000Y-117275000D03*
X148590000Y-117275000D03*
X125730000Y-117275000D03*
D15*
X116315000Y-102870000D03*
D16*
X116315000Y-100370000D03*
X116315000Y-97870000D03*
X116315000Y-95370000D03*
D10*
X137240000Y-105083000D03*
X142240000Y-105083000D03*
D20*
X171475000Y-82858000D03*
D21*
X168935000Y-82858000D03*
X168910000Y-110798000D03*
D20*
X171450000Y-110798000D03*
D10*
X137180000Y-93726000D03*
X139680000Y-93726000D03*
X158750000Y-93693000D03*
D12*
X158750000Y-96193000D03*
D17*
X134620000Y-111433000D03*
X137160000Y-111433000D03*
D18*
X139700000Y-111433000D03*
D22*
X109220000Y-124340000D03*
D23*
X109220000Y-116840000D03*
D19*
X148590000Y-81715000D03*
X125730000Y-81715000D03*
X137160000Y-81715000D03*
D21*
X168915000Y-87938000D03*
D20*
X171455000Y-87938000D03*
D17*
X166370000Y-76062500D03*
X163830000Y-76062500D03*
D18*
X161290000Y-76062500D03*
D22*
X109220000Y-81280000D03*
D23*
X109220000Y-73780000D03*
D16*
X168800000Y-104368000D03*
X168800000Y-101868000D03*
X168800000Y-99368000D03*
X168800000Y-96868000D03*
D24*
X168800000Y-94368000D03*
D11*
X165735000Y-110798000D03*
D10*
X155575000Y-110798000D03*
D11*
X142240000Y-102543000D03*
D12*
X134620000Y-102543000D03*
D10*
X158750000Y-102495380D03*
D12*
X158750000Y-104995380D03*
G04 #@! TA.AperFunction,Conductor*
G36*
X169230982Y-66553689D02*
G01*
X169972082Y-66773212D01*
X169978356Y-66775250D01*
X170712412Y-67035194D01*
X170718570Y-67037558D01*
X171438003Y-67335556D01*
X171444029Y-67338239D01*
X172146879Y-67673482D01*
X172152757Y-67676477D01*
X172837095Y-68048042D01*
X172842808Y-68051340D01*
X173506779Y-68458221D01*
X173512311Y-68461814D01*
X174154065Y-68902880D01*
X174159402Y-68906758D01*
X174777189Y-69380803D01*
X174782315Y-69384954D01*
X175374443Y-69890679D01*
X175379340Y-69895088D01*
X175415952Y-69929831D01*
X175445115Y-69971792D01*
X175456923Y-69999476D01*
X175604561Y-70246161D01*
X175784313Y-70470528D01*
X175907711Y-70587628D01*
X175984088Y-70660107D01*
X175992851Y-70668423D01*
X176226317Y-70836186D01*
X176230112Y-70838195D01*
X176230113Y-70838196D01*
X176414122Y-70935624D01*
X176446560Y-70960245D01*
X176484907Y-71000654D01*
X176489321Y-71005557D01*
X176995046Y-71597685D01*
X176999197Y-71602811D01*
X177473242Y-72220598D01*
X177477120Y-72225935D01*
X177918186Y-72867689D01*
X177921779Y-72873221D01*
X178328660Y-73537192D01*
X178331958Y-73542905D01*
X178703523Y-74227243D01*
X178706518Y-74233121D01*
X179041761Y-74935971D01*
X179044444Y-74941997D01*
X179342442Y-75661430D01*
X179344806Y-75667588D01*
X179604750Y-76401644D01*
X179606788Y-76407918D01*
X179826311Y-77149018D01*
X179831500Y-77184804D01*
X179831500Y-120935196D01*
X179826311Y-120970982D01*
X179606788Y-121712082D01*
X179604750Y-121718356D01*
X179344806Y-122452412D01*
X179342442Y-122458570D01*
X179044444Y-123178003D01*
X179041761Y-123184029D01*
X178706518Y-123886879D01*
X178703523Y-123892757D01*
X178331958Y-124577095D01*
X178328660Y-124582808D01*
X177921779Y-125246779D01*
X177918186Y-125252311D01*
X177477120Y-125894065D01*
X177473242Y-125899402D01*
X176999197Y-126517189D01*
X176995060Y-126522299D01*
X176489321Y-127114443D01*
X176484908Y-127119344D01*
X176445311Y-127161071D01*
X176411703Y-127186305D01*
X176248995Y-127270285D01*
X176245188Y-127272250D01*
X176241687Y-127274711D01*
X176241683Y-127274713D01*
X176228734Y-127283814D01*
X176009977Y-127437559D01*
X175799378Y-127633260D01*
X175617287Y-127855732D01*
X175467073Y-128100858D01*
X175465346Y-128104791D01*
X175465345Y-128104794D01*
X175446588Y-128147524D01*
X175417947Y-128188276D01*
X175379344Y-128224908D01*
X175374446Y-128229318D01*
X174782299Y-128735060D01*
X174777189Y-128739197D01*
X174159402Y-129213242D01*
X174154065Y-129217120D01*
X173512311Y-129658186D01*
X173506779Y-129661779D01*
X172842808Y-130068660D01*
X172837095Y-130071958D01*
X172152757Y-130443523D01*
X172146879Y-130446518D01*
X171444029Y-130781761D01*
X171438003Y-130784444D01*
X170718570Y-131082442D01*
X170712412Y-131084806D01*
X169978356Y-131344750D01*
X169972082Y-131346788D01*
X169230982Y-131566311D01*
X169195196Y-131571500D01*
X107664804Y-131571500D01*
X107629018Y-131566311D01*
X106887918Y-131346788D01*
X106881644Y-131344750D01*
X106147588Y-131084806D01*
X106141430Y-131082442D01*
X105421997Y-130784444D01*
X105415971Y-130781761D01*
X104713121Y-130446518D01*
X104707243Y-130443523D01*
X104022905Y-130071958D01*
X104017192Y-130068660D01*
X103353221Y-129661779D01*
X103347689Y-129658186D01*
X102705935Y-129217120D01*
X102700598Y-129213242D01*
X102082811Y-128739197D01*
X102077685Y-128735046D01*
X101485557Y-128229321D01*
X101480654Y-128224907D01*
X101346076Y-128097197D01*
X100915788Y-127688870D01*
X100911127Y-127684209D01*
X100865928Y-127636579D01*
X100375090Y-127119342D01*
X100370679Y-127114443D01*
X99864954Y-126522315D01*
X99860803Y-126517189D01*
X99386758Y-125899402D01*
X99382880Y-125894065D01*
X99170238Y-125584669D01*
X107512001Y-125584669D01*
X107512371Y-125591490D01*
X107517895Y-125642352D01*
X107521521Y-125657604D01*
X107566676Y-125778054D01*
X107575214Y-125793649D01*
X107651715Y-125895724D01*
X107664276Y-125908285D01*
X107766351Y-125984786D01*
X107781946Y-125993324D01*
X107902394Y-126038478D01*
X107917649Y-126042105D01*
X107968514Y-126047631D01*
X107975328Y-126048000D01*
X108701885Y-126048000D01*
X108717124Y-126043525D01*
X108718329Y-126042135D01*
X108720000Y-126034452D01*
X108720000Y-126029884D01*
X109720000Y-126029884D01*
X109724475Y-126045123D01*
X109725865Y-126046328D01*
X109733548Y-126047999D01*
X110464669Y-126047999D01*
X110471490Y-126047629D01*
X110522352Y-126042105D01*
X110537604Y-126038479D01*
X110658054Y-125993324D01*
X110673649Y-125984786D01*
X110775724Y-125908285D01*
X110788285Y-125895724D01*
X110864786Y-125793649D01*
X110873324Y-125778054D01*
X110918478Y-125657606D01*
X110922105Y-125642351D01*
X110927631Y-125591486D01*
X110928000Y-125584672D01*
X110928000Y-124858115D01*
X110923525Y-124842876D01*
X110922135Y-124841671D01*
X110914452Y-124840000D01*
X109738115Y-124840000D01*
X109722876Y-124844475D01*
X109721671Y-124845865D01*
X109720000Y-124853548D01*
X109720000Y-126029884D01*
X108720000Y-126029884D01*
X108720000Y-124858115D01*
X108715525Y-124842876D01*
X108714135Y-124841671D01*
X108706452Y-124840000D01*
X107530116Y-124840000D01*
X107514877Y-124844475D01*
X107513672Y-124845865D01*
X107512001Y-124853548D01*
X107512001Y-125584669D01*
X99170238Y-125584669D01*
X98941814Y-125252311D01*
X98938221Y-125246779D01*
X98531340Y-124582808D01*
X98528042Y-124577095D01*
X98156477Y-123892757D01*
X98153482Y-123886879D01*
X98122481Y-123821885D01*
X107512000Y-123821885D01*
X107516475Y-123837124D01*
X107517865Y-123838329D01*
X107525548Y-123840000D01*
X108701885Y-123840000D01*
X108717124Y-123835525D01*
X108718329Y-123834135D01*
X108720000Y-123826452D01*
X108720000Y-123821885D01*
X109720000Y-123821885D01*
X109724475Y-123837124D01*
X109725865Y-123838329D01*
X109733548Y-123840000D01*
X110909884Y-123840000D01*
X110925123Y-123835525D01*
X110926328Y-123834135D01*
X110927999Y-123826452D01*
X110927999Y-123095331D01*
X110927629Y-123088510D01*
X110922105Y-123037648D01*
X110918479Y-123022396D01*
X110873324Y-122901946D01*
X110864786Y-122886351D01*
X110788285Y-122784276D01*
X110775724Y-122771715D01*
X110673649Y-122695214D01*
X110658054Y-122686676D01*
X110537606Y-122641522D01*
X110522351Y-122637895D01*
X110471486Y-122632369D01*
X110464672Y-122632000D01*
X109738115Y-122632000D01*
X109722876Y-122636475D01*
X109721671Y-122637865D01*
X109720000Y-122645548D01*
X109720000Y-123821885D01*
X108720000Y-123821885D01*
X108720000Y-122650116D01*
X108715525Y-122634877D01*
X108714135Y-122633672D01*
X108706452Y-122632001D01*
X107975331Y-122632001D01*
X107968510Y-122632371D01*
X107917648Y-122637895D01*
X107902396Y-122641521D01*
X107781946Y-122686676D01*
X107766351Y-122695214D01*
X107664276Y-122771715D01*
X107651715Y-122784276D01*
X107575214Y-122886351D01*
X107566676Y-122901946D01*
X107521522Y-123022394D01*
X107517895Y-123037649D01*
X107512369Y-123088514D01*
X107512000Y-123095328D01*
X107512000Y-123821885D01*
X98122481Y-123821885D01*
X97818239Y-123184029D01*
X97815556Y-123178003D01*
X97517558Y-122458570D01*
X97515194Y-122452412D01*
X97255250Y-121718356D01*
X97253212Y-121712082D01*
X97033689Y-120970982D01*
X97028500Y-120935196D01*
X97028500Y-116795151D01*
X107507296Y-116795151D01*
X107519480Y-117048798D01*
X107520393Y-117053386D01*
X107554106Y-117222872D01*
X107569021Y-117297857D01*
X107570600Y-117302255D01*
X107570602Y-117302262D01*
X107653248Y-117532449D01*
X107654831Y-117536858D01*
X107775025Y-117760551D01*
X107777820Y-117764294D01*
X107777822Y-117764297D01*
X107924171Y-117960282D01*
X107924176Y-117960288D01*
X107926963Y-117964020D01*
X107930272Y-117967300D01*
X107930277Y-117967306D01*
X108028859Y-118065031D01*
X108107307Y-118142797D01*
X108111069Y-118145555D01*
X108111072Y-118145558D01*
X108308323Y-118290188D01*
X108312094Y-118292953D01*
X108316229Y-118295129D01*
X108316233Y-118295131D01*
X108434289Y-118357243D01*
X108536827Y-118411191D01*
X108776568Y-118494912D01*
X109026050Y-118542278D01*
X109146532Y-118547011D01*
X109275125Y-118552064D01*
X109275130Y-118552064D01*
X109279793Y-118552247D01*
X109378774Y-118541407D01*
X109527569Y-118525112D01*
X109527575Y-118525111D01*
X109532222Y-118524602D01*
X109641680Y-118495784D01*
X109773273Y-118461138D01*
X109777793Y-118459948D01*
X109995455Y-118366434D01*
X110006807Y-118361557D01*
X110006810Y-118361555D01*
X110011110Y-118359708D01*
X110015090Y-118357245D01*
X110015094Y-118357243D01*
X110223064Y-118228547D01*
X110223066Y-118228545D01*
X110227047Y-118226082D01*
X110328305Y-118140361D01*
X110417289Y-118065031D01*
X110417291Y-118065029D01*
X110420862Y-118062006D01*
X110588295Y-117871084D01*
X110725669Y-117657512D01*
X110829967Y-117425980D01*
X110885937Y-117227526D01*
X123917050Y-117227526D01*
X123929947Y-117496019D01*
X123982388Y-117759656D01*
X124073220Y-118012646D01*
X124075432Y-118016762D01*
X124075433Y-118016765D01*
X124139555Y-118136100D01*
X124200450Y-118249431D01*
X124203241Y-118253168D01*
X124203245Y-118253175D01*
X124284178Y-118361557D01*
X124361281Y-118464810D01*
X124364590Y-118468090D01*
X124364595Y-118468096D01*
X124548863Y-118650762D01*
X124552180Y-118654050D01*
X124555942Y-118656808D01*
X124555945Y-118656811D01*
X124668299Y-118739192D01*
X124768954Y-118812995D01*
X124773089Y-118815171D01*
X124773093Y-118815173D01*
X125002698Y-118935975D01*
X125006840Y-118938154D01*
X125260613Y-119026775D01*
X125265206Y-119027647D01*
X125520109Y-119076042D01*
X125520112Y-119076042D01*
X125524698Y-119076913D01*
X125652370Y-119081929D01*
X125788625Y-119087283D01*
X125788630Y-119087283D01*
X125793293Y-119087466D01*
X125897607Y-119076042D01*
X126055844Y-119058713D01*
X126055850Y-119058712D01*
X126060497Y-119058203D01*
X126065021Y-119057012D01*
X126315918Y-118990956D01*
X126315920Y-118990955D01*
X126320441Y-118989765D01*
X126324738Y-118987919D01*
X126563120Y-118885502D01*
X126563122Y-118885501D01*
X126567414Y-118883657D01*
X126686071Y-118810230D01*
X126792017Y-118744669D01*
X126792021Y-118744666D01*
X126795990Y-118742210D01*
X127001149Y-118568530D01*
X127178382Y-118366434D01*
X127182709Y-118359708D01*
X127321269Y-118144291D01*
X127323797Y-118140361D01*
X127434199Y-117895278D01*
X127472196Y-117760551D01*
X127505893Y-117641072D01*
X127505894Y-117641069D01*
X127507163Y-117636568D01*
X127525043Y-117496019D01*
X127540688Y-117373045D01*
X127540688Y-117373041D01*
X127541086Y-117369915D01*
X127543571Y-117275000D01*
X127540043Y-117227526D01*
X135347050Y-117227526D01*
X135359947Y-117496019D01*
X135412388Y-117759656D01*
X135503220Y-118012646D01*
X135505432Y-118016762D01*
X135505433Y-118016765D01*
X135569555Y-118136100D01*
X135630450Y-118249431D01*
X135633241Y-118253168D01*
X135633245Y-118253175D01*
X135714178Y-118361557D01*
X135791281Y-118464810D01*
X135794590Y-118468090D01*
X135794595Y-118468096D01*
X135978863Y-118650762D01*
X135982180Y-118654050D01*
X135985942Y-118656808D01*
X135985945Y-118656811D01*
X136098299Y-118739192D01*
X136198954Y-118812995D01*
X136203089Y-118815171D01*
X136203093Y-118815173D01*
X136432698Y-118935975D01*
X136436840Y-118938154D01*
X136690613Y-119026775D01*
X136695206Y-119027647D01*
X136950109Y-119076042D01*
X136950112Y-119076042D01*
X136954698Y-119076913D01*
X137082370Y-119081929D01*
X137218625Y-119087283D01*
X137218630Y-119087283D01*
X137223293Y-119087466D01*
X137327607Y-119076042D01*
X137485844Y-119058713D01*
X137485850Y-119058712D01*
X137490497Y-119058203D01*
X137495021Y-119057012D01*
X137745918Y-118990956D01*
X137745920Y-118990955D01*
X137750441Y-118989765D01*
X137754738Y-118987919D01*
X137993120Y-118885502D01*
X137993122Y-118885501D01*
X137997414Y-118883657D01*
X138116071Y-118810230D01*
X138222017Y-118744669D01*
X138222021Y-118744666D01*
X138225990Y-118742210D01*
X138431149Y-118568530D01*
X138608382Y-118366434D01*
X138612709Y-118359708D01*
X138751269Y-118144291D01*
X138753797Y-118140361D01*
X138864199Y-117895278D01*
X138902196Y-117760551D01*
X138935893Y-117641072D01*
X138935894Y-117641069D01*
X138937163Y-117636568D01*
X138955043Y-117496019D01*
X138970688Y-117373045D01*
X138970688Y-117373041D01*
X138971086Y-117369915D01*
X138973571Y-117275000D01*
X138970043Y-117227526D01*
X146777050Y-117227526D01*
X146789947Y-117496019D01*
X146842388Y-117759656D01*
X146933220Y-118012646D01*
X146935432Y-118016762D01*
X146935433Y-118016765D01*
X146999555Y-118136100D01*
X147060450Y-118249431D01*
X147063241Y-118253168D01*
X147063245Y-118253175D01*
X147144178Y-118361557D01*
X147221281Y-118464810D01*
X147224590Y-118468090D01*
X147224595Y-118468096D01*
X147408863Y-118650762D01*
X147412180Y-118654050D01*
X147415942Y-118656808D01*
X147415945Y-118656811D01*
X147528299Y-118739192D01*
X147628954Y-118812995D01*
X147633089Y-118815171D01*
X147633093Y-118815173D01*
X147862698Y-118935975D01*
X147866840Y-118938154D01*
X148120613Y-119026775D01*
X148125206Y-119027647D01*
X148380109Y-119076042D01*
X148380112Y-119076042D01*
X148384698Y-119076913D01*
X148512370Y-119081929D01*
X148648625Y-119087283D01*
X148648630Y-119087283D01*
X148653293Y-119087466D01*
X148757607Y-119076042D01*
X148915844Y-119058713D01*
X148915850Y-119058712D01*
X148920497Y-119058203D01*
X148925021Y-119057012D01*
X149175918Y-118990956D01*
X149175920Y-118990955D01*
X149180441Y-118989765D01*
X149184738Y-118987919D01*
X149423120Y-118885502D01*
X149423122Y-118885501D01*
X149427414Y-118883657D01*
X149546071Y-118810230D01*
X149652017Y-118744669D01*
X149652021Y-118744666D01*
X149655990Y-118742210D01*
X149861149Y-118568530D01*
X150038382Y-118366434D01*
X150042709Y-118359708D01*
X150181269Y-118144291D01*
X150183797Y-118140361D01*
X150294199Y-117895278D01*
X150332196Y-117760551D01*
X150365893Y-117641072D01*
X150365894Y-117641069D01*
X150367163Y-117636568D01*
X150385043Y-117496019D01*
X150400688Y-117373045D01*
X150400688Y-117373041D01*
X150401086Y-117369915D01*
X150403571Y-117275000D01*
X150383650Y-117006937D01*
X150372020Y-116955538D01*
X150325361Y-116749331D01*
X150325360Y-116749326D01*
X150324327Y-116744763D01*
X150226902Y-116494238D01*
X150093518Y-116260864D01*
X149927105Y-116049769D01*
X149731317Y-115865591D01*
X149510457Y-115712374D01*
X149506264Y-115710306D01*
X149273564Y-115595551D01*
X149273561Y-115595550D01*
X149269376Y-115593486D01*
X149221745Y-115578239D01*
X149167621Y-115560914D01*
X149013370Y-115511538D01*
X149008763Y-115510788D01*
X149008760Y-115510787D01*
X148752674Y-115469081D01*
X148752675Y-115469081D01*
X148748063Y-115468330D01*
X148617719Y-115466624D01*
X148483961Y-115464873D01*
X148483958Y-115464873D01*
X148479284Y-115464812D01*
X148212937Y-115501060D01*
X147954874Y-115576278D01*
X147710763Y-115688815D01*
X147706854Y-115691378D01*
X147489881Y-115833631D01*
X147489876Y-115833635D01*
X147485968Y-115836197D01*
X147285426Y-116015188D01*
X147113544Y-116221854D01*
X146974096Y-116451656D01*
X146972287Y-116455970D01*
X146972285Y-116455974D01*
X146917443Y-116586759D01*
X146870148Y-116699545D01*
X146803981Y-116960077D01*
X146777050Y-117227526D01*
X138970043Y-117227526D01*
X138953650Y-117006937D01*
X138942020Y-116955538D01*
X138895361Y-116749331D01*
X138895360Y-116749326D01*
X138894327Y-116744763D01*
X138796902Y-116494238D01*
X138663518Y-116260864D01*
X138497105Y-116049769D01*
X138301317Y-115865591D01*
X138080457Y-115712374D01*
X138076264Y-115710306D01*
X137843564Y-115595551D01*
X137843561Y-115595550D01*
X137839376Y-115593486D01*
X137791745Y-115578239D01*
X137737621Y-115560914D01*
X137583370Y-115511538D01*
X137578763Y-115510788D01*
X137578760Y-115510787D01*
X137322674Y-115469081D01*
X137322675Y-115469081D01*
X137318063Y-115468330D01*
X137187719Y-115466624D01*
X137053961Y-115464873D01*
X137053958Y-115464873D01*
X137049284Y-115464812D01*
X136782937Y-115501060D01*
X136524874Y-115576278D01*
X136280763Y-115688815D01*
X136276854Y-115691378D01*
X136059881Y-115833631D01*
X136059876Y-115833635D01*
X136055968Y-115836197D01*
X135855426Y-116015188D01*
X135683544Y-116221854D01*
X135544096Y-116451656D01*
X135542287Y-116455970D01*
X135542285Y-116455974D01*
X135487443Y-116586759D01*
X135440148Y-116699545D01*
X135373981Y-116960077D01*
X135347050Y-117227526D01*
X127540043Y-117227526D01*
X127523650Y-117006937D01*
X127512020Y-116955538D01*
X127465361Y-116749331D01*
X127465360Y-116749326D01*
X127464327Y-116744763D01*
X127366902Y-116494238D01*
X127233518Y-116260864D01*
X127067105Y-116049769D01*
X126871317Y-115865591D01*
X126650457Y-115712374D01*
X126646264Y-115710306D01*
X126413564Y-115595551D01*
X126413561Y-115595550D01*
X126409376Y-115593486D01*
X126361745Y-115578239D01*
X126307621Y-115560914D01*
X126153370Y-115511538D01*
X126148763Y-115510788D01*
X126148760Y-115510787D01*
X125892674Y-115469081D01*
X125892675Y-115469081D01*
X125888063Y-115468330D01*
X125757719Y-115466624D01*
X125623961Y-115464873D01*
X125623958Y-115464873D01*
X125619284Y-115464812D01*
X125352937Y-115501060D01*
X125094874Y-115576278D01*
X124850763Y-115688815D01*
X124846854Y-115691378D01*
X124629881Y-115833631D01*
X124629876Y-115833635D01*
X124625968Y-115836197D01*
X124425426Y-116015188D01*
X124253544Y-116221854D01*
X124114096Y-116451656D01*
X124112287Y-116455970D01*
X124112285Y-116455974D01*
X124057443Y-116586759D01*
X124010148Y-116699545D01*
X123943981Y-116960077D01*
X123917050Y-117227526D01*
X110885937Y-117227526D01*
X110898896Y-117181575D01*
X110926482Y-116964735D01*
X110930545Y-116932798D01*
X110930545Y-116932792D01*
X110930943Y-116929667D01*
X110933291Y-116840000D01*
X110923190Y-116704077D01*
X110914818Y-116591411D01*
X110914817Y-116591407D01*
X110914472Y-116586759D01*
X110893537Y-116494238D01*
X110859459Y-116343639D01*
X110858428Y-116339082D01*
X110826584Y-116257195D01*
X110768084Y-116106762D01*
X110768083Y-116106760D01*
X110766391Y-116102409D01*
X110745866Y-116066498D01*
X110642702Y-115885997D01*
X110642700Y-115885995D01*
X110640383Y-115881940D01*
X110483171Y-115682517D01*
X110370235Y-115576278D01*
X110301610Y-115511722D01*
X110301608Y-115511720D01*
X110298209Y-115508523D01*
X110254483Y-115478189D01*
X110093393Y-115366437D01*
X110093390Y-115366435D01*
X110089561Y-115363779D01*
X110085384Y-115361719D01*
X110085377Y-115361715D01*
X109865996Y-115253528D01*
X109865992Y-115253527D01*
X109861810Y-115251464D01*
X109619960Y-115174047D01*
X109615355Y-115173297D01*
X109373935Y-115133980D01*
X109373934Y-115133980D01*
X109369323Y-115133229D01*
X109242364Y-115131567D01*
X109120083Y-115129966D01*
X109120080Y-115129966D01*
X109115406Y-115129905D01*
X108863787Y-115164149D01*
X108619993Y-115235208D01*
X108389380Y-115341522D01*
X108385471Y-115344085D01*
X108180928Y-115478189D01*
X108180923Y-115478193D01*
X108177015Y-115480755D01*
X107987562Y-115649848D01*
X107825183Y-115845087D01*
X107693447Y-116062182D01*
X107691638Y-116066496D01*
X107691637Y-116066498D01*
X107610133Y-116260864D01*
X107595246Y-116296365D01*
X107532738Y-116542490D01*
X107507296Y-116795151D01*
X97028500Y-116795151D01*
X97028500Y-111541402D01*
X133159000Y-111541402D01*
X133159212Y-111543975D01*
X133159212Y-111543986D01*
X133166146Y-111628318D01*
X133173678Y-111719937D01*
X133194763Y-111803877D01*
X133228025Y-111936297D01*
X133232206Y-111952944D01*
X133279303Y-112061261D01*
X133319351Y-112153364D01*
X133328003Y-112173263D01*
X133412885Y-112304470D01*
X133452755Y-112366099D01*
X133458498Y-112374977D01*
X133620186Y-112552670D01*
X133672974Y-112594359D01*
X133804670Y-112698367D01*
X133804675Y-112698370D01*
X133808724Y-112701568D01*
X133813240Y-112704061D01*
X133813243Y-112704063D01*
X134014526Y-112815177D01*
X134014530Y-112815179D01*
X134019050Y-112817674D01*
X134023919Y-112819398D01*
X134023923Y-112819400D01*
X134240640Y-112896144D01*
X134240644Y-112896145D01*
X134245515Y-112897870D01*
X134250608Y-112898777D01*
X134250611Y-112898778D01*
X134476948Y-112939095D01*
X134476954Y-112939096D01*
X134482037Y-112940001D01*
X134563804Y-112941000D01*
X134717093Y-112942873D01*
X134717095Y-112942873D01*
X134722263Y-112942936D01*
X134959744Y-112906596D01*
X135071997Y-112869906D01*
X135183183Y-112833566D01*
X135183189Y-112833563D01*
X135188101Y-112831958D01*
X135192687Y-112829571D01*
X135192691Y-112829569D01*
X135396607Y-112723416D01*
X135401200Y-112721025D01*
X135593320Y-112576777D01*
X135759301Y-112403088D01*
X135784535Y-112366097D01*
X135839444Y-112321096D01*
X135909968Y-112312925D01*
X135973716Y-112344179D01*
X135994411Y-112368660D01*
X135998498Y-112374977D01*
X136160186Y-112552670D01*
X136212974Y-112594359D01*
X136344670Y-112698367D01*
X136344675Y-112698370D01*
X136348724Y-112701568D01*
X136353240Y-112704061D01*
X136353243Y-112704063D01*
X136554526Y-112815177D01*
X136554530Y-112815179D01*
X136559050Y-112817674D01*
X136563919Y-112819398D01*
X136563923Y-112819400D01*
X136780640Y-112896144D01*
X136780644Y-112896145D01*
X136785515Y-112897870D01*
X136790608Y-112898777D01*
X136790611Y-112898778D01*
X137016948Y-112939095D01*
X137016954Y-112939096D01*
X137022037Y-112940001D01*
X137103804Y-112941000D01*
X137257093Y-112942873D01*
X137257095Y-112942873D01*
X137262263Y-112942936D01*
X137499744Y-112906596D01*
X137611997Y-112869906D01*
X137723183Y-112833566D01*
X137723189Y-112833563D01*
X137728101Y-112831958D01*
X137732687Y-112829571D01*
X137732691Y-112829569D01*
X137936607Y-112723416D01*
X137941200Y-112721025D01*
X138096700Y-112604272D01*
X138163182Y-112579367D01*
X138232578Y-112594359D01*
X138282852Y-112644489D01*
X138290333Y-112660803D01*
X138294176Y-112671054D01*
X138302714Y-112686649D01*
X138379215Y-112788724D01*
X138391776Y-112801285D01*
X138493851Y-112877786D01*
X138509446Y-112886324D01*
X138629894Y-112931478D01*
X138645149Y-112935105D01*
X138696014Y-112940631D01*
X138702828Y-112941000D01*
X139181885Y-112941000D01*
X139197124Y-112936525D01*
X139198329Y-112935135D01*
X139200000Y-112927452D01*
X139200000Y-112922884D01*
X140200000Y-112922884D01*
X140204475Y-112938123D01*
X140205865Y-112939328D01*
X140213548Y-112940999D01*
X140697169Y-112940999D01*
X140703990Y-112940629D01*
X140754852Y-112935105D01*
X140770104Y-112931479D01*
X140890554Y-112886324D01*
X140906149Y-112877786D01*
X141008224Y-112801285D01*
X141020785Y-112788724D01*
X141097286Y-112686649D01*
X141105824Y-112671054D01*
X141150978Y-112550606D01*
X141154605Y-112535351D01*
X141160131Y-112484486D01*
X141160500Y-112477672D01*
X141160500Y-112006692D01*
X155079034Y-112006692D01*
X155082776Y-112011691D01*
X155120940Y-112029487D01*
X155131244Y-112033237D01*
X155341688Y-112089625D01*
X155352481Y-112091528D01*
X155569525Y-112110517D01*
X155580475Y-112110517D01*
X155797519Y-112091528D01*
X155808312Y-112089625D01*
X156018756Y-112033237D01*
X156029060Y-112029487D01*
X156060599Y-112014780D01*
X156071184Y-112005461D01*
X156069377Y-111999483D01*
X155587808Y-111517915D01*
X155573870Y-111510304D01*
X155572034Y-111510436D01*
X155565422Y-111514685D01*
X155085793Y-111994313D01*
X155079034Y-112006692D01*
X141160500Y-112006692D01*
X141160500Y-111951115D01*
X141156025Y-111935876D01*
X141154635Y-111934671D01*
X141146952Y-111933000D01*
X140218115Y-111933000D01*
X140202876Y-111937475D01*
X140201671Y-111938865D01*
X140200000Y-111946548D01*
X140200000Y-112922884D01*
X139200000Y-112922884D01*
X139200000Y-110914885D01*
X140200000Y-110914885D01*
X140204475Y-110930124D01*
X140205865Y-110931329D01*
X140213548Y-110933000D01*
X141142384Y-110933000D01*
X141157623Y-110928525D01*
X141158828Y-110927135D01*
X141160499Y-110919452D01*
X141160499Y-110803475D01*
X154262483Y-110803475D01*
X154281472Y-111020519D01*
X154283375Y-111031312D01*
X154339763Y-111241756D01*
X154343513Y-111252060D01*
X154358220Y-111283599D01*
X154367539Y-111294184D01*
X154373517Y-111292377D01*
X154855085Y-110810808D01*
X154861462Y-110799130D01*
X156287304Y-110799130D01*
X156287436Y-110800966D01*
X156291685Y-110807578D01*
X156771313Y-111287207D01*
X156783692Y-111293966D01*
X156788691Y-111290224D01*
X156806487Y-111252060D01*
X156810237Y-111241756D01*
X156866625Y-111031312D01*
X156868528Y-111020519D01*
X156887517Y-110803475D01*
X156887517Y-110798000D01*
X164421502Y-110798000D01*
X164441457Y-111026087D01*
X164442881Y-111031400D01*
X164442881Y-111031402D01*
X164494871Y-111225428D01*
X164500716Y-111247243D01*
X164503039Y-111252224D01*
X164503039Y-111252225D01*
X164595151Y-111449762D01*
X164595154Y-111449767D01*
X164597477Y-111454749D01*
X164658152Y-111541402D01*
X164719012Y-111628318D01*
X164728802Y-111642300D01*
X164890700Y-111804198D01*
X164895208Y-111807355D01*
X164895211Y-111807357D01*
X164973389Y-111862098D01*
X165078251Y-111935523D01*
X165083233Y-111937846D01*
X165083238Y-111937849D01*
X165280775Y-112029961D01*
X165285757Y-112032284D01*
X165291065Y-112033706D01*
X165291067Y-112033707D01*
X165501598Y-112090119D01*
X165501600Y-112090119D01*
X165506913Y-112091543D01*
X165735000Y-112111498D01*
X165963087Y-112091543D01*
X165968400Y-112090119D01*
X165968402Y-112090119D01*
X166178933Y-112033707D01*
X166178935Y-112033706D01*
X166184243Y-112032284D01*
X166189225Y-112029961D01*
X166386762Y-111937849D01*
X166386767Y-111937846D01*
X166391749Y-111935523D01*
X166496611Y-111862098D01*
X166574789Y-111807357D01*
X166574792Y-111807355D01*
X166579300Y-111804198D01*
X166741198Y-111642300D01*
X166750989Y-111628318D01*
X166811848Y-111541402D01*
X166872523Y-111454749D01*
X166874846Y-111449767D01*
X166874849Y-111449762D01*
X166966961Y-111252225D01*
X166966961Y-111252224D01*
X166969284Y-111247243D01*
X166975130Y-111225428D01*
X167027119Y-111031402D01*
X167027119Y-111031400D01*
X167028543Y-111026087D01*
X167048498Y-110798000D01*
X167045477Y-110763469D01*
X167497095Y-110763469D01*
X167497392Y-110768622D01*
X167497392Y-110768625D01*
X167506612Y-110928525D01*
X167510427Y-110994697D01*
X167511564Y-110999743D01*
X167511565Y-110999749D01*
X167537749Y-111115935D01*
X167561346Y-111220642D01*
X167563288Y-111225424D01*
X167563289Y-111225428D01*
X167591208Y-111294184D01*
X167648484Y-111435237D01*
X167769501Y-111632719D01*
X167921147Y-111807784D01*
X168099349Y-111955730D01*
X168299322Y-112072584D01*
X168515694Y-112155209D01*
X168520760Y-112156240D01*
X168520761Y-112156240D01*
X168573846Y-112167040D01*
X168742656Y-112201385D01*
X168872089Y-112206131D01*
X168968949Y-112209683D01*
X168968953Y-112209683D01*
X168974113Y-112209872D01*
X168979233Y-112209216D01*
X168979235Y-112209216D01*
X169053166Y-112199745D01*
X169203847Y-112180442D01*
X169208795Y-112178957D01*
X169208802Y-112178956D01*
X169420747Y-112115369D01*
X169425690Y-112113886D01*
X169430565Y-112111498D01*
X169629049Y-112014262D01*
X169629052Y-112014260D01*
X169633684Y-112011991D01*
X169822243Y-111877494D01*
X169867309Y-111832585D01*
X169929681Y-111798669D01*
X170000487Y-111803857D01*
X170057249Y-111846503D01*
X170074231Y-111877607D01*
X170099385Y-111944705D01*
X170186739Y-112061261D01*
X170303295Y-112148615D01*
X170439684Y-112199745D01*
X170501866Y-112206500D01*
X172398134Y-112206500D01*
X172460316Y-112199745D01*
X172596705Y-112148615D01*
X172713261Y-112061261D01*
X172800615Y-111944705D01*
X172851745Y-111808316D01*
X172858500Y-111746134D01*
X172858500Y-109849866D01*
X172851745Y-109787684D01*
X172800615Y-109651295D01*
X172713261Y-109534739D01*
X172596705Y-109447385D01*
X172460316Y-109396255D01*
X172398134Y-109389500D01*
X170501866Y-109389500D01*
X170439684Y-109396255D01*
X170303295Y-109447385D01*
X170186739Y-109534739D01*
X170099385Y-109651295D01*
X170096233Y-109659703D01*
X170096232Y-109659705D01*
X170075538Y-109714906D01*
X170032897Y-109771671D01*
X169966335Y-109796371D01*
X169896986Y-109781164D01*
X169874167Y-109764666D01*
X169873887Y-109764358D01*
X169746348Y-109663634D01*
X169696177Y-109624011D01*
X169696172Y-109624008D01*
X169692123Y-109620810D01*
X169687607Y-109618317D01*
X169687604Y-109618315D01*
X169493879Y-109511373D01*
X169493875Y-109511371D01*
X169489355Y-109508876D01*
X169484486Y-109507152D01*
X169484482Y-109507150D01*
X169275903Y-109433288D01*
X169275899Y-109433287D01*
X169271028Y-109431562D01*
X169265935Y-109430655D01*
X169265932Y-109430654D01*
X169048095Y-109391851D01*
X169048089Y-109391850D01*
X169043006Y-109390945D01*
X168970096Y-109390054D01*
X168816581Y-109388179D01*
X168816579Y-109388179D01*
X168811411Y-109388116D01*
X168582464Y-109423150D01*
X168362314Y-109495106D01*
X168357726Y-109497494D01*
X168357722Y-109497496D01*
X168161461Y-109599663D01*
X168156872Y-109602052D01*
X168152739Y-109605155D01*
X168152736Y-109605157D01*
X167975790Y-109738012D01*
X167971655Y-109741117D01*
X167811639Y-109908564D01*
X167808725Y-109912836D01*
X167808724Y-109912837D01*
X167797374Y-109929475D01*
X167681119Y-110099899D01*
X167583602Y-110309981D01*
X167521707Y-110533169D01*
X167497095Y-110763469D01*
X167045477Y-110763469D01*
X167028543Y-110569913D01*
X167020073Y-110538301D01*
X166970707Y-110354067D01*
X166970706Y-110354065D01*
X166969284Y-110348757D01*
X166941523Y-110289223D01*
X166874849Y-110146238D01*
X166874846Y-110146233D01*
X166872523Y-110141251D01*
X166751302Y-109968130D01*
X166744357Y-109958211D01*
X166744355Y-109958208D01*
X166741198Y-109953700D01*
X166579300Y-109791802D01*
X166574792Y-109788645D01*
X166574789Y-109788643D01*
X166469481Y-109714906D01*
X166391749Y-109660477D01*
X166386767Y-109658154D01*
X166386762Y-109658151D01*
X166189225Y-109566039D01*
X166189224Y-109566039D01*
X166184243Y-109563716D01*
X166178935Y-109562294D01*
X166178933Y-109562293D01*
X165968402Y-109505881D01*
X165968400Y-109505881D01*
X165963087Y-109504457D01*
X165735000Y-109484502D01*
X165506913Y-109504457D01*
X165501600Y-109505881D01*
X165501598Y-109505881D01*
X165291067Y-109562293D01*
X165291065Y-109562294D01*
X165285757Y-109563716D01*
X165280776Y-109566039D01*
X165280775Y-109566039D01*
X165083238Y-109658151D01*
X165083233Y-109658154D01*
X165078251Y-109660477D01*
X165000519Y-109714906D01*
X164895211Y-109788643D01*
X164895208Y-109788645D01*
X164890700Y-109791802D01*
X164728802Y-109953700D01*
X164725645Y-109958208D01*
X164725643Y-109958211D01*
X164718698Y-109968130D01*
X164597477Y-110141251D01*
X164595154Y-110146233D01*
X164595151Y-110146238D01*
X164528477Y-110289223D01*
X164500716Y-110348757D01*
X164499294Y-110354065D01*
X164499293Y-110354067D01*
X164449927Y-110538301D01*
X164441457Y-110569913D01*
X164421502Y-110798000D01*
X156887517Y-110798000D01*
X156887517Y-110792525D01*
X156868528Y-110575481D01*
X156866625Y-110564688D01*
X156810237Y-110354244D01*
X156806487Y-110343940D01*
X156791780Y-110312401D01*
X156782461Y-110301816D01*
X156776483Y-110303623D01*
X156294915Y-110785192D01*
X156287304Y-110799130D01*
X154861462Y-110799130D01*
X154862696Y-110796870D01*
X154862564Y-110795034D01*
X154858315Y-110788422D01*
X154378687Y-110308793D01*
X154366308Y-110302034D01*
X154361309Y-110305776D01*
X154343513Y-110343940D01*
X154339763Y-110354244D01*
X154283375Y-110564688D01*
X154281472Y-110575481D01*
X154262483Y-110792525D01*
X154262483Y-110803475D01*
X141160499Y-110803475D01*
X141160499Y-110388331D01*
X141160129Y-110381510D01*
X141154605Y-110330648D01*
X141150979Y-110315396D01*
X141105824Y-110194946D01*
X141097286Y-110179351D01*
X141020785Y-110077276D01*
X141008224Y-110064715D01*
X140906149Y-109988214D01*
X140890554Y-109979676D01*
X140770106Y-109934522D01*
X140754851Y-109930895D01*
X140703986Y-109925369D01*
X140697172Y-109925000D01*
X140218115Y-109925000D01*
X140202876Y-109929475D01*
X140201671Y-109930865D01*
X140200000Y-109938548D01*
X140200000Y-110914885D01*
X139200000Y-110914885D01*
X139200000Y-109943116D01*
X139195525Y-109927877D01*
X139194135Y-109926672D01*
X139186452Y-109925001D01*
X138702831Y-109925001D01*
X138696010Y-109925371D01*
X138645148Y-109930895D01*
X138629896Y-109934521D01*
X138509446Y-109979676D01*
X138493851Y-109988214D01*
X138391776Y-110064715D01*
X138379215Y-110077276D01*
X138302714Y-110179351D01*
X138294176Y-110194945D01*
X138289840Y-110206513D01*
X138247199Y-110263279D01*
X138180638Y-110287980D01*
X138111289Y-110272774D01*
X138093765Y-110261168D01*
X137975330Y-110167633D01*
X137975325Y-110167630D01*
X137971276Y-110164432D01*
X137966760Y-110161939D01*
X137966757Y-110161937D01*
X137765474Y-110050823D01*
X137765470Y-110050821D01*
X137760950Y-110048326D01*
X137756081Y-110046602D01*
X137756077Y-110046600D01*
X137539360Y-109969856D01*
X137539356Y-109969855D01*
X137534485Y-109968130D01*
X137529392Y-109967223D01*
X137529389Y-109967222D01*
X137303052Y-109926905D01*
X137303046Y-109926904D01*
X137297963Y-109925999D01*
X137210600Y-109924932D01*
X137062907Y-109923127D01*
X137062905Y-109923127D01*
X137057737Y-109923064D01*
X136820256Y-109959404D01*
X136732111Y-109988214D01*
X136596817Y-110032434D01*
X136596811Y-110032437D01*
X136591899Y-110034042D01*
X136587313Y-110036429D01*
X136587309Y-110036431D01*
X136456384Y-110104587D01*
X136378800Y-110144975D01*
X136374657Y-110148085D01*
X136374658Y-110148085D01*
X136224046Y-110261168D01*
X136186680Y-110289223D01*
X136166843Y-110309981D01*
X136098489Y-110381510D01*
X136020699Y-110462912D01*
X135995465Y-110499903D01*
X135940556Y-110544904D01*
X135870032Y-110553075D01*
X135806284Y-110521821D01*
X135785589Y-110497340D01*
X135784311Y-110495365D01*
X135781502Y-110491023D01*
X135619814Y-110313330D01*
X135469914Y-110194946D01*
X135435330Y-110167633D01*
X135435325Y-110167630D01*
X135431276Y-110164432D01*
X135426760Y-110161939D01*
X135426757Y-110161937D01*
X135225474Y-110050823D01*
X135225470Y-110050821D01*
X135220950Y-110048326D01*
X135216081Y-110046602D01*
X135216077Y-110046600D01*
X134999360Y-109969856D01*
X134999356Y-109969855D01*
X134994485Y-109968130D01*
X134989392Y-109967223D01*
X134989389Y-109967222D01*
X134763052Y-109926905D01*
X134763046Y-109926904D01*
X134757963Y-109925999D01*
X134670600Y-109924932D01*
X134522907Y-109923127D01*
X134522905Y-109923127D01*
X134517737Y-109923064D01*
X134280256Y-109959404D01*
X134192111Y-109988214D01*
X134056817Y-110032434D01*
X134056811Y-110032437D01*
X134051899Y-110034042D01*
X134047313Y-110036429D01*
X134047309Y-110036431D01*
X133916384Y-110104587D01*
X133838800Y-110144975D01*
X133834657Y-110148085D01*
X133834658Y-110148085D01*
X133684046Y-110261168D01*
X133646680Y-110289223D01*
X133480699Y-110462912D01*
X133477785Y-110467184D01*
X133348597Y-110656566D01*
X133345314Y-110661378D01*
X133343140Y-110666061D01*
X133343138Y-110666065D01*
X133279355Y-110803475D01*
X133244163Y-110879290D01*
X133179960Y-111110798D01*
X133179411Y-111115935D01*
X133161108Y-111287207D01*
X133159000Y-111306928D01*
X133159000Y-111541402D01*
X97028500Y-111541402D01*
X97028500Y-111007669D01*
X128232001Y-111007669D01*
X128232371Y-111014490D01*
X128237895Y-111065352D01*
X128241521Y-111080604D01*
X128286676Y-111201054D01*
X128295214Y-111216649D01*
X128371715Y-111318724D01*
X128384276Y-111331285D01*
X128486351Y-111407786D01*
X128501946Y-111416324D01*
X128622394Y-111461478D01*
X128637649Y-111465105D01*
X128688514Y-111470631D01*
X128695328Y-111471000D01*
X129021885Y-111471000D01*
X129037124Y-111466525D01*
X129038329Y-111465135D01*
X129040000Y-111457452D01*
X129040000Y-111452884D01*
X130040000Y-111452884D01*
X130044475Y-111468123D01*
X130045865Y-111469328D01*
X130053548Y-111470999D01*
X130384669Y-111470999D01*
X130391490Y-111470629D01*
X130442352Y-111465105D01*
X130457604Y-111461479D01*
X130578054Y-111416324D01*
X130593649Y-111407786D01*
X130695724Y-111331285D01*
X130708285Y-111318724D01*
X130784786Y-111216649D01*
X130793324Y-111201054D01*
X130838478Y-111080606D01*
X130842105Y-111065351D01*
X130847631Y-111014486D01*
X130848000Y-111007672D01*
X130848000Y-110681115D01*
X130843525Y-110665876D01*
X130842135Y-110664671D01*
X130834452Y-110663000D01*
X130058115Y-110663000D01*
X130042876Y-110667475D01*
X130041671Y-110668865D01*
X130040000Y-110676548D01*
X130040000Y-111452884D01*
X129040000Y-111452884D01*
X129040000Y-110681115D01*
X129035525Y-110665876D01*
X129034135Y-110664671D01*
X129026452Y-110663000D01*
X128250116Y-110663000D01*
X128234877Y-110667475D01*
X128233672Y-110668865D01*
X128232001Y-110676548D01*
X128232001Y-111007669D01*
X97028500Y-111007669D01*
X97028500Y-109644885D01*
X128232000Y-109644885D01*
X128236475Y-109660124D01*
X128237865Y-109661329D01*
X128245548Y-109663000D01*
X129021885Y-109663000D01*
X129037124Y-109658525D01*
X129038329Y-109657135D01*
X129040000Y-109649452D01*
X129040000Y-109644885D01*
X130040000Y-109644885D01*
X130044475Y-109660124D01*
X130045865Y-109661329D01*
X130053548Y-109663000D01*
X130829884Y-109663000D01*
X130845123Y-109658525D01*
X130846328Y-109657135D01*
X130847999Y-109649452D01*
X130847999Y-109590539D01*
X155078816Y-109590539D01*
X155080623Y-109596517D01*
X155562192Y-110078085D01*
X155576130Y-110085696D01*
X155577966Y-110085564D01*
X155584578Y-110081315D01*
X156064207Y-109601687D01*
X156070966Y-109589308D01*
X156067224Y-109584309D01*
X156029060Y-109566513D01*
X156018756Y-109562763D01*
X155808312Y-109506375D01*
X155797519Y-109504472D01*
X155580475Y-109485483D01*
X155569525Y-109485483D01*
X155352481Y-109504472D01*
X155341688Y-109506375D01*
X155131244Y-109562763D01*
X155120940Y-109566513D01*
X155089401Y-109581220D01*
X155078816Y-109590539D01*
X130847999Y-109590539D01*
X130847999Y-109318331D01*
X130847629Y-109311510D01*
X130842105Y-109260648D01*
X130838479Y-109245396D01*
X130793324Y-109124946D01*
X130784786Y-109109351D01*
X130708285Y-109007276D01*
X130695724Y-108994715D01*
X130593649Y-108918214D01*
X130578054Y-108909676D01*
X130457606Y-108864522D01*
X130442351Y-108860895D01*
X130391486Y-108855369D01*
X130384672Y-108855000D01*
X130058115Y-108855000D01*
X130042876Y-108859475D01*
X130041671Y-108860865D01*
X130040000Y-108868548D01*
X130040000Y-109644885D01*
X129040000Y-109644885D01*
X129040000Y-108873116D01*
X129035525Y-108857877D01*
X129034135Y-108856672D01*
X129026452Y-108855001D01*
X128695331Y-108855001D01*
X128688510Y-108855371D01*
X128637648Y-108860895D01*
X128622396Y-108864521D01*
X128501946Y-108909676D01*
X128486351Y-108918214D01*
X128384276Y-108994715D01*
X128371715Y-109007276D01*
X128295214Y-109109351D01*
X128286676Y-109124946D01*
X128241522Y-109245394D01*
X128237895Y-109260649D01*
X128232369Y-109311514D01*
X128232000Y-109318328D01*
X128232000Y-109644885D01*
X97028500Y-109644885D01*
X97028500Y-106627869D01*
X107456689Y-106627869D01*
X107473238Y-106914883D01*
X107474063Y-106919088D01*
X107474064Y-106919096D01*
X107506010Y-107081921D01*
X107528586Y-107196995D01*
X107529973Y-107201045D01*
X107529974Y-107201050D01*
X107620321Y-107464930D01*
X107621710Y-107468986D01*
X107750885Y-107725822D01*
X107913721Y-107962750D01*
X108107206Y-108175388D01*
X108110501Y-108178143D01*
X108110502Y-108178144D01*
X108161258Y-108220582D01*
X108327759Y-108359798D01*
X108571298Y-108512571D01*
X108833318Y-108630877D01*
X108837437Y-108632097D01*
X109104857Y-108711311D01*
X109104862Y-108711312D01*
X109108970Y-108712529D01*
X109113204Y-108713177D01*
X109113209Y-108713178D01*
X109361811Y-108751219D01*
X109393153Y-108756015D01*
X109539485Y-108758314D01*
X109676317Y-108760464D01*
X109676323Y-108760464D01*
X109680608Y-108760531D01*
X109684860Y-108760016D01*
X109684868Y-108760016D01*
X109961756Y-108726508D01*
X109961761Y-108726507D01*
X109966017Y-108725992D01*
X110244097Y-108653039D01*
X110509704Y-108543021D01*
X110757922Y-108397974D01*
X110984159Y-108220582D01*
X111025285Y-108178144D01*
X111181244Y-108017206D01*
X111184227Y-108014128D01*
X111186760Y-108010680D01*
X111186764Y-108010675D01*
X111351887Y-107785886D01*
X111354425Y-107782431D01*
X111491604Y-107529779D01*
X111593225Y-107260848D01*
X111657407Y-106980613D01*
X111682963Y-106694260D01*
X111683427Y-106650000D01*
X111664817Y-106377022D01*
X111664165Y-106367452D01*
X111664164Y-106367446D01*
X111663873Y-106363175D01*
X111659336Y-106341264D01*
X111649070Y-106291692D01*
X131604034Y-106291692D01*
X131607776Y-106296691D01*
X131645940Y-106314487D01*
X131656244Y-106318237D01*
X131866688Y-106374625D01*
X131877481Y-106376528D01*
X132094525Y-106395517D01*
X132105475Y-106395517D01*
X132322519Y-106376528D01*
X132333312Y-106374625D01*
X132543756Y-106318237D01*
X132554060Y-106314487D01*
X132585599Y-106299780D01*
X132596184Y-106290461D01*
X132594377Y-106284483D01*
X132112808Y-105802915D01*
X132098870Y-105795304D01*
X132097034Y-105795436D01*
X132090422Y-105799685D01*
X131610793Y-106279313D01*
X131604034Y-106291692D01*
X111649070Y-106291692D01*
X111619955Y-106151104D01*
X111605574Y-106081658D01*
X111509607Y-105810657D01*
X111384672Y-105568599D01*
X111379715Y-105558995D01*
X111379715Y-105558994D01*
X111377750Y-105555188D01*
X111367099Y-105540032D01*
X111287572Y-105426878D01*
X111212441Y-105319977D01*
X111078042Y-105175347D01*
X111019661Y-105112521D01*
X111019658Y-105112519D01*
X111016740Y-105109378D01*
X110991201Y-105088475D01*
X130787483Y-105088475D01*
X130806472Y-105305519D01*
X130808375Y-105316312D01*
X130864763Y-105526756D01*
X130868513Y-105537060D01*
X130883220Y-105568599D01*
X130892539Y-105579184D01*
X130898517Y-105577377D01*
X131380085Y-105095808D01*
X131386462Y-105084130D01*
X132812304Y-105084130D01*
X132812436Y-105085966D01*
X132816685Y-105092578D01*
X133296313Y-105572207D01*
X133320272Y-105585290D01*
X133368246Y-105595726D01*
X133418448Y-105645928D01*
X133422054Y-105653061D01*
X133462477Y-105739749D01*
X133514957Y-105814698D01*
X133583778Y-105912984D01*
X133593802Y-105927300D01*
X133755700Y-106089198D01*
X133760208Y-106092355D01*
X133760211Y-106092357D01*
X133838389Y-106147098D01*
X133943251Y-106220523D01*
X133948233Y-106222846D01*
X133948238Y-106222849D01*
X134145775Y-106314961D01*
X134150757Y-106317284D01*
X134156065Y-106318706D01*
X134156067Y-106318707D01*
X134366598Y-106375119D01*
X134366600Y-106375119D01*
X134371913Y-106376543D01*
X134600000Y-106396498D01*
X134828087Y-106376543D01*
X134833400Y-106375119D01*
X134833402Y-106375119D01*
X135043933Y-106318707D01*
X135043935Y-106318706D01*
X135049243Y-106317284D01*
X135054225Y-106314961D01*
X135251762Y-106222849D01*
X135251767Y-106222846D01*
X135256749Y-106220523D01*
X135361611Y-106147098D01*
X135439789Y-106092357D01*
X135439792Y-106092355D01*
X135444300Y-106089198D01*
X135606198Y-105927300D01*
X135616223Y-105912984D01*
X135685043Y-105814698D01*
X135737523Y-105739749D01*
X135739846Y-105734767D01*
X135739849Y-105734762D01*
X135805805Y-105593317D01*
X135852722Y-105540032D01*
X135920999Y-105520571D01*
X135988959Y-105541113D01*
X136034195Y-105593317D01*
X136100151Y-105734762D01*
X136100154Y-105734767D01*
X136102477Y-105739749D01*
X136154957Y-105814698D01*
X136223778Y-105912984D01*
X136233802Y-105927300D01*
X136395700Y-106089198D01*
X136400208Y-106092355D01*
X136400211Y-106092357D01*
X136478389Y-106147098D01*
X136583251Y-106220523D01*
X136588233Y-106222846D01*
X136588238Y-106222849D01*
X136785775Y-106314961D01*
X136790757Y-106317284D01*
X136796065Y-106318706D01*
X136796067Y-106318707D01*
X137006598Y-106375119D01*
X137006600Y-106375119D01*
X137011913Y-106376543D01*
X137240000Y-106396498D01*
X137468087Y-106376543D01*
X137473400Y-106375119D01*
X137473402Y-106375119D01*
X137683933Y-106318707D01*
X137683935Y-106318706D01*
X137689243Y-106317284D01*
X137694225Y-106314961D01*
X137744126Y-106291692D01*
X141744034Y-106291692D01*
X141747776Y-106296691D01*
X141785940Y-106314487D01*
X141796244Y-106318237D01*
X142006688Y-106374625D01*
X142017481Y-106376528D01*
X142234525Y-106395517D01*
X142245475Y-106395517D01*
X142462519Y-106376528D01*
X142473312Y-106374625D01*
X142683756Y-106318237D01*
X142694060Y-106314487D01*
X142725599Y-106299780D01*
X142736184Y-106290461D01*
X142734377Y-106284483D01*
X142289942Y-105840049D01*
X157442001Y-105840049D01*
X157442371Y-105846870D01*
X157447895Y-105897732D01*
X157451521Y-105912984D01*
X157496676Y-106033434D01*
X157505214Y-106049029D01*
X157581715Y-106151104D01*
X157594276Y-106163665D01*
X157696351Y-106240166D01*
X157711946Y-106248704D01*
X157832394Y-106293858D01*
X157847649Y-106297485D01*
X157898514Y-106303011D01*
X157905328Y-106303380D01*
X158231885Y-106303380D01*
X158247124Y-106298905D01*
X158248329Y-106297515D01*
X158250000Y-106289832D01*
X158250000Y-106285264D01*
X159250000Y-106285264D01*
X159254475Y-106300503D01*
X159255865Y-106301708D01*
X159263548Y-106303379D01*
X159594669Y-106303379D01*
X159601490Y-106303009D01*
X159652352Y-106297485D01*
X159667604Y-106293859D01*
X159788054Y-106248704D01*
X159803649Y-106240166D01*
X159905724Y-106163665D01*
X159918285Y-106151104D01*
X159994786Y-106049029D01*
X160003324Y-106033434D01*
X160048478Y-105912986D01*
X160052105Y-105897731D01*
X160057631Y-105846866D01*
X160058000Y-105840052D01*
X160058000Y-105513495D01*
X160053525Y-105498256D01*
X160052135Y-105497051D01*
X160044452Y-105495380D01*
X159268115Y-105495380D01*
X159252876Y-105499855D01*
X159251671Y-105501245D01*
X159250000Y-105508928D01*
X159250000Y-106285264D01*
X158250000Y-106285264D01*
X158250000Y-105513495D01*
X158245525Y-105498256D01*
X158244135Y-105497051D01*
X158236452Y-105495380D01*
X157460116Y-105495380D01*
X157444877Y-105499855D01*
X157443672Y-105501245D01*
X157442001Y-105508928D01*
X157442001Y-105840049D01*
X142289942Y-105840049D01*
X142252808Y-105802915D01*
X142238870Y-105795304D01*
X142237034Y-105795436D01*
X142230422Y-105799685D01*
X141750793Y-106279313D01*
X141744034Y-106291692D01*
X137744126Y-106291692D01*
X137891762Y-106222849D01*
X137891767Y-106222846D01*
X137896749Y-106220523D01*
X138001611Y-106147098D01*
X138079789Y-106092357D01*
X138079792Y-106092355D01*
X138084300Y-106089198D01*
X138246198Y-105927300D01*
X138256223Y-105912984D01*
X138325043Y-105814698D01*
X138377523Y-105739749D01*
X138379846Y-105734767D01*
X138379849Y-105734762D01*
X138471961Y-105537225D01*
X138471961Y-105537224D01*
X138474284Y-105532243D01*
X138482963Y-105499855D01*
X138532119Y-105316402D01*
X138532119Y-105316400D01*
X138533543Y-105311087D01*
X138553019Y-105088475D01*
X140927483Y-105088475D01*
X140946472Y-105305519D01*
X140948375Y-105316312D01*
X141004763Y-105526756D01*
X141008513Y-105537060D01*
X141023220Y-105568599D01*
X141032539Y-105579184D01*
X141038517Y-105577377D01*
X141520085Y-105095808D01*
X141526462Y-105084130D01*
X142952304Y-105084130D01*
X142952436Y-105085966D01*
X142956685Y-105092578D01*
X143436313Y-105572207D01*
X143448692Y-105578966D01*
X143453691Y-105575224D01*
X143471487Y-105537060D01*
X143475237Y-105526756D01*
X143531625Y-105316312D01*
X143533528Y-105305519D01*
X143552517Y-105088475D01*
X143552517Y-105077525D01*
X143533528Y-104860481D01*
X143531625Y-104849688D01*
X143475237Y-104639244D01*
X143471487Y-104628940D01*
X143456780Y-104597401D01*
X143447461Y-104586816D01*
X143441483Y-104588623D01*
X142959915Y-105070192D01*
X142952304Y-105084130D01*
X141526462Y-105084130D01*
X141527696Y-105081870D01*
X141527564Y-105080034D01*
X141523315Y-105073422D01*
X141043687Y-104593793D01*
X141031308Y-104587034D01*
X141026309Y-104590776D01*
X141008513Y-104628940D01*
X141004763Y-104639244D01*
X140948375Y-104849688D01*
X140946472Y-104860481D01*
X140927483Y-105077525D01*
X140927483Y-105088475D01*
X138553019Y-105088475D01*
X138553498Y-105083000D01*
X138533543Y-104854913D01*
X138512223Y-104775346D01*
X138475707Y-104639067D01*
X138475706Y-104639065D01*
X138474284Y-104633757D01*
X138452395Y-104586816D01*
X138379849Y-104431238D01*
X138379846Y-104431233D01*
X138377523Y-104426251D01*
X138295496Y-104309105D01*
X138249357Y-104243211D01*
X138249355Y-104243208D01*
X138246198Y-104238700D01*
X138084300Y-104076802D01*
X138079790Y-104073644D01*
X138079789Y-104073643D01*
X137948092Y-103981428D01*
X137896749Y-103945477D01*
X137891767Y-103943154D01*
X137891762Y-103943151D01*
X137694225Y-103851039D01*
X137694224Y-103851039D01*
X137689243Y-103848716D01*
X137683935Y-103847294D01*
X137683933Y-103847293D01*
X137473402Y-103790881D01*
X137473400Y-103790881D01*
X137468087Y-103789457D01*
X137240000Y-103769502D01*
X137011913Y-103789457D01*
X137006600Y-103790881D01*
X137006598Y-103790881D01*
X136796067Y-103847293D01*
X136796065Y-103847294D01*
X136790757Y-103848716D01*
X136785776Y-103851039D01*
X136785775Y-103851039D01*
X136588238Y-103943151D01*
X136588233Y-103943154D01*
X136583251Y-103945477D01*
X136531908Y-103981428D01*
X136400211Y-104073643D01*
X136400210Y-104073644D01*
X136395700Y-104076802D01*
X136233802Y-104238700D01*
X136230645Y-104243208D01*
X136230643Y-104243211D01*
X136184504Y-104309105D01*
X136102477Y-104426251D01*
X136100154Y-104431233D01*
X136100151Y-104431238D01*
X136034195Y-104572683D01*
X135987278Y-104625968D01*
X135919001Y-104645429D01*
X135851041Y-104624887D01*
X135805805Y-104572683D01*
X135739849Y-104431238D01*
X135739846Y-104431233D01*
X135737523Y-104426251D01*
X135655496Y-104309105D01*
X135609357Y-104243211D01*
X135609355Y-104243208D01*
X135606198Y-104238700D01*
X135444300Y-104076802D01*
X135439789Y-104073643D01*
X135435576Y-104070108D01*
X135437133Y-104068252D01*
X135399216Y-104020812D01*
X135391910Y-103950193D01*
X135423943Y-103886834D01*
X135485146Y-103850851D01*
X135502209Y-103847798D01*
X135506861Y-103847293D01*
X135522459Y-103845599D01*
X135522463Y-103845598D01*
X135530316Y-103844745D01*
X135666705Y-103793615D01*
X135783261Y-103706261D01*
X135870615Y-103589705D01*
X135921745Y-103453316D01*
X135928500Y-103391134D01*
X135928500Y-102543000D01*
X140926502Y-102543000D01*
X140946457Y-102771087D01*
X141005716Y-102992243D01*
X141008039Y-102997224D01*
X141008039Y-102997225D01*
X141100151Y-103194762D01*
X141100154Y-103194767D01*
X141102477Y-103199749D01*
X141136095Y-103247760D01*
X141186775Y-103320138D01*
X141233802Y-103387300D01*
X141395700Y-103549198D01*
X141400208Y-103552355D01*
X141400211Y-103552357D01*
X141441542Y-103581297D01*
X141583251Y-103680523D01*
X141588233Y-103682846D01*
X141588238Y-103682849D01*
X141675785Y-103723672D01*
X141729070Y-103770589D01*
X141748531Y-103838866D01*
X141743708Y-103872408D01*
X141743301Y-103873835D01*
X141745623Y-103881517D01*
X142227192Y-104363085D01*
X142241130Y-104370696D01*
X142242966Y-104370564D01*
X142249578Y-104366315D01*
X142729207Y-103886687D01*
X142736820Y-103872744D01*
X142734866Y-103845418D01*
X142749958Y-103776044D01*
X142800161Y-103725843D01*
X142807295Y-103722236D01*
X142891762Y-103682849D01*
X142891767Y-103682846D01*
X142896749Y-103680523D01*
X143038458Y-103581297D01*
X143079789Y-103552357D01*
X143079792Y-103552355D01*
X143084300Y-103549198D01*
X143246198Y-103387300D01*
X143293226Y-103320138D01*
X143343905Y-103247760D01*
X143377523Y-103199749D01*
X143379846Y-103194767D01*
X143379849Y-103194762D01*
X143471961Y-102997225D01*
X143471961Y-102997224D01*
X143474284Y-102992243D01*
X143533543Y-102771087D01*
X143553498Y-102543000D01*
X143549332Y-102495380D01*
X157436502Y-102495380D01*
X157456457Y-102723467D01*
X157457881Y-102728780D01*
X157457881Y-102728782D01*
X157513729Y-102937206D01*
X157515716Y-102944623D01*
X157518039Y-102949604D01*
X157518039Y-102949605D01*
X157610151Y-103147142D01*
X157610154Y-103147147D01*
X157612477Y-103152129D01*
X157645821Y-103199749D01*
X157730119Y-103320138D01*
X157743802Y-103339680D01*
X157889922Y-103485800D01*
X157923948Y-103548112D01*
X157918883Y-103618927D01*
X157876336Y-103675763D01*
X157839394Y-103693063D01*
X157839793Y-103694128D01*
X157711946Y-103742056D01*
X157696351Y-103750594D01*
X157594276Y-103827095D01*
X157581715Y-103839656D01*
X157505214Y-103941731D01*
X157496676Y-103957326D01*
X157451522Y-104077774D01*
X157447895Y-104093029D01*
X157442369Y-104143894D01*
X157442000Y-104150708D01*
X157442000Y-104477265D01*
X157446475Y-104492504D01*
X157447865Y-104493709D01*
X157455548Y-104495380D01*
X160039884Y-104495380D01*
X160055123Y-104490905D01*
X160056328Y-104489515D01*
X160057999Y-104481832D01*
X160057999Y-104303774D01*
X167313102Y-104303774D01*
X167321751Y-104534158D01*
X167322846Y-104539377D01*
X167334264Y-104593793D01*
X167369093Y-104759791D01*
X167371051Y-104764750D01*
X167371052Y-104764752D01*
X167434357Y-104925048D01*
X167453776Y-104974221D01*
X167456543Y-104978780D01*
X167456544Y-104978783D01*
X167534143Y-105106662D01*
X167573377Y-105171317D01*
X167576874Y-105175347D01*
X167705419Y-105323482D01*
X167724477Y-105345445D01*
X167728608Y-105348832D01*
X167898627Y-105488240D01*
X167898633Y-105488244D01*
X167902755Y-105491624D01*
X167907391Y-105494263D01*
X167907394Y-105494265D01*
X168056193Y-105578966D01*
X168103114Y-105605675D01*
X168319825Y-105684337D01*
X168325074Y-105685286D01*
X168325077Y-105685287D01*
X168542608Y-105724623D01*
X168542615Y-105724624D01*
X168546692Y-105725361D01*
X168564414Y-105726197D01*
X168569356Y-105726430D01*
X168569363Y-105726430D01*
X168570844Y-105726500D01*
X168982890Y-105726500D01*
X169049809Y-105720822D01*
X169149409Y-105712371D01*
X169149413Y-105712370D01*
X169154720Y-105711920D01*
X169159875Y-105710582D01*
X169159881Y-105710581D01*
X169372703Y-105655343D01*
X169372707Y-105655342D01*
X169377872Y-105654001D01*
X169382738Y-105651809D01*
X169382741Y-105651808D01*
X169530406Y-105585290D01*
X169588075Y-105559312D01*
X169779319Y-105430559D01*
X169946135Y-105271424D01*
X170083754Y-105086458D01*
X170087021Y-105080034D01*
X170143342Y-104969256D01*
X170188240Y-104880949D01*
X170196325Y-104854913D01*
X170255024Y-104665871D01*
X170256607Y-104660773D01*
X170268423Y-104571619D01*
X170286198Y-104437511D01*
X170286198Y-104437506D01*
X170286898Y-104432226D01*
X170286505Y-104421743D01*
X170278874Y-104218498D01*
X170278249Y-104201842D01*
X170230907Y-103976209D01*
X170220633Y-103950193D01*
X170148185Y-103766744D01*
X170148184Y-103766742D01*
X170146224Y-103761779D01*
X170124418Y-103725843D01*
X170032353Y-103574126D01*
X170026623Y-103564683D01*
X170015927Y-103552357D01*
X169879023Y-103394588D01*
X169879021Y-103394586D01*
X169875523Y-103390555D01*
X169807975Y-103335169D01*
X169701373Y-103247760D01*
X169701367Y-103247756D01*
X169697245Y-103244376D01*
X169692602Y-103241733D01*
X169665265Y-103226171D01*
X169615959Y-103175088D01*
X169602098Y-103105458D01*
X169628082Y-103039387D01*
X169657232Y-103012149D01*
X169774578Y-102933148D01*
X169782870Y-102926481D01*
X169941900Y-102774772D01*
X169948941Y-102766814D01*
X170080141Y-102590475D01*
X170085745Y-102581438D01*
X170185357Y-102385516D01*
X170186402Y-102382943D01*
X170186583Y-102371201D01*
X170179851Y-102368000D01*
X167430480Y-102368000D01*
X167416949Y-102371973D01*
X167416144Y-102377570D01*
X167452268Y-102469042D01*
X167456990Y-102478554D01*
X167571016Y-102666462D01*
X167577280Y-102675052D01*
X167721327Y-102841052D01*
X167728958Y-102848472D01*
X167898911Y-102987826D01*
X167907674Y-102993848D01*
X167934711Y-103009238D01*
X167984018Y-103060320D01*
X167997880Y-103129951D01*
X167971897Y-103196022D01*
X167942747Y-103223261D01*
X167938425Y-103226171D01*
X167820681Y-103305441D01*
X167816824Y-103309120D01*
X167816822Y-103309122D01*
X167789518Y-103335169D01*
X167653865Y-103464576D01*
X167516246Y-103649542D01*
X167513830Y-103654293D01*
X167513828Y-103654297D01*
X167464869Y-103750594D01*
X167411760Y-103855051D01*
X167410178Y-103860145D01*
X167410177Y-103860148D01*
X167362105Y-104014966D01*
X167343393Y-104075227D01*
X167342692Y-104080516D01*
X167321727Y-104238700D01*
X167313102Y-104303774D01*
X160057999Y-104303774D01*
X160057999Y-104150711D01*
X160057629Y-104143890D01*
X160052105Y-104093028D01*
X160048479Y-104077776D01*
X160003324Y-103957326D01*
X159994786Y-103941731D01*
X159918285Y-103839656D01*
X159905724Y-103827095D01*
X159803649Y-103750594D01*
X159788054Y-103742056D01*
X159660207Y-103694128D01*
X159660904Y-103692268D01*
X159608372Y-103662249D01*
X159575558Y-103599290D01*
X159581992Y-103528586D01*
X159610079Y-103485799D01*
X159756198Y-103339680D01*
X159769882Y-103320138D01*
X159854179Y-103199749D01*
X159887523Y-103152129D01*
X159889846Y-103147147D01*
X159889849Y-103147142D01*
X159981961Y-102949605D01*
X159981961Y-102949604D01*
X159984284Y-102944623D01*
X159986272Y-102937206D01*
X160042119Y-102728782D01*
X160042119Y-102728780D01*
X160043543Y-102723467D01*
X160063498Y-102495380D01*
X160043543Y-102267293D01*
X160004261Y-102120692D01*
X159985707Y-102051447D01*
X159985706Y-102051445D01*
X159984284Y-102046137D01*
X159918377Y-101904797D01*
X159889849Y-101843618D01*
X159889846Y-101843613D01*
X159887523Y-101838631D01*
X159789250Y-101698283D01*
X159759357Y-101655591D01*
X159759355Y-101655588D01*
X159756198Y-101651080D01*
X159594300Y-101489182D01*
X159589792Y-101486025D01*
X159589789Y-101486023D01*
X159456481Y-101392680D01*
X159406749Y-101357857D01*
X159401767Y-101355534D01*
X159401762Y-101355531D01*
X159204225Y-101263419D01*
X159204224Y-101263419D01*
X159199243Y-101261096D01*
X159193935Y-101259674D01*
X159193933Y-101259673D01*
X158983402Y-101203261D01*
X158983400Y-101203261D01*
X158978087Y-101201837D01*
X158750000Y-101181882D01*
X158521913Y-101201837D01*
X158516600Y-101203261D01*
X158516598Y-101203261D01*
X158306067Y-101259673D01*
X158306065Y-101259674D01*
X158300757Y-101261096D01*
X158295776Y-101263419D01*
X158295775Y-101263419D01*
X158098238Y-101355531D01*
X158098233Y-101355534D01*
X158093251Y-101357857D01*
X158043519Y-101392680D01*
X157910211Y-101486023D01*
X157910208Y-101486025D01*
X157905700Y-101489182D01*
X157743802Y-101651080D01*
X157740645Y-101655588D01*
X157740643Y-101655591D01*
X157710750Y-101698283D01*
X157612477Y-101838631D01*
X157610154Y-101843613D01*
X157610151Y-101843618D01*
X157581623Y-101904797D01*
X157515716Y-102046137D01*
X157514294Y-102051445D01*
X157514293Y-102051447D01*
X157495739Y-102120692D01*
X157456457Y-102267293D01*
X157436502Y-102495380D01*
X143549332Y-102495380D01*
X143533543Y-102314913D01*
X143480511Y-102116995D01*
X143475707Y-102099067D01*
X143475706Y-102099065D01*
X143474284Y-102093757D01*
X143452079Y-102046137D01*
X143379849Y-101891238D01*
X143379846Y-101891233D01*
X143377523Y-101886251D01*
X143246198Y-101698700D01*
X143084300Y-101536802D01*
X143079792Y-101533645D01*
X143079789Y-101533643D01*
X142938985Y-101435051D01*
X142896749Y-101405477D01*
X142891767Y-101403154D01*
X142891762Y-101403151D01*
X142694225Y-101311039D01*
X142694224Y-101311039D01*
X142689243Y-101308716D01*
X142683935Y-101307294D01*
X142683933Y-101307293D01*
X142473402Y-101250881D01*
X142473400Y-101250881D01*
X142468087Y-101249457D01*
X142240000Y-101229502D01*
X142011913Y-101249457D01*
X142006600Y-101250881D01*
X142006598Y-101250881D01*
X141796067Y-101307293D01*
X141796065Y-101307294D01*
X141790757Y-101308716D01*
X141785776Y-101311039D01*
X141785775Y-101311039D01*
X141588238Y-101403151D01*
X141588233Y-101403154D01*
X141583251Y-101405477D01*
X141541015Y-101435051D01*
X141400211Y-101533643D01*
X141400208Y-101533645D01*
X141395700Y-101536802D01*
X141233802Y-101698700D01*
X141102477Y-101886251D01*
X141100154Y-101891233D01*
X141100151Y-101891238D01*
X141027921Y-102046137D01*
X141005716Y-102093757D01*
X141004294Y-102099065D01*
X141004293Y-102099067D01*
X140999489Y-102116995D01*
X140946457Y-102314913D01*
X140926502Y-102543000D01*
X135928500Y-102543000D01*
X135928500Y-101694866D01*
X135921745Y-101632684D01*
X135870615Y-101496295D01*
X135783261Y-101379739D01*
X135666705Y-101292385D01*
X135530316Y-101241255D01*
X135468134Y-101234500D01*
X133771866Y-101234500D01*
X133709684Y-101241255D01*
X133573295Y-101292385D01*
X133456739Y-101379739D01*
X133369385Y-101496295D01*
X133318255Y-101632684D01*
X133311500Y-101694866D01*
X133311500Y-103391134D01*
X133318255Y-103453316D01*
X133369385Y-103589705D01*
X133456739Y-103706261D01*
X133573295Y-103793615D01*
X133709684Y-103844745D01*
X133717540Y-103845598D01*
X133719599Y-103846088D01*
X133781246Y-103881306D01*
X133814066Y-103944261D01*
X133807640Y-104014966D01*
X133764269Y-104069924D01*
X133764424Y-104070108D01*
X133763536Y-104070853D01*
X133762721Y-104071886D01*
X133755700Y-104076802D01*
X133593802Y-104238700D01*
X133590645Y-104243208D01*
X133590643Y-104243211D01*
X133544504Y-104309105D01*
X133462477Y-104426251D01*
X133460153Y-104431236D01*
X133460149Y-104431242D01*
X133424021Y-104508720D01*
X133377104Y-104562006D01*
X133343378Y-104571619D01*
X133344580Y-104575597D01*
X133301483Y-104588623D01*
X132819915Y-105070192D01*
X132812304Y-105084130D01*
X131386462Y-105084130D01*
X131387696Y-105081870D01*
X131387564Y-105080034D01*
X131383315Y-105073422D01*
X130903687Y-104593793D01*
X130891308Y-104587034D01*
X130886309Y-104590776D01*
X130868513Y-104628940D01*
X130864763Y-104639244D01*
X130808375Y-104849688D01*
X130806472Y-104860481D01*
X130787483Y-105077525D01*
X130787483Y-105088475D01*
X110991201Y-105088475D01*
X110794268Y-104927287D01*
X110549142Y-104777073D01*
X110531048Y-104769130D01*
X110289830Y-104663243D01*
X110285898Y-104661517D01*
X110259963Y-104654129D01*
X110147652Y-104622136D01*
X110009406Y-104582756D01*
X109796704Y-104552485D01*
X109729036Y-104542854D01*
X109729034Y-104542854D01*
X109724784Y-104542249D01*
X109720495Y-104542227D01*
X109720488Y-104542226D01*
X109441583Y-104540765D01*
X109441576Y-104540765D01*
X109437297Y-104540743D01*
X109433053Y-104541302D01*
X109433049Y-104541302D01*
X109307660Y-104557810D01*
X109152266Y-104578268D01*
X109148126Y-104579401D01*
X109148124Y-104579401D01*
X109120223Y-104587034D01*
X108874964Y-104654129D01*
X108871016Y-104655813D01*
X108614476Y-104765237D01*
X108614472Y-104765239D01*
X108610524Y-104766923D01*
X108485960Y-104841473D01*
X108367521Y-104912357D01*
X108367517Y-104912360D01*
X108363839Y-104914561D01*
X108139472Y-105094313D01*
X107941577Y-105302851D01*
X107773814Y-105536317D01*
X107771805Y-105540112D01*
X107771804Y-105540113D01*
X107754811Y-105572207D01*
X107639288Y-105790392D01*
X107540489Y-106060373D01*
X107479245Y-106341264D01*
X107456689Y-106627869D01*
X97028500Y-106627869D01*
X97028500Y-103520400D01*
X100116500Y-103520400D01*
X100116837Y-103523646D01*
X100116837Y-103523650D01*
X100126723Y-103618927D01*
X100127474Y-103626166D01*
X100129655Y-103632702D01*
X100129655Y-103632704D01*
X100160005Y-103723672D01*
X100183450Y-103793946D01*
X100276522Y-103944348D01*
X100401697Y-104069305D01*
X100407927Y-104073145D01*
X100407928Y-104073146D01*
X100545090Y-104157694D01*
X100552262Y-104162115D01*
X100632005Y-104188564D01*
X100713611Y-104215632D01*
X100713613Y-104215632D01*
X100720139Y-104217797D01*
X100726975Y-104218497D01*
X100726978Y-104218498D01*
X100770031Y-104222909D01*
X100824600Y-104228500D01*
X102375400Y-104228500D01*
X102378646Y-104228163D01*
X102378650Y-104228163D01*
X102474308Y-104218238D01*
X102474312Y-104218237D01*
X102481166Y-104217526D01*
X102487702Y-104215345D01*
X102487704Y-104215345D01*
X102619806Y-104171272D01*
X102648946Y-104161550D01*
X102799348Y-104068478D01*
X102924305Y-103943303D01*
X102967126Y-103873835D01*
X103013275Y-103798968D01*
X103013276Y-103798966D01*
X103017115Y-103792738D01*
X103045798Y-103706261D01*
X103070632Y-103631389D01*
X103070632Y-103631387D01*
X103072797Y-103624861D01*
X103083500Y-103520400D01*
X103083500Y-102219600D01*
X103072526Y-102113834D01*
X103067600Y-102099067D01*
X103018868Y-101953002D01*
X103016550Y-101946054D01*
X102923478Y-101795652D01*
X102798303Y-101670695D01*
X102652220Y-101580647D01*
X102622720Y-101547869D01*
X107456689Y-101547869D01*
X107473238Y-101834883D01*
X107474063Y-101839088D01*
X107474064Y-101839096D01*
X107495049Y-101946054D01*
X107528586Y-102116995D01*
X107529973Y-102121045D01*
X107529974Y-102121050D01*
X107615885Y-102371973D01*
X107621710Y-102388986D01*
X107750885Y-102645822D01*
X107913721Y-102882750D01*
X108107206Y-103095388D01*
X108110501Y-103098143D01*
X108110502Y-103098144D01*
X108289442Y-103247760D01*
X108327759Y-103279798D01*
X108571298Y-103432571D01*
X108833318Y-103550877D01*
X108866321Y-103560653D01*
X109104857Y-103631311D01*
X109104862Y-103631312D01*
X109108970Y-103632529D01*
X109113204Y-103633177D01*
X109113209Y-103633178D01*
X109361811Y-103671219D01*
X109393153Y-103676015D01*
X109539485Y-103678314D01*
X109676317Y-103680464D01*
X109676323Y-103680464D01*
X109680608Y-103680531D01*
X109684860Y-103680016D01*
X109684868Y-103680016D01*
X109961756Y-103646508D01*
X109961761Y-103646507D01*
X109966017Y-103645992D01*
X110180570Y-103589705D01*
X110239954Y-103574126D01*
X110239955Y-103574126D01*
X110244097Y-103573039D01*
X110371179Y-103520400D01*
X114831500Y-103520400D01*
X114831837Y-103523646D01*
X114831837Y-103523650D01*
X114841723Y-103618927D01*
X114842474Y-103626166D01*
X114844655Y-103632702D01*
X114844655Y-103632704D01*
X114875005Y-103723672D01*
X114898450Y-103793946D01*
X114991522Y-103944348D01*
X115116697Y-104069305D01*
X115122927Y-104073145D01*
X115122928Y-104073146D01*
X115260090Y-104157694D01*
X115267262Y-104162115D01*
X115347005Y-104188564D01*
X115428611Y-104215632D01*
X115428613Y-104215632D01*
X115435139Y-104217797D01*
X115441975Y-104218497D01*
X115441978Y-104218498D01*
X115485031Y-104222909D01*
X115539600Y-104228500D01*
X117090400Y-104228500D01*
X117093646Y-104228163D01*
X117093650Y-104228163D01*
X117189308Y-104218238D01*
X117189312Y-104218237D01*
X117196166Y-104217526D01*
X117202702Y-104215345D01*
X117202704Y-104215345D01*
X117334806Y-104171272D01*
X117363946Y-104161550D01*
X117514348Y-104068478D01*
X117639305Y-103943303D01*
X117681076Y-103875539D01*
X131603816Y-103875539D01*
X131605623Y-103881517D01*
X132087192Y-104363085D01*
X132101130Y-104370696D01*
X132102966Y-104370564D01*
X132109578Y-104366315D01*
X132589207Y-103886687D01*
X132595966Y-103874308D01*
X132592224Y-103869309D01*
X132554060Y-103851513D01*
X132543756Y-103847763D01*
X132333312Y-103791375D01*
X132322519Y-103789472D01*
X132105475Y-103770483D01*
X132094525Y-103770483D01*
X131877481Y-103789472D01*
X131866688Y-103791375D01*
X131656244Y-103847763D01*
X131645940Y-103851513D01*
X131614401Y-103866220D01*
X131603816Y-103875539D01*
X117681076Y-103875539D01*
X117682126Y-103873835D01*
X117728275Y-103798968D01*
X117728276Y-103798966D01*
X117732115Y-103792738D01*
X117760798Y-103706261D01*
X117785632Y-103631389D01*
X117785632Y-103631387D01*
X117787797Y-103624861D01*
X117798500Y-103520400D01*
X117798500Y-102543000D01*
X128226502Y-102543000D01*
X128246457Y-102771087D01*
X128305716Y-102992243D01*
X128308039Y-102997224D01*
X128308039Y-102997225D01*
X128400151Y-103194762D01*
X128400154Y-103194767D01*
X128402477Y-103199749D01*
X128436095Y-103247760D01*
X128486775Y-103320138D01*
X128533802Y-103387300D01*
X128695700Y-103549198D01*
X128700208Y-103552355D01*
X128700211Y-103552357D01*
X128741542Y-103581297D01*
X128883251Y-103680523D01*
X128888233Y-103682846D01*
X128888238Y-103682849D01*
X129076172Y-103770483D01*
X129090757Y-103777284D01*
X129096065Y-103778706D01*
X129096067Y-103778707D01*
X129306598Y-103835119D01*
X129306600Y-103835119D01*
X129311913Y-103836543D01*
X129540000Y-103856498D01*
X129768087Y-103836543D01*
X129773400Y-103835119D01*
X129773402Y-103835119D01*
X129983933Y-103778707D01*
X129983935Y-103778706D01*
X129989243Y-103777284D01*
X130003828Y-103770483D01*
X130191762Y-103682849D01*
X130191767Y-103682846D01*
X130196749Y-103680523D01*
X130338458Y-103581297D01*
X130379789Y-103552357D01*
X130379792Y-103552355D01*
X130384300Y-103549198D01*
X130546198Y-103387300D01*
X130593226Y-103320138D01*
X130643905Y-103247760D01*
X130677523Y-103199749D01*
X130679846Y-103194767D01*
X130679849Y-103194762D01*
X130771961Y-102997225D01*
X130771961Y-102997224D01*
X130774284Y-102992243D01*
X130833543Y-102771087D01*
X130853498Y-102543000D01*
X130833543Y-102314913D01*
X130780511Y-102116995D01*
X130775707Y-102099067D01*
X130775706Y-102099065D01*
X130774284Y-102093757D01*
X130752079Y-102046137D01*
X130679849Y-101891238D01*
X130679846Y-101891233D01*
X130677523Y-101886251D01*
X130546198Y-101698700D01*
X130384300Y-101536802D01*
X130379792Y-101533645D01*
X130379789Y-101533643D01*
X130238985Y-101435051D01*
X130196749Y-101405477D01*
X130191767Y-101403154D01*
X130191762Y-101403151D01*
X129994225Y-101311039D01*
X129994224Y-101311039D01*
X129989243Y-101308716D01*
X129983935Y-101307294D01*
X129983933Y-101307293D01*
X129773402Y-101250881D01*
X129773400Y-101250881D01*
X129768087Y-101249457D01*
X129540000Y-101229502D01*
X129311913Y-101249457D01*
X129306600Y-101250881D01*
X129306598Y-101250881D01*
X129096067Y-101307293D01*
X129096065Y-101307294D01*
X129090757Y-101308716D01*
X129085776Y-101311039D01*
X129085775Y-101311039D01*
X128888238Y-101403151D01*
X128888233Y-101403154D01*
X128883251Y-101405477D01*
X128841015Y-101435051D01*
X128700211Y-101533643D01*
X128700208Y-101533645D01*
X128695700Y-101536802D01*
X128533802Y-101698700D01*
X128402477Y-101886251D01*
X128400154Y-101891233D01*
X128400151Y-101891238D01*
X128327921Y-102046137D01*
X128305716Y-102093757D01*
X128304294Y-102099065D01*
X128304293Y-102099067D01*
X128299489Y-102116995D01*
X128246457Y-102314913D01*
X128226502Y-102543000D01*
X117798500Y-102543000D01*
X117798500Y-102219600D01*
X117787526Y-102113834D01*
X117782600Y-102099067D01*
X117733868Y-101953002D01*
X117731550Y-101946054D01*
X117638478Y-101795652D01*
X117513303Y-101670695D01*
X117367220Y-101580647D01*
X117319727Y-101527876D01*
X117308303Y-101457804D01*
X117336577Y-101392680D01*
X117346364Y-101382218D01*
X117456906Y-101276766D01*
X117463941Y-101268814D01*
X117595141Y-101092475D01*
X117600745Y-101083438D01*
X117700357Y-100887516D01*
X117701402Y-100884943D01*
X117701583Y-100873201D01*
X117694851Y-100870000D01*
X114945480Y-100870000D01*
X114931949Y-100873973D01*
X114931144Y-100879570D01*
X114967268Y-100971042D01*
X114971990Y-100980554D01*
X115086016Y-101168462D01*
X115092280Y-101177052D01*
X115236327Y-101343052D01*
X115243956Y-101350470D01*
X115275569Y-101376391D01*
X115315564Y-101435051D01*
X115317496Y-101506021D01*
X115280752Y-101566770D01*
X115261983Y-101580969D01*
X115115652Y-101671522D01*
X114990695Y-101796697D01*
X114986855Y-101802927D01*
X114986854Y-101802928D01*
X114938272Y-101881743D01*
X114897885Y-101947262D01*
X114842203Y-102115139D01*
X114831500Y-102219600D01*
X114831500Y-103520400D01*
X110371179Y-103520400D01*
X110509704Y-103463021D01*
X110757922Y-103317974D01*
X110984159Y-103140582D01*
X110994462Y-103129951D01*
X111169229Y-102949605D01*
X111184227Y-102934128D01*
X111186760Y-102930680D01*
X111186764Y-102930675D01*
X111351887Y-102705886D01*
X111354425Y-102702431D01*
X111420119Y-102581438D01*
X111489554Y-102453555D01*
X111489555Y-102453553D01*
X111491604Y-102449779D01*
X111560560Y-102267293D01*
X111591707Y-102184866D01*
X111591708Y-102184862D01*
X111593225Y-102180848D01*
X111645132Y-101954209D01*
X111656449Y-101904797D01*
X111656450Y-101904793D01*
X111657407Y-101900613D01*
X111666775Y-101795652D01*
X111682743Y-101616726D01*
X111682743Y-101616724D01*
X111682963Y-101614260D01*
X111683427Y-101570000D01*
X111681627Y-101543598D01*
X111664165Y-101287452D01*
X111664164Y-101287446D01*
X111663873Y-101283175D01*
X111659336Y-101261264D01*
X111606443Y-101005855D01*
X111605574Y-101001658D01*
X111509607Y-100730657D01*
X111411191Y-100539978D01*
X111379715Y-100478995D01*
X111379715Y-100478994D01*
X111377750Y-100475188D01*
X111364488Y-100456317D01*
X111234542Y-100271424D01*
X111212441Y-100239977D01*
X111069782Y-100086458D01*
X111019661Y-100032521D01*
X111019658Y-100032519D01*
X111016740Y-100029378D01*
X110818107Y-99866799D01*
X114928417Y-99866799D01*
X114935149Y-99870000D01*
X115796885Y-99870000D01*
X115812124Y-99865525D01*
X115813329Y-99864135D01*
X115815000Y-99856452D01*
X115815000Y-99851885D01*
X116815000Y-99851885D01*
X116819475Y-99867124D01*
X116820865Y-99868329D01*
X116828548Y-99870000D01*
X117684520Y-99870000D01*
X117698051Y-99866027D01*
X117698856Y-99860430D01*
X117662732Y-99768958D01*
X117658010Y-99759446D01*
X117543984Y-99571538D01*
X117537720Y-99562948D01*
X117393673Y-99396948D01*
X117386042Y-99389528D01*
X117281458Y-99303774D01*
X167313102Y-99303774D01*
X167321751Y-99534158D01*
X167369093Y-99759791D01*
X167371051Y-99764750D01*
X167371052Y-99764752D01*
X167410850Y-99865525D01*
X167453776Y-99974221D01*
X167573377Y-100171317D01*
X167576874Y-100175347D01*
X167663438Y-100275103D01*
X167724477Y-100345445D01*
X167728608Y-100348832D01*
X167898627Y-100488240D01*
X167898633Y-100488244D01*
X167902755Y-100491624D01*
X167907398Y-100494267D01*
X167934735Y-100509829D01*
X167984041Y-100560912D01*
X167997902Y-100630542D01*
X167971918Y-100696613D01*
X167942768Y-100723851D01*
X167825422Y-100802852D01*
X167817130Y-100809519D01*
X167658100Y-100961228D01*
X167651059Y-100969186D01*
X167519859Y-101145525D01*
X167514255Y-101154562D01*
X167414643Y-101350484D01*
X167413598Y-101353057D01*
X167413417Y-101364799D01*
X167420149Y-101368000D01*
X170169520Y-101368000D01*
X170183051Y-101364027D01*
X170183856Y-101358430D01*
X170147732Y-101266958D01*
X170143010Y-101257446D01*
X170028984Y-101069538D01*
X170022720Y-101060948D01*
X169878673Y-100894948D01*
X169871042Y-100887528D01*
X169701089Y-100748174D01*
X169692326Y-100742152D01*
X169665289Y-100726762D01*
X169615982Y-100675680D01*
X169602120Y-100606049D01*
X169628103Y-100539978D01*
X169657253Y-100512739D01*
X169741059Y-100456317D01*
X169779319Y-100430559D01*
X169946135Y-100271424D01*
X169966925Y-100243482D01*
X170080568Y-100090740D01*
X170083754Y-100086458D01*
X170121796Y-100011636D01*
X170185822Y-99885704D01*
X170188240Y-99880949D01*
X170192874Y-99866027D01*
X170255024Y-99665871D01*
X170256607Y-99660773D01*
X170266883Y-99583243D01*
X170286198Y-99437511D01*
X170286198Y-99437506D01*
X170286898Y-99432226D01*
X170278249Y-99201842D01*
X170230907Y-98976209D01*
X170181181Y-98850296D01*
X170148185Y-98766744D01*
X170148184Y-98766742D01*
X170146224Y-98761779D01*
X170026623Y-98564683D01*
X169945223Y-98470877D01*
X169879023Y-98394588D01*
X169879021Y-98394586D01*
X169875523Y-98390555D01*
X169826414Y-98350288D01*
X169701373Y-98247760D01*
X169701367Y-98247756D01*
X169697245Y-98244376D01*
X169689800Y-98240138D01*
X169665265Y-98226171D01*
X169615959Y-98175088D01*
X169602098Y-98105458D01*
X169628082Y-98039387D01*
X169657232Y-98012149D01*
X169774578Y-97933148D01*
X169782870Y-97926481D01*
X169941900Y-97774772D01*
X169948941Y-97766814D01*
X170080141Y-97590475D01*
X170085745Y-97581438D01*
X170185357Y-97385516D01*
X170186402Y-97382943D01*
X170186583Y-97371201D01*
X170179851Y-97368000D01*
X167430480Y-97368000D01*
X167416949Y-97371973D01*
X167416144Y-97377570D01*
X167452268Y-97469042D01*
X167456990Y-97478554D01*
X167571016Y-97666462D01*
X167577280Y-97675052D01*
X167721327Y-97841052D01*
X167728958Y-97848472D01*
X167898911Y-97987826D01*
X167907674Y-97993848D01*
X167934711Y-98009238D01*
X167984018Y-98060320D01*
X167997880Y-98129951D01*
X167971897Y-98196022D01*
X167942747Y-98223261D01*
X167938425Y-98226171D01*
X167820681Y-98305441D01*
X167653865Y-98464576D01*
X167516246Y-98649542D01*
X167513830Y-98654293D01*
X167513828Y-98654297D01*
X167502259Y-98677052D01*
X167411760Y-98855051D01*
X167410178Y-98860145D01*
X167410177Y-98860148D01*
X167369911Y-98989826D01*
X167343393Y-99075227D01*
X167342692Y-99080516D01*
X167327304Y-99196623D01*
X167313102Y-99303774D01*
X117281458Y-99303774D01*
X117216089Y-99250174D01*
X117207323Y-99244150D01*
X117179801Y-99228483D01*
X117130496Y-99177400D01*
X117116635Y-99107770D01*
X117142619Y-99041699D01*
X117171768Y-99014462D01*
X117289575Y-98935150D01*
X117297870Y-98928481D01*
X117456900Y-98776772D01*
X117463941Y-98768814D01*
X117595141Y-98592475D01*
X117600745Y-98583438D01*
X117700357Y-98387516D01*
X117701402Y-98384943D01*
X117701583Y-98373201D01*
X117694851Y-98370000D01*
X116833115Y-98370000D01*
X116817876Y-98374475D01*
X116816671Y-98375865D01*
X116815000Y-98383548D01*
X116815000Y-99851885D01*
X115815000Y-99851885D01*
X115815000Y-98388115D01*
X115810525Y-98372876D01*
X115809135Y-98371671D01*
X115801452Y-98370000D01*
X114945480Y-98370000D01*
X114931949Y-98373973D01*
X114931144Y-98379570D01*
X114967268Y-98471042D01*
X114971990Y-98480554D01*
X115086016Y-98668462D01*
X115092280Y-98677052D01*
X115236327Y-98843052D01*
X115243958Y-98850472D01*
X115413911Y-98989826D01*
X115422677Y-98995850D01*
X115450199Y-99011517D01*
X115499504Y-99062600D01*
X115513365Y-99132230D01*
X115487381Y-99198301D01*
X115458232Y-99225538D01*
X115340425Y-99304850D01*
X115332130Y-99311519D01*
X115173100Y-99463228D01*
X115166059Y-99471186D01*
X115034859Y-99647525D01*
X115029255Y-99656562D01*
X114929643Y-99852484D01*
X114928598Y-99855057D01*
X114928417Y-99866799D01*
X110818107Y-99866799D01*
X110794268Y-99847287D01*
X110549142Y-99697073D01*
X110531048Y-99689130D01*
X110289830Y-99583243D01*
X110285898Y-99581517D01*
X110259963Y-99574129D01*
X110013534Y-99503932D01*
X110013535Y-99503932D01*
X110009406Y-99502756D01*
X109787580Y-99471186D01*
X109729036Y-99462854D01*
X109729034Y-99462854D01*
X109724784Y-99462249D01*
X109720495Y-99462227D01*
X109720488Y-99462226D01*
X109441583Y-99460765D01*
X109441576Y-99460765D01*
X109437297Y-99460743D01*
X109433053Y-99461302D01*
X109433049Y-99461302D01*
X109357974Y-99471186D01*
X109152266Y-99498268D01*
X109148126Y-99499401D01*
X109148124Y-99499401D01*
X109071311Y-99520415D01*
X108874964Y-99574129D01*
X108871016Y-99575813D01*
X108614476Y-99685237D01*
X108614472Y-99685239D01*
X108610524Y-99686923D01*
X108497491Y-99754572D01*
X108367521Y-99832357D01*
X108367517Y-99832360D01*
X108363839Y-99834561D01*
X108139472Y-100014313D01*
X108071009Y-100086458D01*
X107986657Y-100175347D01*
X107941577Y-100222851D01*
X107773814Y-100456317D01*
X107639288Y-100710392D01*
X107540489Y-100980373D01*
X107479245Y-101261264D01*
X107475328Y-101311039D01*
X107457809Y-101533643D01*
X107456689Y-101547869D01*
X102622720Y-101547869D01*
X102604727Y-101527876D01*
X102593303Y-101457804D01*
X102621577Y-101392680D01*
X102631364Y-101382218D01*
X102741906Y-101276766D01*
X102748941Y-101268814D01*
X102880141Y-101092475D01*
X102885745Y-101083438D01*
X102985357Y-100887516D01*
X102986402Y-100884943D01*
X102986583Y-100873201D01*
X102979851Y-100870000D01*
X100230480Y-100870000D01*
X100216949Y-100873973D01*
X100216144Y-100879570D01*
X100252268Y-100971042D01*
X100256990Y-100980554D01*
X100371016Y-101168462D01*
X100377280Y-101177052D01*
X100521327Y-101343052D01*
X100528956Y-101350470D01*
X100560569Y-101376391D01*
X100600564Y-101435051D01*
X100602496Y-101506021D01*
X100565752Y-101566770D01*
X100546983Y-101580969D01*
X100400652Y-101671522D01*
X100275695Y-101796697D01*
X100271855Y-101802927D01*
X100271854Y-101802928D01*
X100223272Y-101881743D01*
X100182885Y-101947262D01*
X100127203Y-102115139D01*
X100116500Y-102219600D01*
X100116500Y-103520400D01*
X97028500Y-103520400D01*
X97028500Y-99866799D01*
X100213417Y-99866799D01*
X100220149Y-99870000D01*
X101081885Y-99870000D01*
X101097124Y-99865525D01*
X101098329Y-99864135D01*
X101100000Y-99856452D01*
X101100000Y-99851885D01*
X102100000Y-99851885D01*
X102104475Y-99867124D01*
X102105865Y-99868329D01*
X102113548Y-99870000D01*
X102969520Y-99870000D01*
X102983051Y-99866027D01*
X102983856Y-99860430D01*
X102947732Y-99768958D01*
X102943010Y-99759446D01*
X102828984Y-99571538D01*
X102822720Y-99562948D01*
X102678673Y-99396948D01*
X102671042Y-99389528D01*
X102501089Y-99250174D01*
X102492323Y-99244150D01*
X102464801Y-99228483D01*
X102415496Y-99177400D01*
X102401635Y-99107770D01*
X102427619Y-99041699D01*
X102456768Y-99014462D01*
X102574575Y-98935150D01*
X102582870Y-98928481D01*
X102741900Y-98776772D01*
X102748941Y-98768814D01*
X102880141Y-98592475D01*
X102885745Y-98583438D01*
X102985357Y-98387516D01*
X102986402Y-98384943D01*
X102986583Y-98373201D01*
X102979851Y-98370000D01*
X102118115Y-98370000D01*
X102102876Y-98374475D01*
X102101671Y-98375865D01*
X102100000Y-98383548D01*
X102100000Y-99851885D01*
X101100000Y-99851885D01*
X101100000Y-98388115D01*
X101095525Y-98372876D01*
X101094135Y-98371671D01*
X101086452Y-98370000D01*
X100230480Y-98370000D01*
X100216949Y-98373973D01*
X100216144Y-98379570D01*
X100252268Y-98471042D01*
X100256990Y-98480554D01*
X100371016Y-98668462D01*
X100377280Y-98677052D01*
X100521327Y-98843052D01*
X100528958Y-98850472D01*
X100698911Y-98989826D01*
X100707677Y-98995850D01*
X100735199Y-99011517D01*
X100784504Y-99062600D01*
X100798365Y-99132230D01*
X100772381Y-99198301D01*
X100743232Y-99225538D01*
X100625425Y-99304850D01*
X100617130Y-99311519D01*
X100458100Y-99463228D01*
X100451059Y-99471186D01*
X100319859Y-99647525D01*
X100314255Y-99656562D01*
X100214643Y-99852484D01*
X100213598Y-99855057D01*
X100213417Y-99866799D01*
X97028500Y-99866799D01*
X97028500Y-95305774D01*
X100113102Y-95305774D01*
X100113302Y-95311103D01*
X100113302Y-95311105D01*
X100114883Y-95353211D01*
X100121751Y-95536158D01*
X100169093Y-95761791D01*
X100171051Y-95766750D01*
X100171052Y-95766752D01*
X100225478Y-95904565D01*
X100253776Y-95976221D01*
X100373377Y-96173317D01*
X100376874Y-96177347D01*
X100463438Y-96277103D01*
X100524477Y-96347445D01*
X100537874Y-96358430D01*
X100698627Y-96490240D01*
X100698633Y-96490244D01*
X100702755Y-96493624D01*
X100707398Y-96496267D01*
X100734735Y-96511829D01*
X100784041Y-96562912D01*
X100797902Y-96632542D01*
X100771918Y-96698613D01*
X100742768Y-96725851D01*
X100625422Y-96804852D01*
X100617130Y-96811519D01*
X100458100Y-96963228D01*
X100451059Y-96971186D01*
X100319859Y-97147525D01*
X100314255Y-97156562D01*
X100214643Y-97352484D01*
X100213598Y-97355057D01*
X100213417Y-97366799D01*
X100220149Y-97370000D01*
X102969520Y-97370000D01*
X102983051Y-97366027D01*
X102983856Y-97360430D01*
X102947732Y-97268958D01*
X102943010Y-97259446D01*
X102828984Y-97071538D01*
X102822720Y-97062948D01*
X102678673Y-96896948D01*
X102671042Y-96889528D01*
X102501089Y-96750174D01*
X102492326Y-96744152D01*
X102465289Y-96728762D01*
X102415982Y-96677680D01*
X102402120Y-96608049D01*
X102428103Y-96541978D01*
X102457253Y-96514739D01*
X102526871Y-96467869D01*
X107456689Y-96467869D01*
X107473238Y-96754883D01*
X107474063Y-96759088D01*
X107474064Y-96759096D01*
X107491850Y-96849749D01*
X107528586Y-97036995D01*
X107529973Y-97041045D01*
X107529974Y-97041050D01*
X107608005Y-97268958D01*
X107621710Y-97308986D01*
X107750885Y-97565822D01*
X107913721Y-97802750D01*
X108107206Y-98015388D01*
X108110501Y-98018143D01*
X108110502Y-98018144D01*
X108300120Y-98176688D01*
X108327759Y-98199798D01*
X108571298Y-98352571D01*
X108833318Y-98470877D01*
X108837437Y-98472097D01*
X109104857Y-98551311D01*
X109104862Y-98551312D01*
X109108970Y-98552529D01*
X109113204Y-98553177D01*
X109113209Y-98553178D01*
X109361811Y-98591219D01*
X109393153Y-98596015D01*
X109539485Y-98598314D01*
X109676317Y-98600464D01*
X109676323Y-98600464D01*
X109680608Y-98600531D01*
X109684860Y-98600016D01*
X109684868Y-98600016D01*
X109961756Y-98566508D01*
X109961761Y-98566507D01*
X109966017Y-98565992D01*
X110244097Y-98493039D01*
X110509704Y-98383021D01*
X110741175Y-98247760D01*
X110754219Y-98240138D01*
X110754220Y-98240137D01*
X110757922Y-98237974D01*
X110984159Y-98060582D01*
X111004699Y-98039387D01*
X111181244Y-97857206D01*
X111184227Y-97854128D01*
X111186760Y-97850680D01*
X111186764Y-97850675D01*
X111351887Y-97625886D01*
X111354425Y-97622431D01*
X111371776Y-97590475D01*
X111489554Y-97373555D01*
X111489555Y-97373553D01*
X111491604Y-97369779D01*
X111554868Y-97202357D01*
X111591707Y-97104866D01*
X111591708Y-97104862D01*
X111593225Y-97100848D01*
X111639924Y-96896948D01*
X111656449Y-96824797D01*
X111656450Y-96824793D01*
X111657407Y-96820613D01*
X111663694Y-96750174D01*
X111682743Y-96536726D01*
X111682743Y-96536724D01*
X111682963Y-96534260D01*
X111683427Y-96490000D01*
X111674839Y-96364027D01*
X111664165Y-96207452D01*
X111664164Y-96207446D01*
X111663873Y-96203175D01*
X111659336Y-96181264D01*
X111615666Y-95970393D01*
X111605574Y-95921658D01*
X111509607Y-95650657D01*
X111377750Y-95395188D01*
X111364488Y-95376317D01*
X111314909Y-95305774D01*
X114828102Y-95305774D01*
X114828302Y-95311103D01*
X114828302Y-95311105D01*
X114829883Y-95353211D01*
X114836751Y-95536158D01*
X114884093Y-95761791D01*
X114886051Y-95766750D01*
X114886052Y-95766752D01*
X114940478Y-95904565D01*
X114968776Y-95976221D01*
X115088377Y-96173317D01*
X115091874Y-96177347D01*
X115178438Y-96277103D01*
X115239477Y-96347445D01*
X115252874Y-96358430D01*
X115413627Y-96490240D01*
X115413633Y-96490244D01*
X115417755Y-96493624D01*
X115422398Y-96496267D01*
X115449735Y-96511829D01*
X115499041Y-96562912D01*
X115512902Y-96632542D01*
X115486918Y-96698613D01*
X115457768Y-96725851D01*
X115340422Y-96804852D01*
X115332130Y-96811519D01*
X115173100Y-96963228D01*
X115166059Y-96971186D01*
X115034859Y-97147525D01*
X115029255Y-97156562D01*
X114929643Y-97352484D01*
X114928598Y-97355057D01*
X114928417Y-97366799D01*
X114935149Y-97370000D01*
X117684520Y-97370000D01*
X117698051Y-97366027D01*
X117698856Y-97360430D01*
X117662732Y-97268958D01*
X117658010Y-97259446D01*
X117543984Y-97071538D01*
X117537720Y-97062948D01*
X117518791Y-97041134D01*
X130771500Y-97041134D01*
X130778255Y-97103316D01*
X130829385Y-97239705D01*
X130916739Y-97356261D01*
X131033295Y-97443615D01*
X131169684Y-97494745D01*
X131231866Y-97501500D01*
X132928134Y-97501500D01*
X132990316Y-97494745D01*
X133126705Y-97443615D01*
X133243261Y-97356261D01*
X133330615Y-97239705D01*
X133381745Y-97103316D01*
X133388500Y-97041134D01*
X133388500Y-95344866D01*
X133381745Y-95282684D01*
X133330615Y-95146295D01*
X133243261Y-95029739D01*
X133126705Y-94942385D01*
X132990316Y-94891255D01*
X132928134Y-94884500D01*
X132603585Y-94884500D01*
X132535464Y-94864498D01*
X132514490Y-94847596D01*
X132112808Y-94445915D01*
X132098870Y-94438304D01*
X132097034Y-94438436D01*
X132090422Y-94442685D01*
X131685510Y-94847596D01*
X131623198Y-94881621D01*
X131596415Y-94884500D01*
X131231866Y-94884500D01*
X131169684Y-94891255D01*
X131033295Y-94942385D01*
X130916739Y-95029739D01*
X130829385Y-95146295D01*
X130778255Y-95282684D01*
X130771500Y-95344866D01*
X130771500Y-97041134D01*
X117518791Y-97041134D01*
X117393673Y-96896948D01*
X117386042Y-96889528D01*
X117216089Y-96750174D01*
X117207326Y-96744152D01*
X117180289Y-96728762D01*
X117130982Y-96677680D01*
X117117120Y-96608049D01*
X117143103Y-96541978D01*
X117172253Y-96514739D01*
X117248215Y-96463598D01*
X117294319Y-96432559D01*
X117461135Y-96273424D01*
X117598754Y-96088458D01*
X117608374Y-96069538D01*
X117694381Y-95900373D01*
X117703240Y-95882949D01*
X117709867Y-95861609D01*
X117770024Y-95667871D01*
X117771607Y-95662773D01*
X117784370Y-95566478D01*
X117801198Y-95439511D01*
X117801198Y-95439506D01*
X117801898Y-95434226D01*
X117800433Y-95395188D01*
X117793449Y-95209173D01*
X117793249Y-95203842D01*
X117776532Y-95124166D01*
X117747002Y-94983428D01*
X117745907Y-94978209D01*
X117743948Y-94973248D01*
X117663185Y-94768744D01*
X117663184Y-94768742D01*
X117661224Y-94763779D01*
X117655631Y-94754561D01*
X117544390Y-94571243D01*
X117541623Y-94566683D01*
X117484055Y-94500341D01*
X117394023Y-94396588D01*
X117394021Y-94396586D01*
X117390523Y-94392555D01*
X117348970Y-94358484D01*
X117216373Y-94249760D01*
X117216367Y-94249756D01*
X117212245Y-94246376D01*
X117207609Y-94243737D01*
X117207606Y-94243735D01*
X117016529Y-94134968D01*
X117011886Y-94132325D01*
X116795175Y-94053663D01*
X116789926Y-94052714D01*
X116789923Y-94052713D01*
X116572392Y-94013377D01*
X116572385Y-94013376D01*
X116568308Y-94012639D01*
X116550586Y-94011803D01*
X116545644Y-94011570D01*
X116545637Y-94011570D01*
X116544156Y-94011500D01*
X116132110Y-94011500D01*
X116065191Y-94017178D01*
X115965591Y-94025629D01*
X115965587Y-94025630D01*
X115960280Y-94026080D01*
X115955125Y-94027418D01*
X115955119Y-94027419D01*
X115742297Y-94082657D01*
X115742293Y-94082658D01*
X115737128Y-94083999D01*
X115732262Y-94086191D01*
X115732259Y-94086192D01*
X115623980Y-94134968D01*
X115526925Y-94178688D01*
X115335681Y-94307441D01*
X115168865Y-94466576D01*
X115031246Y-94651542D01*
X114926760Y-94857051D01*
X114925178Y-94862145D01*
X114925177Y-94862148D01*
X114871775Y-95034131D01*
X114858393Y-95077227D01*
X114857692Y-95082516D01*
X114829935Y-95291946D01*
X114828102Y-95305774D01*
X111314909Y-95305774D01*
X111293481Y-95275285D01*
X111212441Y-95159977D01*
X111115551Y-95055711D01*
X111019661Y-94952521D01*
X111019658Y-94952519D01*
X111016740Y-94949378D01*
X110794268Y-94767287D01*
X110549142Y-94617073D01*
X110531048Y-94609130D01*
X110289830Y-94503243D01*
X110285898Y-94501517D01*
X110259963Y-94494129D01*
X110064451Y-94438436D01*
X110009406Y-94422756D01*
X109796704Y-94392485D01*
X109729036Y-94382854D01*
X109729034Y-94382854D01*
X109724784Y-94382249D01*
X109720495Y-94382227D01*
X109720488Y-94382226D01*
X109441583Y-94380765D01*
X109441576Y-94380765D01*
X109437297Y-94380743D01*
X109433053Y-94381302D01*
X109433049Y-94381302D01*
X109316942Y-94396588D01*
X109152266Y-94418268D01*
X109148126Y-94419401D01*
X109148124Y-94419401D01*
X109079026Y-94438304D01*
X108874964Y-94494129D01*
X108871016Y-94495813D01*
X108614476Y-94605237D01*
X108614472Y-94605239D01*
X108610524Y-94606923D01*
X108561412Y-94636316D01*
X108367521Y-94752357D01*
X108367517Y-94752360D01*
X108363839Y-94754561D01*
X108139472Y-94934313D01*
X107941577Y-95142851D01*
X107773814Y-95376317D01*
X107639288Y-95630392D01*
X107602112Y-95731979D01*
X107548731Y-95877852D01*
X107540489Y-95900373D01*
X107479245Y-96181264D01*
X107456689Y-96467869D01*
X102526871Y-96467869D01*
X102533215Y-96463598D01*
X102579319Y-96432559D01*
X102746135Y-96273424D01*
X102883754Y-96088458D01*
X102893374Y-96069538D01*
X102979381Y-95900373D01*
X102988240Y-95882949D01*
X102994867Y-95861609D01*
X103055024Y-95667871D01*
X103056607Y-95662773D01*
X103069370Y-95566478D01*
X103086198Y-95439511D01*
X103086198Y-95439506D01*
X103086898Y-95434226D01*
X103085433Y-95395188D01*
X103078449Y-95209173D01*
X103078249Y-95203842D01*
X103061532Y-95124166D01*
X103032002Y-94983428D01*
X103030907Y-94978209D01*
X103028948Y-94973248D01*
X102948185Y-94768744D01*
X102948184Y-94768742D01*
X102946224Y-94763779D01*
X102940631Y-94754561D01*
X102829390Y-94571243D01*
X102826623Y-94566683D01*
X102769055Y-94500341D01*
X102679023Y-94396588D01*
X102679021Y-94396586D01*
X102675523Y-94392555D01*
X102633970Y-94358484D01*
X102501373Y-94249760D01*
X102501367Y-94249756D01*
X102497245Y-94246376D01*
X102492609Y-94243737D01*
X102492606Y-94243735D01*
X102301529Y-94134968D01*
X102296886Y-94132325D01*
X102080175Y-94053663D01*
X102074926Y-94052714D01*
X102074923Y-94052713D01*
X101857392Y-94013377D01*
X101857385Y-94013376D01*
X101853308Y-94012639D01*
X101835586Y-94011803D01*
X101830644Y-94011570D01*
X101830637Y-94011570D01*
X101829156Y-94011500D01*
X101417110Y-94011500D01*
X101350191Y-94017178D01*
X101250591Y-94025629D01*
X101250587Y-94025630D01*
X101245280Y-94026080D01*
X101240125Y-94027418D01*
X101240119Y-94027419D01*
X101027297Y-94082657D01*
X101027293Y-94082658D01*
X101022128Y-94083999D01*
X101017262Y-94086191D01*
X101017259Y-94086192D01*
X100908980Y-94134968D01*
X100811925Y-94178688D01*
X100620681Y-94307441D01*
X100453865Y-94466576D01*
X100316246Y-94651542D01*
X100211760Y-94857051D01*
X100210178Y-94862145D01*
X100210177Y-94862148D01*
X100156775Y-95034131D01*
X100143393Y-95077227D01*
X100142692Y-95082516D01*
X100114935Y-95291946D01*
X100113102Y-95305774D01*
X97028500Y-95305774D01*
X97028500Y-93731475D01*
X130787483Y-93731475D01*
X130806472Y-93948519D01*
X130808375Y-93959312D01*
X130864763Y-94169756D01*
X130868513Y-94180060D01*
X130883220Y-94211599D01*
X130892539Y-94222184D01*
X130898517Y-94220377D01*
X131380085Y-93738808D01*
X131386462Y-93727130D01*
X132812304Y-93727130D01*
X132812436Y-93728966D01*
X132816685Y-93735578D01*
X133296313Y-94215207D01*
X133320272Y-94228290D01*
X133368246Y-94238726D01*
X133418448Y-94288928D01*
X133422054Y-94296061D01*
X133462477Y-94382749D01*
X133593802Y-94570300D01*
X133755700Y-94732198D01*
X133760208Y-94735355D01*
X133760211Y-94735357D01*
X133805812Y-94767287D01*
X133943251Y-94863523D01*
X133948233Y-94865846D01*
X133948238Y-94865849D01*
X134145775Y-94957961D01*
X134150757Y-94960284D01*
X134156065Y-94961706D01*
X134156067Y-94961707D01*
X134366598Y-95018119D01*
X134366600Y-95018119D01*
X134371913Y-95019543D01*
X134600000Y-95039498D01*
X134828087Y-95019543D01*
X134833400Y-95018119D01*
X134833402Y-95018119D01*
X135043933Y-94961707D01*
X135043935Y-94961706D01*
X135049243Y-94960284D01*
X135054225Y-94957961D01*
X135104126Y-94934692D01*
X136684034Y-94934692D01*
X136687776Y-94939691D01*
X136725940Y-94957487D01*
X136736244Y-94961237D01*
X136946688Y-95017625D01*
X136957481Y-95019528D01*
X137174525Y-95038517D01*
X137185475Y-95038517D01*
X137402519Y-95019528D01*
X137413312Y-95017625D01*
X137623756Y-94961237D01*
X137634060Y-94957487D01*
X137665599Y-94942780D01*
X137676184Y-94933461D01*
X137674377Y-94927483D01*
X137192808Y-94445915D01*
X137178870Y-94438304D01*
X137177034Y-94438436D01*
X137170422Y-94442685D01*
X136690793Y-94922313D01*
X136684034Y-94934692D01*
X135104126Y-94934692D01*
X135251762Y-94865849D01*
X135251767Y-94865846D01*
X135256749Y-94863523D01*
X135394188Y-94767287D01*
X135439789Y-94735357D01*
X135439792Y-94735355D01*
X135444300Y-94732198D01*
X135606198Y-94570300D01*
X135737523Y-94382749D01*
X135739846Y-94377767D01*
X135739849Y-94377762D01*
X135786412Y-94277906D01*
X135833329Y-94224621D01*
X135901606Y-94205160D01*
X135937396Y-94215978D01*
X135938137Y-94213379D01*
X135970834Y-94222699D01*
X135978517Y-94220377D01*
X136460085Y-93738808D01*
X136466462Y-93727130D01*
X137892304Y-93727130D01*
X137892436Y-93728966D01*
X137896685Y-93735578D01*
X138376313Y-94215207D01*
X138400272Y-94228290D01*
X138448246Y-94238726D01*
X138498448Y-94288928D01*
X138502054Y-94296061D01*
X138542477Y-94382749D01*
X138673802Y-94570300D01*
X138835700Y-94732198D01*
X138840208Y-94735355D01*
X138840211Y-94735357D01*
X138885812Y-94767287D01*
X139018743Y-94860366D01*
X139022917Y-94863289D01*
X139067245Y-94918746D01*
X139074554Y-94989365D01*
X139042523Y-95052726D01*
X139022917Y-95069715D01*
X138860211Y-95183643D01*
X138860208Y-95183645D01*
X138855700Y-95186802D01*
X138693802Y-95348700D01*
X138690645Y-95353208D01*
X138690643Y-95353211D01*
X138658585Y-95398995D01*
X138562477Y-95536251D01*
X138560154Y-95541233D01*
X138560151Y-95541238D01*
X138481399Y-95710124D01*
X138465716Y-95743757D01*
X138464294Y-95749065D01*
X138464293Y-95749067D01*
X138407881Y-95959598D01*
X138406457Y-95964913D01*
X138386502Y-96193000D01*
X138406457Y-96421087D01*
X138407881Y-96426400D01*
X138407881Y-96426402D01*
X138463117Y-96632542D01*
X138465716Y-96642243D01*
X138468039Y-96647224D01*
X138468039Y-96647225D01*
X138560151Y-96844762D01*
X138560154Y-96844767D01*
X138562477Y-96849749D01*
X138565634Y-96854257D01*
X138690643Y-97032788D01*
X138693802Y-97037300D01*
X138855700Y-97199198D01*
X138860208Y-97202355D01*
X138860211Y-97202357D01*
X138901542Y-97231297D01*
X139043251Y-97330523D01*
X139048233Y-97332846D01*
X139048238Y-97332849D01*
X139245775Y-97424961D01*
X139250757Y-97427284D01*
X139256065Y-97428706D01*
X139256067Y-97428707D01*
X139466598Y-97485119D01*
X139466600Y-97485119D01*
X139471913Y-97486543D01*
X139700000Y-97506498D01*
X139928087Y-97486543D01*
X139933400Y-97485119D01*
X139933402Y-97485119D01*
X140143933Y-97428707D01*
X140143935Y-97428706D01*
X140149243Y-97427284D01*
X140154225Y-97424961D01*
X140351762Y-97332849D01*
X140351767Y-97332846D01*
X140356749Y-97330523D01*
X140498458Y-97231297D01*
X140539789Y-97202357D01*
X140539792Y-97202355D01*
X140544300Y-97199198D01*
X140702364Y-97041134D01*
X157441500Y-97041134D01*
X157448255Y-97103316D01*
X157499385Y-97239705D01*
X157586739Y-97356261D01*
X157703295Y-97443615D01*
X157839684Y-97494745D01*
X157901866Y-97501500D01*
X159598134Y-97501500D01*
X159660316Y-97494745D01*
X159796705Y-97443615D01*
X159913261Y-97356261D01*
X160000615Y-97239705D01*
X160051745Y-97103316D01*
X160058500Y-97041134D01*
X160058500Y-95344866D01*
X160051745Y-95282684D01*
X160000615Y-95146295D01*
X159913261Y-95029739D01*
X159898131Y-95018400D01*
X167316500Y-95018400D01*
X167316837Y-95021646D01*
X167316837Y-95021650D01*
X167323153Y-95082516D01*
X167327474Y-95124166D01*
X167329655Y-95130702D01*
X167329655Y-95130704D01*
X167340591Y-95163482D01*
X167383450Y-95291946D01*
X167476522Y-95442348D01*
X167601697Y-95567305D01*
X167747258Y-95657030D01*
X167747780Y-95657352D01*
X167795273Y-95710124D01*
X167806697Y-95780196D01*
X167778423Y-95845320D01*
X167768636Y-95855782D01*
X167658094Y-95961234D01*
X167651059Y-95969186D01*
X167519859Y-96145525D01*
X167514255Y-96154562D01*
X167414643Y-96350484D01*
X167413598Y-96353057D01*
X167413417Y-96364799D01*
X167420149Y-96368000D01*
X170169520Y-96368000D01*
X170183051Y-96364027D01*
X170183856Y-96358430D01*
X170147732Y-96266958D01*
X170143010Y-96257446D01*
X170028984Y-96069538D01*
X170022720Y-96060948D01*
X169878673Y-95894948D01*
X169871044Y-95887530D01*
X169839431Y-95861609D01*
X169799436Y-95802949D01*
X169797504Y-95731979D01*
X169834248Y-95671230D01*
X169853018Y-95657030D01*
X169856787Y-95654698D01*
X169999348Y-95566478D01*
X170124305Y-95441303D01*
X170128667Y-95434226D01*
X170213275Y-95296968D01*
X170213276Y-95296966D01*
X170217115Y-95290738D01*
X170265011Y-95146335D01*
X170270632Y-95129389D01*
X170270632Y-95129387D01*
X170272797Y-95122861D01*
X170283500Y-95018400D01*
X170283500Y-93717600D01*
X170283043Y-93713192D01*
X170273238Y-93618692D01*
X170273237Y-93618688D01*
X170272526Y-93611834D01*
X170236377Y-93503481D01*
X170218868Y-93451002D01*
X170216550Y-93444054D01*
X170123478Y-93293652D01*
X169998303Y-93168695D01*
X169970765Y-93151720D01*
X169853968Y-93079725D01*
X169853966Y-93079724D01*
X169847738Y-93075885D01*
X169687254Y-93022655D01*
X169686389Y-93022368D01*
X169686387Y-93022368D01*
X169679861Y-93020203D01*
X169673025Y-93019503D01*
X169673022Y-93019502D01*
X169629969Y-93015091D01*
X169575400Y-93009500D01*
X168024600Y-93009500D01*
X168021354Y-93009837D01*
X168021350Y-93009837D01*
X167925692Y-93019762D01*
X167925688Y-93019763D01*
X167918834Y-93020474D01*
X167912298Y-93022655D01*
X167912296Y-93022655D01*
X167786144Y-93064743D01*
X167751054Y-93076450D01*
X167600652Y-93169522D01*
X167475695Y-93294697D01*
X167382885Y-93445262D01*
X167327203Y-93613139D01*
X167316500Y-93717600D01*
X167316500Y-95018400D01*
X159898131Y-95018400D01*
X159796705Y-94942385D01*
X159660316Y-94891255D01*
X159598134Y-94884500D01*
X159286585Y-94884500D01*
X159218464Y-94864498D01*
X159197490Y-94847596D01*
X158762808Y-94412915D01*
X158748870Y-94405304D01*
X158747034Y-94405436D01*
X158740422Y-94409685D01*
X158302510Y-94847596D01*
X158240198Y-94881621D01*
X158213415Y-94884500D01*
X157901866Y-94884500D01*
X157839684Y-94891255D01*
X157703295Y-94942385D01*
X157586739Y-95029739D01*
X157499385Y-95146295D01*
X157448255Y-95282684D01*
X157441500Y-95344866D01*
X157441500Y-97041134D01*
X140702364Y-97041134D01*
X140706198Y-97037300D01*
X140709358Y-97032788D01*
X140834366Y-96854257D01*
X140837523Y-96849749D01*
X140839846Y-96844767D01*
X140839849Y-96844762D01*
X140931961Y-96647225D01*
X140931961Y-96647224D01*
X140934284Y-96642243D01*
X140936884Y-96632542D01*
X140992119Y-96426402D01*
X140992119Y-96426400D01*
X140993543Y-96421087D01*
X141013498Y-96193000D01*
X140993543Y-95964913D01*
X140992119Y-95959598D01*
X140935707Y-95749067D01*
X140935706Y-95749065D01*
X140934284Y-95743757D01*
X140918601Y-95710124D01*
X140839849Y-95541238D01*
X140839846Y-95541233D01*
X140837523Y-95536251D01*
X140741415Y-95398995D01*
X140709357Y-95353211D01*
X140709355Y-95353208D01*
X140706198Y-95348700D01*
X140544300Y-95186802D01*
X140539792Y-95183645D01*
X140539789Y-95183643D01*
X140357083Y-95055711D01*
X140312755Y-95000254D01*
X140305446Y-94929635D01*
X140337477Y-94866274D01*
X140357083Y-94849285D01*
X140519789Y-94735357D01*
X140519792Y-94735355D01*
X140524300Y-94732198D01*
X140682364Y-94574134D01*
X144106500Y-94574134D01*
X144113255Y-94636316D01*
X144164385Y-94772705D01*
X144251739Y-94889261D01*
X144368295Y-94976615D01*
X144504684Y-95027745D01*
X144566866Y-95034500D01*
X146263134Y-95034500D01*
X146325316Y-95027745D01*
X146461705Y-94976615D01*
X146578261Y-94889261D01*
X146665615Y-94772705D01*
X146716745Y-94636316D01*
X146723500Y-94574134D01*
X146723500Y-93698475D01*
X157437483Y-93698475D01*
X157456472Y-93915519D01*
X157458375Y-93926312D01*
X157514763Y-94136756D01*
X157518513Y-94147060D01*
X157533220Y-94178599D01*
X157542539Y-94189184D01*
X157548517Y-94187377D01*
X158030085Y-93705808D01*
X158036462Y-93694130D01*
X159462304Y-93694130D01*
X159462436Y-93695966D01*
X159466685Y-93702578D01*
X159946313Y-94182207D01*
X159958692Y-94188966D01*
X159963691Y-94185224D01*
X159981487Y-94147060D01*
X159985237Y-94136756D01*
X160041625Y-93926312D01*
X160043528Y-93915519D01*
X160062517Y-93698475D01*
X160062517Y-93687525D01*
X160043528Y-93470481D01*
X160041625Y-93459688D01*
X159985237Y-93249244D01*
X159981487Y-93238940D01*
X159966780Y-93207401D01*
X159957461Y-93196816D01*
X159951483Y-93198623D01*
X159469915Y-93680192D01*
X159462304Y-93694130D01*
X158036462Y-93694130D01*
X158037696Y-93691870D01*
X158037564Y-93690034D01*
X158033315Y-93683422D01*
X157553687Y-93203793D01*
X157541308Y-93197034D01*
X157536309Y-93200776D01*
X157518513Y-93238940D01*
X157514763Y-93249244D01*
X157458375Y-93459688D01*
X157456472Y-93470481D01*
X157437483Y-93687525D01*
X157437483Y-93698475D01*
X146723500Y-93698475D01*
X146723500Y-92877866D01*
X146716745Y-92815684D01*
X146665615Y-92679295D01*
X146578261Y-92562739D01*
X146475253Y-92485539D01*
X158253816Y-92485539D01*
X158255623Y-92491517D01*
X158737192Y-92973085D01*
X158751130Y-92980696D01*
X158752966Y-92980564D01*
X158759578Y-92976315D01*
X159239207Y-92496687D01*
X159245966Y-92484308D01*
X159242224Y-92479309D01*
X159204060Y-92461513D01*
X159193756Y-92457763D01*
X158983312Y-92401375D01*
X158972519Y-92399472D01*
X158755475Y-92380483D01*
X158744525Y-92380483D01*
X158527481Y-92399472D01*
X158516688Y-92401375D01*
X158306244Y-92457763D01*
X158295940Y-92461513D01*
X158264401Y-92476220D01*
X158253816Y-92485539D01*
X146475253Y-92485539D01*
X146461705Y-92475385D01*
X146325316Y-92424255D01*
X146263134Y-92417500D01*
X144566866Y-92417500D01*
X144504684Y-92424255D01*
X144368295Y-92475385D01*
X144251739Y-92562739D01*
X144164385Y-92679295D01*
X144113255Y-92815684D01*
X144106500Y-92877866D01*
X144106500Y-94574134D01*
X140682364Y-94574134D01*
X140686198Y-94570300D01*
X140817523Y-94382749D01*
X140819846Y-94377767D01*
X140819849Y-94377762D01*
X140911961Y-94180225D01*
X140911961Y-94180224D01*
X140914284Y-94175243D01*
X140946862Y-94053663D01*
X140972119Y-93959402D01*
X140972119Y-93959400D01*
X140973543Y-93954087D01*
X140993498Y-93726000D01*
X140973543Y-93497913D01*
X140959435Y-93445262D01*
X140915707Y-93282067D01*
X140915706Y-93282065D01*
X140914284Y-93276757D01*
X140877007Y-93196816D01*
X140819849Y-93074238D01*
X140819846Y-93074233D01*
X140817523Y-93069251D01*
X140686198Y-92881700D01*
X140524300Y-92719802D01*
X140519792Y-92716645D01*
X140519789Y-92716643D01*
X140441611Y-92661902D01*
X140336749Y-92588477D01*
X140331767Y-92586154D01*
X140331762Y-92586151D01*
X140134225Y-92494039D01*
X140134224Y-92494039D01*
X140129243Y-92491716D01*
X140123935Y-92490294D01*
X140123933Y-92490293D01*
X139913402Y-92433881D01*
X139913400Y-92433881D01*
X139908087Y-92432457D01*
X139680000Y-92412502D01*
X139451913Y-92432457D01*
X139446600Y-92433881D01*
X139446598Y-92433881D01*
X139236067Y-92490293D01*
X139236065Y-92490294D01*
X139230757Y-92491716D01*
X139225776Y-92494039D01*
X139225775Y-92494039D01*
X139028238Y-92586151D01*
X139028233Y-92586154D01*
X139023251Y-92588477D01*
X138918389Y-92661902D01*
X138840211Y-92716643D01*
X138840208Y-92716645D01*
X138835700Y-92719802D01*
X138673802Y-92881700D01*
X138542477Y-93069251D01*
X138540153Y-93074236D01*
X138540149Y-93074242D01*
X138504021Y-93151720D01*
X138457104Y-93205006D01*
X138423378Y-93214619D01*
X138424580Y-93218597D01*
X138381483Y-93231623D01*
X137899915Y-93713192D01*
X137892304Y-93727130D01*
X136466462Y-93727130D01*
X136467696Y-93724870D01*
X136467564Y-93723034D01*
X136463315Y-93716422D01*
X135983687Y-93236793D01*
X135969744Y-93229180D01*
X135966488Y-93229413D01*
X135911228Y-93250024D01*
X135841853Y-93234932D01*
X135791651Y-93184730D01*
X135788044Y-93177594D01*
X135739851Y-93074242D01*
X135739847Y-93074236D01*
X135737523Y-93069251D01*
X135606198Y-92881700D01*
X135444300Y-92719802D01*
X135439792Y-92716645D01*
X135439789Y-92716643D01*
X135361611Y-92661902D01*
X135256749Y-92588477D01*
X135251767Y-92586154D01*
X135251762Y-92586151D01*
X135106766Y-92518539D01*
X136683816Y-92518539D01*
X136685623Y-92524517D01*
X137167192Y-93006085D01*
X137181130Y-93013696D01*
X137182966Y-93013564D01*
X137189578Y-93009315D01*
X137669207Y-92529687D01*
X137675966Y-92517308D01*
X137672224Y-92512309D01*
X137634060Y-92494513D01*
X137623756Y-92490763D01*
X137413312Y-92434375D01*
X137402519Y-92432472D01*
X137185475Y-92413483D01*
X137174525Y-92413483D01*
X136957481Y-92432472D01*
X136946688Y-92434375D01*
X136736244Y-92490763D01*
X136725940Y-92494513D01*
X136694401Y-92509220D01*
X136683816Y-92518539D01*
X135106766Y-92518539D01*
X135054225Y-92494039D01*
X135054224Y-92494039D01*
X135049243Y-92491716D01*
X135043935Y-92490294D01*
X135043933Y-92490293D01*
X134833402Y-92433881D01*
X134833400Y-92433881D01*
X134828087Y-92432457D01*
X134600000Y-92412502D01*
X134371913Y-92432457D01*
X134366600Y-92433881D01*
X134366598Y-92433881D01*
X134156067Y-92490293D01*
X134156065Y-92490294D01*
X134150757Y-92491716D01*
X134145776Y-92494039D01*
X134145775Y-92494039D01*
X133948238Y-92586151D01*
X133948233Y-92586154D01*
X133943251Y-92588477D01*
X133838389Y-92661902D01*
X133760211Y-92716643D01*
X133760208Y-92716645D01*
X133755700Y-92719802D01*
X133593802Y-92881700D01*
X133462477Y-93069251D01*
X133460153Y-93074236D01*
X133460149Y-93074242D01*
X133424021Y-93151720D01*
X133377104Y-93205006D01*
X133343378Y-93214619D01*
X133344580Y-93218597D01*
X133301483Y-93231623D01*
X132819915Y-93713192D01*
X132812304Y-93727130D01*
X131386462Y-93727130D01*
X131387696Y-93724870D01*
X131387564Y-93723034D01*
X131383315Y-93716422D01*
X130903687Y-93236793D01*
X130891308Y-93230034D01*
X130886309Y-93233776D01*
X130868513Y-93271940D01*
X130864763Y-93282244D01*
X130808375Y-93492688D01*
X130806472Y-93503481D01*
X130787483Y-93720525D01*
X130787483Y-93731475D01*
X97028500Y-93731475D01*
X97028500Y-93058134D01*
X107461500Y-93058134D01*
X107468255Y-93120316D01*
X107519385Y-93256705D01*
X107606739Y-93373261D01*
X107723295Y-93460615D01*
X107859684Y-93511745D01*
X107921866Y-93518500D01*
X111218134Y-93518500D01*
X111280316Y-93511745D01*
X111416705Y-93460615D01*
X111533261Y-93373261D01*
X111620615Y-93256705D01*
X111671745Y-93120316D01*
X111678500Y-93058134D01*
X111678500Y-92518539D01*
X131603816Y-92518539D01*
X131605623Y-92524517D01*
X132087192Y-93006085D01*
X132101130Y-93013696D01*
X132102966Y-93013564D01*
X132109578Y-93009315D01*
X132589207Y-92529687D01*
X132595966Y-92517308D01*
X132592224Y-92512309D01*
X132554060Y-92494513D01*
X132543756Y-92490763D01*
X132333312Y-92434375D01*
X132322519Y-92432472D01*
X132105475Y-92413483D01*
X132094525Y-92413483D01*
X131877481Y-92432472D01*
X131866688Y-92434375D01*
X131656244Y-92490763D01*
X131645940Y-92494513D01*
X131614401Y-92509220D01*
X131603816Y-92518539D01*
X111678500Y-92518539D01*
X111678500Y-89761866D01*
X111671745Y-89699684D01*
X111620615Y-89563295D01*
X111533261Y-89446739D01*
X111416705Y-89359385D01*
X111280316Y-89308255D01*
X111218134Y-89301500D01*
X107921866Y-89301500D01*
X107859684Y-89308255D01*
X107723295Y-89359385D01*
X107606739Y-89446739D01*
X107519385Y-89563295D01*
X107468255Y-89699684D01*
X107461500Y-89761866D01*
X107461500Y-93058134D01*
X97028500Y-93058134D01*
X97028500Y-88678134D01*
X133159000Y-88678134D01*
X133165755Y-88740316D01*
X133216885Y-88876705D01*
X133304239Y-88993261D01*
X133420795Y-89080615D01*
X133557184Y-89131745D01*
X133619366Y-89138500D01*
X135620634Y-89138500D01*
X135682816Y-89131745D01*
X135819205Y-89080615D01*
X135935761Y-88993261D01*
X136023115Y-88876705D01*
X136030758Y-88856317D01*
X136073401Y-88799553D01*
X136139962Y-88774854D01*
X136209311Y-88790062D01*
X136226832Y-88801666D01*
X136344944Y-88894945D01*
X136353531Y-88900650D01*
X136554725Y-89011716D01*
X136564134Y-89015944D01*
X136642924Y-89043845D01*
X136657004Y-89044617D01*
X136660000Y-89038905D01*
X136660000Y-89032575D01*
X137660000Y-89032575D01*
X137663973Y-89046106D01*
X137670955Y-89047110D01*
X137722988Y-89030102D01*
X137732497Y-89026105D01*
X137936344Y-88919989D01*
X137945069Y-88914495D01*
X138128852Y-88776507D01*
X138136559Y-88769664D01*
X138295339Y-88603509D01*
X138301823Y-88595502D01*
X138324237Y-88562644D01*
X138379148Y-88517641D01*
X138449672Y-88509468D01*
X138513420Y-88540722D01*
X138534116Y-88565204D01*
X138538498Y-88571977D01*
X138700186Y-88749670D01*
X138751331Y-88790062D01*
X138884670Y-88895367D01*
X138884675Y-88895370D01*
X138888724Y-88898568D01*
X138893240Y-88901061D01*
X138893243Y-88901063D01*
X139094526Y-89012177D01*
X139094530Y-89012179D01*
X139099050Y-89014674D01*
X139103919Y-89016398D01*
X139103923Y-89016400D01*
X139320640Y-89093144D01*
X139320644Y-89093145D01*
X139325515Y-89094870D01*
X139330608Y-89095777D01*
X139330611Y-89095778D01*
X139556948Y-89136095D01*
X139556954Y-89136096D01*
X139562037Y-89137001D01*
X139649400Y-89138068D01*
X139797093Y-89139873D01*
X139797095Y-89139873D01*
X139802263Y-89139936D01*
X140039744Y-89103596D01*
X140151997Y-89066906D01*
X140263183Y-89030566D01*
X140263189Y-89030563D01*
X140268101Y-89028958D01*
X140272687Y-89026571D01*
X140272691Y-89026569D01*
X140476607Y-88920416D01*
X140481200Y-88918025D01*
X140566467Y-88854005D01*
X140669185Y-88776882D01*
X140669188Y-88776880D01*
X140673320Y-88773777D01*
X140839301Y-88600088D01*
X140948731Y-88439671D01*
X140971774Y-88405891D01*
X140971775Y-88405890D01*
X140974686Y-88401622D01*
X140981361Y-88387243D01*
X141073658Y-88188405D01*
X141073659Y-88188401D01*
X141075837Y-88183710D01*
X141140040Y-87952202D01*
X141141558Y-87938000D01*
X154261502Y-87938000D01*
X154281457Y-88166087D01*
X154282881Y-88171400D01*
X154282881Y-88171402D01*
X154334871Y-88365428D01*
X154340716Y-88387243D01*
X154343039Y-88392224D01*
X154343039Y-88392225D01*
X154435151Y-88589762D01*
X154435154Y-88589767D01*
X154437477Y-88594749D01*
X154443611Y-88603509D01*
X154564746Y-88776507D01*
X154568802Y-88782300D01*
X154730700Y-88944198D01*
X154735208Y-88947355D01*
X154735211Y-88947357D01*
X154735821Y-88947784D01*
X154918251Y-89075523D01*
X154923233Y-89077846D01*
X154923238Y-89077849D01*
X155082238Y-89151991D01*
X155125757Y-89172284D01*
X155131065Y-89173706D01*
X155131067Y-89173707D01*
X155341598Y-89230119D01*
X155341600Y-89230119D01*
X155346913Y-89231543D01*
X155575000Y-89251498D01*
X155803087Y-89231543D01*
X155808400Y-89230119D01*
X155808402Y-89230119D01*
X156018933Y-89173707D01*
X156018935Y-89173706D01*
X156024243Y-89172284D01*
X156067762Y-89151991D01*
X156226762Y-89077849D01*
X156226767Y-89077846D01*
X156231749Y-89075523D01*
X156414179Y-88947784D01*
X156414789Y-88947357D01*
X156414792Y-88947355D01*
X156419300Y-88944198D01*
X156581198Y-88782300D01*
X156585255Y-88776507D01*
X156706389Y-88603509D01*
X156712523Y-88594749D01*
X156714846Y-88589767D01*
X156714849Y-88589762D01*
X156806961Y-88392225D01*
X156806961Y-88392224D01*
X156809284Y-88387243D01*
X156815130Y-88365428D01*
X156867119Y-88171402D01*
X156867119Y-88171400D01*
X156868543Y-88166087D01*
X156888498Y-87938000D01*
X164421502Y-87938000D01*
X164441457Y-88166087D01*
X164442881Y-88171400D01*
X164442881Y-88171402D01*
X164494871Y-88365428D01*
X164500716Y-88387243D01*
X164503039Y-88392224D01*
X164503039Y-88392225D01*
X164595151Y-88589762D01*
X164595154Y-88589767D01*
X164597477Y-88594749D01*
X164603611Y-88603509D01*
X164724746Y-88776507D01*
X164728802Y-88782300D01*
X164890700Y-88944198D01*
X164895208Y-88947355D01*
X164895211Y-88947357D01*
X164895821Y-88947784D01*
X165078251Y-89075523D01*
X165083233Y-89077846D01*
X165083238Y-89077849D01*
X165242238Y-89151991D01*
X165285757Y-89172284D01*
X165291065Y-89173706D01*
X165291067Y-89173707D01*
X165501598Y-89230119D01*
X165501600Y-89230119D01*
X165506913Y-89231543D01*
X165735000Y-89251498D01*
X165963087Y-89231543D01*
X165968400Y-89230119D01*
X165968402Y-89230119D01*
X166178933Y-89173707D01*
X166178935Y-89173706D01*
X166184243Y-89172284D01*
X166227762Y-89151991D01*
X166386762Y-89077849D01*
X166386767Y-89077846D01*
X166391749Y-89075523D01*
X166574179Y-88947784D01*
X166574789Y-88947357D01*
X166574792Y-88947355D01*
X166579300Y-88944198D01*
X166741198Y-88782300D01*
X166745255Y-88776507D01*
X166866389Y-88603509D01*
X166872523Y-88594749D01*
X166874846Y-88589767D01*
X166874849Y-88589762D01*
X166966961Y-88392225D01*
X166966961Y-88392224D01*
X166969284Y-88387243D01*
X166975130Y-88365428D01*
X167027119Y-88171402D01*
X167027119Y-88171400D01*
X167028543Y-88166087D01*
X167048498Y-87938000D01*
X167045477Y-87903469D01*
X167502095Y-87903469D01*
X167502392Y-87908622D01*
X167502392Y-87908625D01*
X167504905Y-87952202D01*
X167515427Y-88134697D01*
X167516564Y-88139743D01*
X167516565Y-88139749D01*
X167538408Y-88236671D01*
X167566346Y-88360642D01*
X167568288Y-88365424D01*
X167568289Y-88365428D01*
X167649410Y-88565204D01*
X167653484Y-88575237D01*
X167774501Y-88772719D01*
X167926147Y-88947784D01*
X168104349Y-89095730D01*
X168304322Y-89212584D01*
X168520694Y-89295209D01*
X168525760Y-89296240D01*
X168525761Y-89296240D01*
X168551615Y-89301500D01*
X168747656Y-89341385D01*
X168878324Y-89346176D01*
X168973949Y-89349683D01*
X168973953Y-89349683D01*
X168979113Y-89349872D01*
X168984233Y-89349216D01*
X168984235Y-89349216D01*
X169083668Y-89336478D01*
X169208847Y-89320442D01*
X169213795Y-89318957D01*
X169213802Y-89318956D01*
X169425747Y-89255369D01*
X169430690Y-89253886D01*
X169435565Y-89251498D01*
X169634049Y-89154262D01*
X169634052Y-89154260D01*
X169638684Y-89151991D01*
X169827243Y-89017494D01*
X169830898Y-89013852D01*
X169830906Y-89013845D01*
X169872697Y-88972199D01*
X169935068Y-88938282D01*
X170005875Y-88943470D01*
X170062637Y-88986116D01*
X170079619Y-89017218D01*
X170101677Y-89076056D01*
X170110214Y-89091649D01*
X170186715Y-89193724D01*
X170199276Y-89206285D01*
X170301351Y-89282786D01*
X170316946Y-89291324D01*
X170437394Y-89336478D01*
X170452649Y-89340105D01*
X170503514Y-89345631D01*
X170510328Y-89346000D01*
X170936885Y-89346000D01*
X170952124Y-89341525D01*
X170953329Y-89340135D01*
X170955000Y-89332452D01*
X170955000Y-89327884D01*
X171955000Y-89327884D01*
X171959475Y-89343123D01*
X171960865Y-89344328D01*
X171968548Y-89345999D01*
X172399669Y-89345999D01*
X172406490Y-89345629D01*
X172457352Y-89340105D01*
X172472604Y-89336479D01*
X172593054Y-89291324D01*
X172608649Y-89282786D01*
X172710724Y-89206285D01*
X172723285Y-89193724D01*
X172799786Y-89091649D01*
X172808324Y-89076054D01*
X172853478Y-88955606D01*
X172857105Y-88940351D01*
X172862631Y-88889486D01*
X172863000Y-88882672D01*
X172863000Y-88456115D01*
X172858525Y-88440876D01*
X172857135Y-88439671D01*
X172849452Y-88438000D01*
X171973115Y-88438000D01*
X171957876Y-88442475D01*
X171956671Y-88443865D01*
X171955000Y-88451548D01*
X171955000Y-89327884D01*
X170955000Y-89327884D01*
X170955000Y-87419885D01*
X171955000Y-87419885D01*
X171959475Y-87435124D01*
X171960865Y-87436329D01*
X171968548Y-87438000D01*
X172844884Y-87438000D01*
X172860123Y-87433525D01*
X172861328Y-87432135D01*
X172862999Y-87424452D01*
X172862999Y-86993331D01*
X172862629Y-86986510D01*
X172857105Y-86935648D01*
X172853479Y-86920396D01*
X172808324Y-86799946D01*
X172799786Y-86784351D01*
X172723285Y-86682276D01*
X172710724Y-86669715D01*
X172608649Y-86593214D01*
X172593054Y-86584676D01*
X172472606Y-86539522D01*
X172457351Y-86535895D01*
X172406486Y-86530369D01*
X172399672Y-86530000D01*
X171973115Y-86530000D01*
X171957876Y-86534475D01*
X171956671Y-86535865D01*
X171955000Y-86543548D01*
X171955000Y-87419885D01*
X170955000Y-87419885D01*
X170955000Y-86548116D01*
X170950525Y-86532877D01*
X170949135Y-86531672D01*
X170941452Y-86530001D01*
X170510331Y-86530001D01*
X170503510Y-86530371D01*
X170452648Y-86535895D01*
X170437396Y-86539521D01*
X170316946Y-86584676D01*
X170301351Y-86593214D01*
X170199276Y-86669715D01*
X170186715Y-86682276D01*
X170110214Y-86784351D01*
X170101675Y-86799948D01*
X170080934Y-86855275D01*
X170038293Y-86912040D01*
X169971731Y-86936740D01*
X169902383Y-86921533D01*
X169879388Y-86904909D01*
X169878887Y-86904358D01*
X169751348Y-86803634D01*
X169701177Y-86764011D01*
X169701172Y-86764008D01*
X169697123Y-86760810D01*
X169692607Y-86758317D01*
X169692604Y-86758315D01*
X169498879Y-86651373D01*
X169498875Y-86651371D01*
X169494355Y-86648876D01*
X169489486Y-86647152D01*
X169489482Y-86647150D01*
X169280903Y-86573288D01*
X169280899Y-86573287D01*
X169276028Y-86571562D01*
X169270935Y-86570655D01*
X169270932Y-86570654D01*
X169053095Y-86531851D01*
X169053089Y-86531850D01*
X169048006Y-86530945D01*
X168970644Y-86530000D01*
X168821581Y-86528179D01*
X168821579Y-86528179D01*
X168816411Y-86528116D01*
X168587464Y-86563150D01*
X168367314Y-86635106D01*
X168362726Y-86637494D01*
X168362722Y-86637496D01*
X168205638Y-86719269D01*
X168161872Y-86742052D01*
X168157739Y-86745155D01*
X168157736Y-86745157D01*
X168011073Y-86855275D01*
X167976655Y-86881117D01*
X167816639Y-87048564D01*
X167813725Y-87052836D01*
X167813724Y-87052837D01*
X167788508Y-87089803D01*
X167686119Y-87239899D01*
X167588602Y-87449981D01*
X167526707Y-87673169D01*
X167502095Y-87903469D01*
X167045477Y-87903469D01*
X167028543Y-87709913D01*
X167020073Y-87678301D01*
X166970707Y-87494067D01*
X166970706Y-87494065D01*
X166969284Y-87488757D01*
X166942881Y-87432135D01*
X166874849Y-87286238D01*
X166874846Y-87286233D01*
X166872523Y-87281251D01*
X166751152Y-87107916D01*
X166744357Y-87098211D01*
X166744355Y-87098208D01*
X166741198Y-87093700D01*
X166579300Y-86931802D01*
X166574792Y-86928645D01*
X166574789Y-86928643D01*
X166470008Y-86855275D01*
X166391749Y-86800477D01*
X166386767Y-86798154D01*
X166386762Y-86798151D01*
X166189225Y-86706039D01*
X166189224Y-86706039D01*
X166184243Y-86703716D01*
X166178935Y-86702294D01*
X166178933Y-86702293D01*
X165968402Y-86645881D01*
X165968400Y-86645881D01*
X165963087Y-86644457D01*
X165735000Y-86624502D01*
X165506913Y-86644457D01*
X165501600Y-86645881D01*
X165501598Y-86645881D01*
X165291067Y-86702293D01*
X165291065Y-86702294D01*
X165285757Y-86703716D01*
X165280776Y-86706039D01*
X165280775Y-86706039D01*
X165083238Y-86798151D01*
X165083233Y-86798154D01*
X165078251Y-86800477D01*
X164999992Y-86855275D01*
X164895211Y-86928643D01*
X164895208Y-86928645D01*
X164890700Y-86931802D01*
X164728802Y-87093700D01*
X164725645Y-87098208D01*
X164725643Y-87098211D01*
X164718848Y-87107916D01*
X164597477Y-87281251D01*
X164595154Y-87286233D01*
X164595151Y-87286238D01*
X164527119Y-87432135D01*
X164500716Y-87488757D01*
X164499294Y-87494065D01*
X164499293Y-87494067D01*
X164449927Y-87678301D01*
X164441457Y-87709913D01*
X164421502Y-87938000D01*
X156888498Y-87938000D01*
X156868543Y-87709913D01*
X156860073Y-87678301D01*
X156810707Y-87494067D01*
X156810706Y-87494065D01*
X156809284Y-87488757D01*
X156782881Y-87432135D01*
X156714849Y-87286238D01*
X156714846Y-87286233D01*
X156712523Y-87281251D01*
X156591152Y-87107916D01*
X156584357Y-87098211D01*
X156584355Y-87098208D01*
X156581198Y-87093700D01*
X156419300Y-86931802D01*
X156414792Y-86928645D01*
X156414789Y-86928643D01*
X156310008Y-86855275D01*
X156231749Y-86800477D01*
X156226767Y-86798154D01*
X156226762Y-86798151D01*
X156029225Y-86706039D01*
X156029224Y-86706039D01*
X156024243Y-86703716D01*
X156018935Y-86702294D01*
X156018933Y-86702293D01*
X155808402Y-86645881D01*
X155808400Y-86645881D01*
X155803087Y-86644457D01*
X155575000Y-86624502D01*
X155346913Y-86644457D01*
X155341600Y-86645881D01*
X155341598Y-86645881D01*
X155131067Y-86702293D01*
X155131065Y-86702294D01*
X155125757Y-86703716D01*
X155120776Y-86706039D01*
X155120775Y-86706039D01*
X154923238Y-86798151D01*
X154923233Y-86798154D01*
X154918251Y-86800477D01*
X154839992Y-86855275D01*
X154735211Y-86928643D01*
X154735208Y-86928645D01*
X154730700Y-86931802D01*
X154568802Y-87093700D01*
X154565645Y-87098208D01*
X154565643Y-87098211D01*
X154558848Y-87107916D01*
X154437477Y-87281251D01*
X154435154Y-87286233D01*
X154435151Y-87286238D01*
X154367119Y-87432135D01*
X154340716Y-87488757D01*
X154339294Y-87494065D01*
X154339293Y-87494067D01*
X154289927Y-87678301D01*
X154281457Y-87709913D01*
X154261502Y-87938000D01*
X141141558Y-87938000D01*
X141161000Y-87756072D01*
X141161000Y-87521598D01*
X141159548Y-87503928D01*
X141146746Y-87348224D01*
X141146322Y-87343063D01*
X141087794Y-87110056D01*
X141016229Y-86945467D01*
X140994057Y-86894474D01*
X140994055Y-86894471D01*
X140991997Y-86889737D01*
X140873157Y-86706039D01*
X140864310Y-86692363D01*
X140864308Y-86692360D01*
X140861502Y-86688023D01*
X140794556Y-86614450D01*
X144208877Y-86614450D01*
X144275586Y-86757511D01*
X144281069Y-86767007D01*
X144406028Y-86945467D01*
X144413084Y-86953875D01*
X144567125Y-87107916D01*
X144575533Y-87114972D01*
X144753993Y-87239931D01*
X144763489Y-87245414D01*
X144898583Y-87308409D01*
X144912523Y-87310526D01*
X144915000Y-87306738D01*
X144915000Y-87297949D01*
X145915000Y-87297949D01*
X145918973Y-87311480D01*
X145923450Y-87312123D01*
X146066511Y-87245414D01*
X146076007Y-87239931D01*
X146254467Y-87114972D01*
X146262875Y-87107916D01*
X146416916Y-86953875D01*
X146423972Y-86945467D01*
X146548931Y-86767007D01*
X146554414Y-86757511D01*
X146617409Y-86622417D01*
X146619526Y-86608477D01*
X146615738Y-86606000D01*
X145933115Y-86606000D01*
X145917876Y-86610475D01*
X145916671Y-86611865D01*
X145915000Y-86619548D01*
X145915000Y-87297949D01*
X144915000Y-87297949D01*
X144915000Y-86624115D01*
X144910525Y-86608876D01*
X144909135Y-86607671D01*
X144901452Y-86606000D01*
X144223051Y-86606000D01*
X144209520Y-86609973D01*
X144208877Y-86614450D01*
X140794556Y-86614450D01*
X140699814Y-86510330D01*
X140583770Y-86418684D01*
X140515330Y-86364633D01*
X140515325Y-86364630D01*
X140511276Y-86361432D01*
X140506760Y-86358939D01*
X140506757Y-86358937D01*
X140305474Y-86247823D01*
X140305470Y-86247821D01*
X140300950Y-86245326D01*
X140296081Y-86243602D01*
X140296077Y-86243600D01*
X140079360Y-86166856D01*
X140079356Y-86166855D01*
X140074485Y-86165130D01*
X140069392Y-86164223D01*
X140069389Y-86164222D01*
X139843052Y-86123905D01*
X139843046Y-86123904D01*
X139837963Y-86122999D01*
X139745474Y-86121869D01*
X139602907Y-86120127D01*
X139602905Y-86120127D01*
X139597737Y-86120064D01*
X139360256Y-86156404D01*
X139248003Y-86193094D01*
X139136817Y-86229434D01*
X139136811Y-86229437D01*
X139131899Y-86231042D01*
X139127313Y-86233429D01*
X139127309Y-86233431D01*
X138923393Y-86339584D01*
X138918800Y-86341975D01*
X138914657Y-86345085D01*
X138914658Y-86345085D01*
X138749867Y-86468814D01*
X138726680Y-86486223D01*
X138723108Y-86489961D01*
X138594538Y-86624502D01*
X138560699Y-86659912D01*
X138535160Y-86697351D01*
X138480249Y-86742352D01*
X138409725Y-86750523D01*
X138345978Y-86719269D01*
X138325284Y-86694790D01*
X138323915Y-86692674D01*
X138317622Y-86684502D01*
X138162950Y-86514520D01*
X138155417Y-86507494D01*
X137975056Y-86365055D01*
X137966469Y-86359350D01*
X137765275Y-86248284D01*
X137755866Y-86244056D01*
X137677076Y-86216155D01*
X137662996Y-86215383D01*
X137660000Y-86221095D01*
X137660000Y-89032575D01*
X136660000Y-89032575D01*
X136660000Y-86227425D01*
X136656027Y-86213894D01*
X136649045Y-86212890D01*
X136597012Y-86229898D01*
X136587503Y-86233895D01*
X136383656Y-86340011D01*
X136374939Y-86345500D01*
X136223901Y-86458902D01*
X136157416Y-86483807D01*
X136088020Y-86468814D01*
X136037747Y-86418684D01*
X136030268Y-86402375D01*
X136023115Y-86383295D01*
X135935761Y-86266739D01*
X135819205Y-86179385D01*
X135682816Y-86128255D01*
X135620634Y-86121500D01*
X133619366Y-86121500D01*
X133557184Y-86128255D01*
X133420795Y-86179385D01*
X133304239Y-86266739D01*
X133216885Y-86383295D01*
X133165755Y-86519684D01*
X133159000Y-86581866D01*
X133159000Y-88678134D01*
X97028500Y-88678134D01*
X97028500Y-85603523D01*
X144210474Y-85603523D01*
X144214262Y-85606000D01*
X144896885Y-85606000D01*
X144912124Y-85601525D01*
X144913329Y-85600135D01*
X144915000Y-85592452D01*
X144915000Y-85587885D01*
X145915000Y-85587885D01*
X145919475Y-85603124D01*
X145920865Y-85604329D01*
X145928548Y-85606000D01*
X146606949Y-85606000D01*
X146620480Y-85602027D01*
X146621123Y-85597550D01*
X146554414Y-85454489D01*
X146548931Y-85444993D01*
X146423972Y-85266533D01*
X146416916Y-85258125D01*
X146262875Y-85104084D01*
X146254467Y-85097028D01*
X146076007Y-84972069D01*
X146066511Y-84966586D01*
X145931417Y-84903591D01*
X145917477Y-84901474D01*
X145915000Y-84905262D01*
X145915000Y-85587885D01*
X144915000Y-85587885D01*
X144915000Y-84914051D01*
X144911027Y-84900520D01*
X144906550Y-84899877D01*
X144763489Y-84966586D01*
X144753993Y-84972069D01*
X144575533Y-85097028D01*
X144567125Y-85104084D01*
X144413084Y-85258125D01*
X144406028Y-85266533D01*
X144281069Y-85444993D01*
X144275586Y-85454489D01*
X144212591Y-85589583D01*
X144210474Y-85603523D01*
X97028500Y-85603523D01*
X97028500Y-83297065D01*
X124860662Y-83297065D01*
X124865128Y-83303031D01*
X125002905Y-83375519D01*
X125011454Y-83379236D01*
X125256327Y-83464749D01*
X125265336Y-83467163D01*
X125520166Y-83515544D01*
X125529423Y-83516598D01*
X125788607Y-83526783D01*
X125797921Y-83526457D01*
X126055753Y-83498220D01*
X126064930Y-83496519D01*
X126315758Y-83430481D01*
X126324574Y-83427445D01*
X126562888Y-83325058D01*
X126571156Y-83320754D01*
X126591267Y-83308309D01*
X126600681Y-83297812D01*
X126600355Y-83297065D01*
X136290662Y-83297065D01*
X136295128Y-83303031D01*
X136432905Y-83375519D01*
X136441454Y-83379236D01*
X136686327Y-83464749D01*
X136695336Y-83467163D01*
X136950166Y-83515544D01*
X136959423Y-83516598D01*
X137218607Y-83526783D01*
X137227921Y-83526457D01*
X137485753Y-83498220D01*
X137494930Y-83496519D01*
X137745758Y-83430481D01*
X137754574Y-83427445D01*
X137992888Y-83325058D01*
X138001156Y-83320754D01*
X138021267Y-83308309D01*
X138030681Y-83297812D01*
X138030355Y-83297065D01*
X147720662Y-83297065D01*
X147725128Y-83303031D01*
X147862905Y-83375519D01*
X147871454Y-83379236D01*
X148116327Y-83464749D01*
X148125336Y-83467163D01*
X148380166Y-83515544D01*
X148389423Y-83516598D01*
X148648607Y-83526783D01*
X148657921Y-83526457D01*
X148915753Y-83498220D01*
X148924930Y-83496519D01*
X149175758Y-83430481D01*
X149184574Y-83427445D01*
X149422888Y-83325058D01*
X149431156Y-83320754D01*
X149451267Y-83308309D01*
X149460681Y-83297812D01*
X149456794Y-83288901D01*
X149025893Y-82858000D01*
X154261502Y-82858000D01*
X154281457Y-83086087D01*
X154282881Y-83091400D01*
X154282881Y-83091402D01*
X154334871Y-83285428D01*
X154340716Y-83307243D01*
X154343039Y-83312224D01*
X154343039Y-83312225D01*
X154435151Y-83509762D01*
X154435154Y-83509767D01*
X154437477Y-83514749D01*
X154487310Y-83585917D01*
X154559012Y-83688318D01*
X154568802Y-83702300D01*
X154730700Y-83864198D01*
X154735208Y-83867355D01*
X154735211Y-83867357D01*
X154735821Y-83867784D01*
X154918251Y-83995523D01*
X154923233Y-83997846D01*
X154923238Y-83997849D01*
X155082238Y-84071991D01*
X155125757Y-84092284D01*
X155131065Y-84093706D01*
X155131067Y-84093707D01*
X155341598Y-84150119D01*
X155341600Y-84150119D01*
X155346913Y-84151543D01*
X155575000Y-84171498D01*
X155803087Y-84151543D01*
X155808400Y-84150119D01*
X155808402Y-84150119D01*
X156018933Y-84093707D01*
X156018935Y-84093706D01*
X156024243Y-84092284D01*
X156067762Y-84071991D01*
X156226762Y-83997849D01*
X156226767Y-83997846D01*
X156231749Y-83995523D01*
X156414179Y-83867784D01*
X156414789Y-83867357D01*
X156414792Y-83867355D01*
X156419300Y-83864198D01*
X156581198Y-83702300D01*
X156590989Y-83688318D01*
X156662690Y-83585917D01*
X156712523Y-83514749D01*
X156714846Y-83509767D01*
X156714849Y-83509762D01*
X156806961Y-83312225D01*
X156806961Y-83312224D01*
X156809284Y-83307243D01*
X156815130Y-83285428D01*
X156867119Y-83091402D01*
X156867119Y-83091400D01*
X156868543Y-83086087D01*
X156888498Y-82858000D01*
X164421502Y-82858000D01*
X164441457Y-83086087D01*
X164442881Y-83091400D01*
X164442881Y-83091402D01*
X164494871Y-83285428D01*
X164500716Y-83307243D01*
X164503039Y-83312224D01*
X164503039Y-83312225D01*
X164595151Y-83509762D01*
X164595154Y-83509767D01*
X164597477Y-83514749D01*
X164647310Y-83585917D01*
X164719012Y-83688318D01*
X164728802Y-83702300D01*
X164890700Y-83864198D01*
X164895208Y-83867355D01*
X164895211Y-83867357D01*
X164895821Y-83867784D01*
X165078251Y-83995523D01*
X165083233Y-83997846D01*
X165083238Y-83997849D01*
X165242238Y-84071991D01*
X165285757Y-84092284D01*
X165291065Y-84093706D01*
X165291067Y-84093707D01*
X165501598Y-84150119D01*
X165501600Y-84150119D01*
X165506913Y-84151543D01*
X165735000Y-84171498D01*
X165963087Y-84151543D01*
X165968400Y-84150119D01*
X165968402Y-84150119D01*
X166178933Y-84093707D01*
X166178935Y-84093706D01*
X166184243Y-84092284D01*
X166227762Y-84071991D01*
X166386762Y-83997849D01*
X166386767Y-83997846D01*
X166391749Y-83995523D01*
X166574179Y-83867784D01*
X166574789Y-83867357D01*
X166574792Y-83867355D01*
X166579300Y-83864198D01*
X166741198Y-83702300D01*
X166750989Y-83688318D01*
X166822690Y-83585917D01*
X166872523Y-83514749D01*
X166874846Y-83509767D01*
X166874849Y-83509762D01*
X166966961Y-83312225D01*
X166966961Y-83312224D01*
X166969284Y-83307243D01*
X166975130Y-83285428D01*
X167027119Y-83091402D01*
X167027119Y-83091400D01*
X167028543Y-83086087D01*
X167048498Y-82858000D01*
X167045477Y-82823469D01*
X167522095Y-82823469D01*
X167522392Y-82828622D01*
X167522392Y-82828625D01*
X167527962Y-82925229D01*
X167535427Y-83054697D01*
X167536564Y-83059743D01*
X167536565Y-83059749D01*
X167558408Y-83156671D01*
X167586346Y-83280642D01*
X167588288Y-83285424D01*
X167588289Y-83285428D01*
X167647189Y-83430481D01*
X167673484Y-83495237D01*
X167794501Y-83692719D01*
X167946147Y-83867784D01*
X168124349Y-84015730D01*
X168324322Y-84132584D01*
X168540694Y-84215209D01*
X168545760Y-84216240D01*
X168545761Y-84216240D01*
X168598846Y-84227040D01*
X168767656Y-84261385D01*
X168898324Y-84266176D01*
X168993949Y-84269683D01*
X168993953Y-84269683D01*
X168999113Y-84269872D01*
X169004233Y-84269216D01*
X169004235Y-84269216D01*
X169103668Y-84256478D01*
X169228847Y-84240442D01*
X169233795Y-84238957D01*
X169233802Y-84238956D01*
X169445747Y-84175369D01*
X169450690Y-84173886D01*
X169455565Y-84171498D01*
X169654049Y-84074262D01*
X169654052Y-84074260D01*
X169658684Y-84071991D01*
X169847243Y-83937494D01*
X169850898Y-83933852D01*
X169850906Y-83933845D01*
X169892697Y-83892199D01*
X169955068Y-83858282D01*
X170025875Y-83863470D01*
X170082637Y-83906116D01*
X170099619Y-83937218D01*
X170121677Y-83996056D01*
X170130214Y-84011649D01*
X170206715Y-84113724D01*
X170219276Y-84126285D01*
X170321351Y-84202786D01*
X170336946Y-84211324D01*
X170457394Y-84256478D01*
X170472649Y-84260105D01*
X170523514Y-84265631D01*
X170530328Y-84266000D01*
X170956885Y-84266000D01*
X170972124Y-84261525D01*
X170973329Y-84260135D01*
X170975000Y-84252452D01*
X170975000Y-84247884D01*
X171975000Y-84247884D01*
X171979475Y-84263123D01*
X171980865Y-84264328D01*
X171988548Y-84265999D01*
X172419669Y-84265999D01*
X172426490Y-84265629D01*
X172477352Y-84260105D01*
X172492604Y-84256479D01*
X172613054Y-84211324D01*
X172628649Y-84202786D01*
X172730724Y-84126285D01*
X172743285Y-84113724D01*
X172819786Y-84011649D01*
X172828324Y-83996054D01*
X172873478Y-83875606D01*
X172877105Y-83860351D01*
X172882631Y-83809486D01*
X172883000Y-83802672D01*
X172883000Y-83376115D01*
X172878525Y-83360876D01*
X172877135Y-83359671D01*
X172869452Y-83358000D01*
X171993115Y-83358000D01*
X171977876Y-83362475D01*
X171976671Y-83363865D01*
X171975000Y-83371548D01*
X171975000Y-84247884D01*
X170975000Y-84247884D01*
X170975000Y-82339885D01*
X171975000Y-82339885D01*
X171979475Y-82355124D01*
X171980865Y-82356329D01*
X171988548Y-82358000D01*
X172864884Y-82358000D01*
X172880123Y-82353525D01*
X172881328Y-82352135D01*
X172882999Y-82344452D01*
X172882999Y-81913331D01*
X172882629Y-81906510D01*
X172877105Y-81855648D01*
X172873479Y-81840396D01*
X172828324Y-81719946D01*
X172819786Y-81704351D01*
X172743285Y-81602276D01*
X172730724Y-81589715D01*
X172628649Y-81513214D01*
X172613054Y-81504676D01*
X172492606Y-81459522D01*
X172477351Y-81455895D01*
X172426486Y-81450369D01*
X172419672Y-81450000D01*
X171993115Y-81450000D01*
X171977876Y-81454475D01*
X171976671Y-81455865D01*
X171975000Y-81463548D01*
X171975000Y-82339885D01*
X170975000Y-82339885D01*
X170975000Y-81468116D01*
X170970525Y-81452877D01*
X170969135Y-81451672D01*
X170961452Y-81450001D01*
X170530331Y-81450001D01*
X170523510Y-81450371D01*
X170472648Y-81455895D01*
X170457396Y-81459521D01*
X170336946Y-81504676D01*
X170321351Y-81513214D01*
X170219276Y-81589715D01*
X170206715Y-81602276D01*
X170130214Y-81704351D01*
X170121675Y-81719948D01*
X170100934Y-81775275D01*
X170058293Y-81832040D01*
X169991731Y-81856740D01*
X169922383Y-81841533D01*
X169899388Y-81824909D01*
X169898887Y-81824358D01*
X169836737Y-81775275D01*
X169721177Y-81684011D01*
X169721172Y-81684008D01*
X169717123Y-81680810D01*
X169712607Y-81678317D01*
X169712604Y-81678315D01*
X169518879Y-81571373D01*
X169518875Y-81571371D01*
X169514355Y-81568876D01*
X169509486Y-81567152D01*
X169509482Y-81567150D01*
X169300903Y-81493288D01*
X169300899Y-81493287D01*
X169296028Y-81491562D01*
X169290935Y-81490655D01*
X169290932Y-81490654D01*
X169073095Y-81451851D01*
X169073089Y-81451850D01*
X169068006Y-81450945D01*
X168990644Y-81450000D01*
X168841581Y-81448179D01*
X168841579Y-81448179D01*
X168836411Y-81448116D01*
X168607464Y-81483150D01*
X168387314Y-81555106D01*
X168382726Y-81557494D01*
X168382722Y-81557496D01*
X168186461Y-81659663D01*
X168181872Y-81662052D01*
X168177739Y-81665155D01*
X168177736Y-81665157D01*
X168031073Y-81775275D01*
X167996655Y-81801117D01*
X167836639Y-81968564D01*
X167706119Y-82159899D01*
X167608602Y-82369981D01*
X167546707Y-82593169D01*
X167522095Y-82823469D01*
X167045477Y-82823469D01*
X167028543Y-82629913D01*
X167019916Y-82597715D01*
X166970707Y-82414067D01*
X166970706Y-82414065D01*
X166969284Y-82408757D01*
X166942881Y-82352135D01*
X166874849Y-82206238D01*
X166874846Y-82206233D01*
X166872523Y-82201251D01*
X166799098Y-82096389D01*
X166744357Y-82018211D01*
X166744355Y-82018208D01*
X166741198Y-82013700D01*
X166579300Y-81851802D01*
X166574792Y-81848645D01*
X166574789Y-81848643D01*
X166402224Y-81727812D01*
X166391749Y-81720477D01*
X166386767Y-81718154D01*
X166386762Y-81718151D01*
X166189225Y-81626039D01*
X166189224Y-81626039D01*
X166184243Y-81623716D01*
X166178935Y-81622294D01*
X166178933Y-81622293D01*
X165968402Y-81565881D01*
X165968400Y-81565881D01*
X165963087Y-81564457D01*
X165735000Y-81544502D01*
X165506913Y-81564457D01*
X165501600Y-81565881D01*
X165501598Y-81565881D01*
X165291067Y-81622293D01*
X165291065Y-81622294D01*
X165285757Y-81623716D01*
X165280776Y-81626039D01*
X165280775Y-81626039D01*
X165083238Y-81718151D01*
X165083233Y-81718154D01*
X165078251Y-81720477D01*
X165067776Y-81727812D01*
X164895211Y-81848643D01*
X164895208Y-81848645D01*
X164890700Y-81851802D01*
X164728802Y-82013700D01*
X164725645Y-82018208D01*
X164725643Y-82018211D01*
X164670902Y-82096389D01*
X164597477Y-82201251D01*
X164595154Y-82206233D01*
X164595151Y-82206238D01*
X164527119Y-82352135D01*
X164500716Y-82408757D01*
X164499294Y-82414065D01*
X164499293Y-82414067D01*
X164450084Y-82597715D01*
X164441457Y-82629913D01*
X164421502Y-82858000D01*
X156888498Y-82858000D01*
X156868543Y-82629913D01*
X156859916Y-82597715D01*
X156810707Y-82414067D01*
X156810706Y-82414065D01*
X156809284Y-82408757D01*
X156782881Y-82352135D01*
X156714849Y-82206238D01*
X156714846Y-82206233D01*
X156712523Y-82201251D01*
X156639098Y-82096389D01*
X156584357Y-82018211D01*
X156584355Y-82018208D01*
X156581198Y-82013700D01*
X156419300Y-81851802D01*
X156414792Y-81848645D01*
X156414789Y-81848643D01*
X156242224Y-81727812D01*
X156231749Y-81720477D01*
X156226767Y-81718154D01*
X156226762Y-81718151D01*
X156029225Y-81626039D01*
X156029224Y-81626039D01*
X156024243Y-81623716D01*
X156018935Y-81622294D01*
X156018933Y-81622293D01*
X155808402Y-81565881D01*
X155808400Y-81565881D01*
X155803087Y-81564457D01*
X155575000Y-81544502D01*
X155346913Y-81564457D01*
X155341600Y-81565881D01*
X155341598Y-81565881D01*
X155131067Y-81622293D01*
X155131065Y-81622294D01*
X155125757Y-81623716D01*
X155120776Y-81626039D01*
X155120775Y-81626039D01*
X154923238Y-81718151D01*
X154923233Y-81718154D01*
X154918251Y-81720477D01*
X154907776Y-81727812D01*
X154735211Y-81848643D01*
X154735208Y-81848645D01*
X154730700Y-81851802D01*
X154568802Y-82013700D01*
X154565645Y-82018208D01*
X154565643Y-82018211D01*
X154510902Y-82096389D01*
X154437477Y-82201251D01*
X154435154Y-82206233D01*
X154435151Y-82206238D01*
X154367119Y-82352135D01*
X154340716Y-82408757D01*
X154339294Y-82414065D01*
X154339293Y-82414067D01*
X154290084Y-82597715D01*
X154281457Y-82629913D01*
X154261502Y-82858000D01*
X149025893Y-82858000D01*
X148602812Y-82434919D01*
X148588868Y-82427305D01*
X148587035Y-82427436D01*
X148580420Y-82431687D01*
X147727422Y-83284685D01*
X147720662Y-83297065D01*
X138030355Y-83297065D01*
X138026794Y-83288901D01*
X137172812Y-82434919D01*
X137158868Y-82427305D01*
X137157035Y-82427436D01*
X137150420Y-82431687D01*
X136297422Y-83284685D01*
X136290662Y-83297065D01*
X126600355Y-83297065D01*
X126596794Y-83288901D01*
X125742812Y-82434919D01*
X125728868Y-82427305D01*
X125727035Y-82427436D01*
X125720420Y-82431687D01*
X124867422Y-83284685D01*
X124860662Y-83297065D01*
X97028500Y-83297065D01*
X97028500Y-82528134D01*
X107511500Y-82528134D01*
X107518255Y-82590316D01*
X107569385Y-82726705D01*
X107656739Y-82843261D01*
X107773295Y-82930615D01*
X107909684Y-82981745D01*
X107971866Y-82988500D01*
X110468134Y-82988500D01*
X110530316Y-82981745D01*
X110666705Y-82930615D01*
X110783261Y-82843261D01*
X110870615Y-82726705D01*
X110921745Y-82590316D01*
X110928500Y-82528134D01*
X110928500Y-81672211D01*
X123917775Y-81672211D01*
X123930220Y-81931288D01*
X123931356Y-81940543D01*
X123981961Y-82194945D01*
X123984449Y-82203917D01*
X124072095Y-82448033D01*
X124075895Y-82456568D01*
X124139121Y-82574238D01*
X124149026Y-82584277D01*
X124156258Y-82581635D01*
X125010081Y-81727812D01*
X125016459Y-81716132D01*
X126442305Y-81716132D01*
X126442436Y-81717965D01*
X126446687Y-81724580D01*
X127302275Y-82580168D01*
X127314655Y-82586928D01*
X127322426Y-82581111D01*
X127325279Y-82575855D01*
X127431807Y-82339370D01*
X127434997Y-82330605D01*
X127505402Y-82080972D01*
X127507262Y-82071830D01*
X127540187Y-81813019D01*
X127540668Y-81806733D01*
X127542987Y-81718160D01*
X127542836Y-81711851D01*
X127539890Y-81672211D01*
X135347775Y-81672211D01*
X135360220Y-81931288D01*
X135361356Y-81940543D01*
X135411961Y-82194945D01*
X135414449Y-82203917D01*
X135502095Y-82448033D01*
X135505895Y-82456568D01*
X135569121Y-82574238D01*
X135579026Y-82584277D01*
X135586258Y-82581635D01*
X136440081Y-81727812D01*
X136446459Y-81716132D01*
X137872305Y-81716132D01*
X137872436Y-81717965D01*
X137876687Y-81724580D01*
X138732275Y-82580168D01*
X138744655Y-82586928D01*
X138752426Y-82581111D01*
X138755279Y-82575855D01*
X138861807Y-82339370D01*
X138864997Y-82330605D01*
X138935402Y-82080972D01*
X138937262Y-82071830D01*
X138970187Y-81813019D01*
X138970668Y-81806733D01*
X138972987Y-81718160D01*
X138972836Y-81711851D01*
X138969890Y-81672211D01*
X146777775Y-81672211D01*
X146790220Y-81931288D01*
X146791356Y-81940543D01*
X146841961Y-82194945D01*
X146844449Y-82203917D01*
X146932095Y-82448033D01*
X146935895Y-82456568D01*
X146999121Y-82574238D01*
X147009026Y-82584277D01*
X147016258Y-82581635D01*
X147870081Y-81727812D01*
X147876459Y-81716132D01*
X149302305Y-81716132D01*
X149302436Y-81717965D01*
X149306687Y-81724580D01*
X150162275Y-82580168D01*
X150174655Y-82586928D01*
X150182426Y-82581111D01*
X150185279Y-82575855D01*
X150291807Y-82339370D01*
X150294997Y-82330605D01*
X150365402Y-82080972D01*
X150367262Y-82071830D01*
X150400187Y-81813019D01*
X150400668Y-81806733D01*
X150402987Y-81718160D01*
X150402836Y-81711851D01*
X150383501Y-81451663D01*
X150382125Y-81442457D01*
X150324878Y-81189467D01*
X150322154Y-81180556D01*
X150228145Y-80938811D01*
X150224131Y-80930395D01*
X150181325Y-80855502D01*
X150171160Y-80845725D01*
X150163259Y-80848848D01*
X149309919Y-81702188D01*
X149302305Y-81716132D01*
X147876459Y-81716132D01*
X147877695Y-81713868D01*
X147877564Y-81712035D01*
X147873313Y-81705420D01*
X147019543Y-80851650D01*
X147007163Y-80844890D01*
X146999642Y-80850520D01*
X146976971Y-80887882D01*
X146972733Y-80896199D01*
X146872432Y-81135389D01*
X146869471Y-81144239D01*
X146805628Y-81395625D01*
X146804006Y-81404822D01*
X146778020Y-81662885D01*
X146777775Y-81672211D01*
X138969890Y-81672211D01*
X138953501Y-81451663D01*
X138952125Y-81442457D01*
X138894878Y-81189467D01*
X138892154Y-81180556D01*
X138798145Y-80938811D01*
X138794131Y-80930395D01*
X138751325Y-80855502D01*
X138741160Y-80845725D01*
X138733259Y-80848848D01*
X137879919Y-81702188D01*
X137872305Y-81716132D01*
X136446459Y-81716132D01*
X136447695Y-81713868D01*
X136447564Y-81712035D01*
X136443313Y-81705420D01*
X135589543Y-80851650D01*
X135577163Y-80844890D01*
X135569642Y-80850520D01*
X135546971Y-80887882D01*
X135542733Y-80896199D01*
X135442432Y-81135389D01*
X135439471Y-81144239D01*
X135375628Y-81395625D01*
X135374006Y-81404822D01*
X135348020Y-81662885D01*
X135347775Y-81672211D01*
X127539890Y-81672211D01*
X127523501Y-81451663D01*
X127522125Y-81442457D01*
X127464878Y-81189467D01*
X127462154Y-81180556D01*
X127368145Y-80938811D01*
X127364131Y-80930395D01*
X127321325Y-80855502D01*
X127311160Y-80845725D01*
X127303259Y-80848848D01*
X126449919Y-81702188D01*
X126442305Y-81716132D01*
X125016459Y-81716132D01*
X125017695Y-81713868D01*
X125017564Y-81712035D01*
X125013313Y-81705420D01*
X124159543Y-80851650D01*
X124147163Y-80844890D01*
X124139642Y-80850520D01*
X124116971Y-80887882D01*
X124112733Y-80896199D01*
X124012432Y-81135389D01*
X124009471Y-81144239D01*
X123945628Y-81395625D01*
X123944006Y-81404822D01*
X123918020Y-81662885D01*
X123917775Y-81672211D01*
X110928500Y-81672211D01*
X110928500Y-80130829D01*
X124857076Y-80130829D01*
X124858829Y-80136722D01*
X125717188Y-80995081D01*
X125731132Y-81002695D01*
X125732965Y-81002564D01*
X125739580Y-80998313D01*
X126593781Y-80144112D01*
X126600541Y-80131732D01*
X126599865Y-80130829D01*
X136287076Y-80130829D01*
X136288829Y-80136722D01*
X137147188Y-80995081D01*
X137161132Y-81002695D01*
X137162965Y-81002564D01*
X137169580Y-80998313D01*
X138023781Y-80144112D01*
X138030541Y-80131732D01*
X138029865Y-80130829D01*
X147717076Y-80130829D01*
X147718829Y-80136722D01*
X148577188Y-80995081D01*
X148591132Y-81002695D01*
X148592965Y-81002564D01*
X148599580Y-80998313D01*
X149453781Y-80144112D01*
X149460541Y-80131732D01*
X149456487Y-80126316D01*
X149273376Y-80036016D01*
X149264743Y-80032528D01*
X149017703Y-79953450D01*
X149008643Y-79951274D01*
X148752630Y-79909580D01*
X148743343Y-79908768D01*
X148483992Y-79905373D01*
X148474681Y-79905943D01*
X148217682Y-79940919D01*
X148208546Y-79942860D01*
X147959543Y-80015439D01*
X147950800Y-80018707D01*
X147727700Y-80121557D01*
X147717076Y-80130829D01*
X138029865Y-80130829D01*
X138026487Y-80126316D01*
X137843376Y-80036016D01*
X137834743Y-80032528D01*
X137587703Y-79953450D01*
X137578643Y-79951274D01*
X137322630Y-79909580D01*
X137313343Y-79908768D01*
X137053992Y-79905373D01*
X137044681Y-79905943D01*
X136787682Y-79940919D01*
X136778546Y-79942860D01*
X136529543Y-80015439D01*
X136520800Y-80018707D01*
X136297700Y-80121557D01*
X136287076Y-80130829D01*
X126599865Y-80130829D01*
X126596487Y-80126316D01*
X126413376Y-80036016D01*
X126404743Y-80032528D01*
X126157703Y-79953450D01*
X126148643Y-79951274D01*
X125892630Y-79909580D01*
X125883343Y-79908768D01*
X125623992Y-79905373D01*
X125614681Y-79905943D01*
X125357682Y-79940919D01*
X125348546Y-79942860D01*
X125099543Y-80015439D01*
X125090800Y-80018707D01*
X124867700Y-80121557D01*
X124857076Y-80130829D01*
X110928500Y-80130829D01*
X110928500Y-80031866D01*
X110921745Y-79969684D01*
X110870615Y-79833295D01*
X110783261Y-79716739D01*
X110666705Y-79629385D01*
X110530316Y-79578255D01*
X110468134Y-79571500D01*
X107971866Y-79571500D01*
X107909684Y-79578255D01*
X107773295Y-79629385D01*
X107656739Y-79716739D01*
X107569385Y-79833295D01*
X107518255Y-79969684D01*
X107511500Y-80031866D01*
X107511500Y-82528134D01*
X97028500Y-82528134D01*
X97028500Y-77184804D01*
X97033689Y-77149018D01*
X97045059Y-77110634D01*
X159829000Y-77110634D01*
X159835755Y-77172816D01*
X159886885Y-77309205D01*
X159974239Y-77425761D01*
X160090795Y-77513115D01*
X160227184Y-77564245D01*
X160289366Y-77571000D01*
X162290634Y-77571000D01*
X162352816Y-77564245D01*
X162489205Y-77513115D01*
X162605761Y-77425761D01*
X162693115Y-77309205D01*
X162700758Y-77288817D01*
X162743401Y-77232053D01*
X162809962Y-77207354D01*
X162879311Y-77222562D01*
X162896832Y-77234166D01*
X163014944Y-77327445D01*
X163023531Y-77333150D01*
X163224725Y-77444216D01*
X163234134Y-77448444D01*
X163312924Y-77476345D01*
X163327004Y-77477117D01*
X163330000Y-77471405D01*
X163330000Y-77465075D01*
X164330000Y-77465075D01*
X164333973Y-77478606D01*
X164340955Y-77479610D01*
X164392988Y-77462602D01*
X164402497Y-77458605D01*
X164606344Y-77352489D01*
X164615069Y-77346995D01*
X164798852Y-77209007D01*
X164806559Y-77202164D01*
X164965339Y-77036009D01*
X164971823Y-77028002D01*
X164994237Y-76995144D01*
X165049148Y-76950141D01*
X165119672Y-76941968D01*
X165183420Y-76973222D01*
X165204116Y-76997704D01*
X165208498Y-77004477D01*
X165370186Y-77182170D01*
X165421331Y-77222562D01*
X165554670Y-77327867D01*
X165554675Y-77327870D01*
X165558724Y-77331068D01*
X165563240Y-77333561D01*
X165563243Y-77333563D01*
X165764526Y-77444677D01*
X165764530Y-77444679D01*
X165769050Y-77447174D01*
X165773919Y-77448898D01*
X165773923Y-77448900D01*
X165990640Y-77525644D01*
X165990644Y-77525645D01*
X165995515Y-77527370D01*
X166000608Y-77528277D01*
X166000611Y-77528278D01*
X166226948Y-77568595D01*
X166226954Y-77568596D01*
X166232037Y-77569501D01*
X166319400Y-77570568D01*
X166467093Y-77572373D01*
X166467095Y-77572373D01*
X166472263Y-77572436D01*
X166709744Y-77536096D01*
X166821997Y-77499406D01*
X166933183Y-77463066D01*
X166933189Y-77463063D01*
X166938101Y-77461458D01*
X166942687Y-77459071D01*
X166942691Y-77459069D01*
X167146607Y-77352916D01*
X167151200Y-77350525D01*
X167233387Y-77288817D01*
X167339185Y-77209382D01*
X167339188Y-77209380D01*
X167343320Y-77206277D01*
X167509301Y-77032588D01*
X167644686Y-76834122D01*
X167659243Y-76802763D01*
X167743658Y-76620905D01*
X167743659Y-76620901D01*
X167745837Y-76616210D01*
X167810040Y-76384702D01*
X167831000Y-76188572D01*
X167831000Y-75954098D01*
X167829548Y-75936428D01*
X167816746Y-75780724D01*
X167816322Y-75775563D01*
X167757794Y-75542556D01*
X167675057Y-75352272D01*
X167664057Y-75326974D01*
X167664055Y-75326971D01*
X167661997Y-75322237D01*
X167531502Y-75120523D01*
X167369814Y-74942830D01*
X167253770Y-74851184D01*
X167185330Y-74797133D01*
X167185325Y-74797130D01*
X167181276Y-74793932D01*
X167176760Y-74791439D01*
X167176757Y-74791437D01*
X166975474Y-74680323D01*
X166975470Y-74680321D01*
X166970950Y-74677826D01*
X166966081Y-74676102D01*
X166966077Y-74676100D01*
X166749360Y-74599356D01*
X166749356Y-74599355D01*
X166744485Y-74597630D01*
X166739392Y-74596723D01*
X166739389Y-74596722D01*
X166513052Y-74556405D01*
X166513046Y-74556404D01*
X166507963Y-74555499D01*
X166415474Y-74554369D01*
X166272907Y-74552627D01*
X166272905Y-74552627D01*
X166267737Y-74552564D01*
X166030256Y-74588904D01*
X165918003Y-74625594D01*
X165806817Y-74661934D01*
X165806811Y-74661937D01*
X165801899Y-74663542D01*
X165797313Y-74665929D01*
X165797309Y-74665931D01*
X165593393Y-74772084D01*
X165588800Y-74774475D01*
X165584657Y-74777585D01*
X165584658Y-74777585D01*
X165419867Y-74901314D01*
X165396680Y-74918723D01*
X165230699Y-75092412D01*
X165205160Y-75129851D01*
X165150249Y-75174852D01*
X165079725Y-75183023D01*
X165015978Y-75151769D01*
X164995284Y-75127290D01*
X164993915Y-75125174D01*
X164987622Y-75117002D01*
X164832950Y-74947020D01*
X164825417Y-74939994D01*
X164645056Y-74797555D01*
X164636469Y-74791850D01*
X164435275Y-74680784D01*
X164425866Y-74676556D01*
X164347076Y-74648655D01*
X164332996Y-74647883D01*
X164330000Y-74653595D01*
X164330000Y-77465075D01*
X163330000Y-77465075D01*
X163330000Y-74659925D01*
X163326027Y-74646394D01*
X163319045Y-74645390D01*
X163267012Y-74662398D01*
X163257503Y-74666395D01*
X163053656Y-74772511D01*
X163044939Y-74778000D01*
X162893901Y-74891402D01*
X162827416Y-74916307D01*
X162758020Y-74901314D01*
X162707747Y-74851184D01*
X162700268Y-74834875D01*
X162693115Y-74815795D01*
X162605761Y-74699239D01*
X162489205Y-74611885D01*
X162352816Y-74560755D01*
X162290634Y-74554000D01*
X160289366Y-74554000D01*
X160227184Y-74560755D01*
X160090795Y-74611885D01*
X159974239Y-74699239D01*
X159886885Y-74815795D01*
X159835755Y-74952184D01*
X159829000Y-75014366D01*
X159829000Y-77110634D01*
X97045059Y-77110634D01*
X97253212Y-76407918D01*
X97255250Y-76401644D01*
X97515194Y-75667588D01*
X97517558Y-75661430D01*
X97672229Y-75288020D01*
X108424707Y-75288020D01*
X108429173Y-75293986D01*
X108532892Y-75348555D01*
X108541441Y-75352272D01*
X108772282Y-75432885D01*
X108781291Y-75435299D01*
X109021518Y-75480908D01*
X109030775Y-75481962D01*
X109275107Y-75491563D01*
X109284420Y-75491237D01*
X109527478Y-75464618D01*
X109536655Y-75462917D01*
X109773107Y-75400665D01*
X109781926Y-75397628D01*
X110006582Y-75301108D01*
X110009648Y-75299512D01*
X110018033Y-75290163D01*
X110014146Y-75281253D01*
X109232812Y-74499919D01*
X109218868Y-74492305D01*
X109217035Y-74492436D01*
X109210420Y-74496687D01*
X108431467Y-75275640D01*
X108424707Y-75288020D01*
X97672229Y-75288020D01*
X97815556Y-74941997D01*
X97818239Y-74935971D01*
X98153482Y-74233121D01*
X98156477Y-74227243D01*
X98421118Y-73739835D01*
X107508022Y-73739835D01*
X107519754Y-73984064D01*
X107520891Y-73993324D01*
X107568593Y-74233143D01*
X107571082Y-74242118D01*
X107653708Y-74472250D01*
X107657503Y-74480775D01*
X107702969Y-74565391D01*
X107712873Y-74575429D01*
X107720106Y-74572787D01*
X108500081Y-73792812D01*
X108506459Y-73781132D01*
X109932305Y-73781132D01*
X109932436Y-73782965D01*
X109936687Y-73789580D01*
X110718364Y-74571257D01*
X110730744Y-74578017D01*
X110735509Y-74574450D01*
X110827572Y-74370076D01*
X110830766Y-74361301D01*
X110897135Y-74125973D01*
X110898993Y-74116844D01*
X110930044Y-73872770D01*
X110930525Y-73866483D01*
X110932706Y-73783160D01*
X110932555Y-73776851D01*
X110914321Y-73531486D01*
X110912944Y-73522280D01*
X110858979Y-73283786D01*
X110856255Y-73274875D01*
X110767631Y-73046978D01*
X110763620Y-73038569D01*
X110738029Y-72993795D01*
X110727865Y-72984019D01*
X110719966Y-72987141D01*
X109939919Y-73767188D01*
X109932305Y-73781132D01*
X108506459Y-73781132D01*
X108507695Y-73778868D01*
X108507564Y-73777035D01*
X108503313Y-73770420D01*
X107722344Y-72989451D01*
X107709964Y-72982691D01*
X107702443Y-72988321D01*
X107696322Y-72998409D01*
X107692084Y-73006726D01*
X107597529Y-73232214D01*
X107594572Y-73241052D01*
X107534384Y-73478042D01*
X107532763Y-73487232D01*
X107508267Y-73730510D01*
X107508022Y-73739835D01*
X98421118Y-73739835D01*
X98528042Y-73542905D01*
X98531340Y-73537192D01*
X98938221Y-72873221D01*
X98941814Y-72867689D01*
X99351768Y-72271203D01*
X108422449Y-72271203D01*
X108424202Y-72277095D01*
X109207188Y-73060081D01*
X109221132Y-73067695D01*
X109222965Y-73067564D01*
X109229580Y-73063313D01*
X110009103Y-72283790D01*
X110015863Y-72271410D01*
X110011809Y-72265994D01*
X109865808Y-72193994D01*
X109857176Y-72190507D01*
X109624288Y-72115958D01*
X109615238Y-72113785D01*
X109373891Y-72074480D01*
X109364602Y-72073668D01*
X109120114Y-72070467D01*
X109110803Y-72071037D01*
X108868522Y-72104010D01*
X108859403Y-72105948D01*
X108624668Y-72174367D01*
X108615915Y-72177639D01*
X108433074Y-72261931D01*
X108422449Y-72271203D01*
X99351768Y-72271203D01*
X99382880Y-72225935D01*
X99386758Y-72220598D01*
X99860803Y-71602811D01*
X99864954Y-71597685D01*
X100370679Y-71005557D01*
X100375093Y-71000654D01*
X100911127Y-70435791D01*
X100915791Y-70431127D01*
X101480654Y-69895093D01*
X101485557Y-69890679D01*
X102077685Y-69384954D01*
X102082811Y-69380803D01*
X102700598Y-68906758D01*
X102705935Y-68902880D01*
X103347689Y-68461814D01*
X103353221Y-68458221D01*
X104017192Y-68051340D01*
X104022905Y-68048042D01*
X104707243Y-67676477D01*
X104713121Y-67673482D01*
X105415971Y-67338239D01*
X105421997Y-67335556D01*
X106141430Y-67037558D01*
X106147588Y-67035194D01*
X106881644Y-66775250D01*
X106887918Y-66773212D01*
X107629018Y-66553689D01*
X107664804Y-66548500D01*
X169195196Y-66548500D01*
X169230982Y-66553689D01*
G37*
G04 #@! TD.AperFunction*
M02*
